<?xml version="1.0" encoding="utf-8"?>
<!-- Generator: Adobe Illustrator 23.0.0, SVG Export Plug-In . SVG Version: 6.00 Build 0)  -->
<svg version="1.1" id="Calque_1" xmlns="http://www.w3.org/2000/svg" xmlns:xlink="http://www.w3.org/1999/xlink" x="0px" y="0px"
	 viewBox="0 0 1366 768" style="enable-background:new 0 0 1366 768;" xml:space="preserve">
<style type="text/css">
	.st0{fill:none;stroke:#000000;stroke-miterlimit:10;}
	.st1{fill:#A40300;stroke:#A40300;stroke-miterlimit:10;}
</style>
<g>
	<path class="st0" d="M665.03,483.34c-3.69-1.18-7.99-0.19-10.79,2.48c0.07,0.94,1.25,1.58,2.08,1.15c-1.39,3.53-4.39,6.39-7.99,7.6
		c0.88,4.38-3.23,9-7.68,8.65c0.53,4.9-0.25,9.94-2.25,14.45c0.52,1.44,2.8,1.12,3.78-0.06c0.98-1.18,1.28-2.79,2.24-3.98
		c1.45-1.81,4.24-2.19,6.34-1.19c2.09,1,3.49,3.14,4,5.4c0.74,3.25-0.12,6.79,1.11,9.88c0.94,2.34,2.94,4.07,4.32,6.18
		c1.38,2.11,1.99,5.2,0.2,6.98c-1.14,1.13-2.88,1.34-4.38,1.92s-3.01,2.03-2.53,3.57c0.4,1.27,1.89,1.77,2.99,2.53
		c3.32,2.28,2.59,8.34-1.18,9.77c0.6,6.53,7.93,11.52,14.23,9.7c1.3-0.38,2.53-0.99,3.62-1.78c1.16,6.66-2.25,13.87-8.13,17.2
		c-1.71,0.97-3.6,1.64-5.13,2.87c-0.82,0.67-1.51,1.48-2.2,2.29c-2.58,3.04-5.15,6.09-7.73,9.13c-1.14-1.52-3.48-0.86-5.33-0.46
		c-4.59,0.99-9.29-0.67-13.69-2.3c-0.17-0.63-0.34-1.26-0.5-1.89c-1.33,0.37-2.87-0.63-3.07-2c-7.17,1.63-14.98,0.24-21.14-3.77
		c-0.91,2.02-3.57,2.32-5.7,2.95c-2.13,0.63-4.33,3.09-2.9,4.78c-2.48,0-4.96,0-7.43,0.01c0.3,3.14-1.1,6.4-3.6,8.33
		c0.79,3.83,0.99,7.78,0.57,11.67c-4.95,0.75-9.89,1.5-14.84,2.25c-2.88,0.44-6.82,0.21-7.44-2.64c-0.63,0.42-1.26,0.84-1.89,1.25
		c-0.68-1.21-1.37-2.42-2.05-3.63c-1.22,1.07-2.44,2.13-3.66,3.2c1.02-3.29-1.61-6.7-4.66-8.29c-3.06-1.59-6.59-2.05-9.69-3.54
		c-0.03,2.83-2.88,4.98-5.69,5.27c-2.82,0.29-5.58-0.79-8.2-1.85c-1.56-0.63-3.12-1.26-4.68-1.88c-1.32-0.53-3.59-0.34-3.27,1.05
		c-2.77-1.22-5.23-3.12-7.09-5.5c-3.72-0.49-7.44-0.97-11.16-1.46c-0.16-2.68-0.33-5.35-0.49-8.03c-2.81,0.64-6.32,0.45-6.88-2.38
		c3.84-1.7,6.61-5.26,8.24-9.14s2.24-8.08,2.84-12.24c0.41-2.86,1.65-6.48,4.53-6.45c0.13-1.2-0.18-2.43-0.86-3.42
		c-0.39,0.77-1.3,1.23-2.15,1.1c-0.22-5.47-0.03-10.95,0.55-16.39c0.23-2.11,0.9-4.68,2.97-5.16c2.35-0.55,4.12,2.06,5.12,4.26
		c-0.42-5.04-4.44-10.32-9.42-11.23c-0.14-0.76-1.32,0.43-0.67,0.84c0.66,0.41,1.47-0.19,1.96-0.79c3.02-3.71,3.62-9.21,1.49-13.48
		c-2.14-4.27-6.9-7.09-11.68-6.9c0.81-3.6-1.65-7.62-5.23-8.54c3.64-2.81,3.13-9.4-0.91-11.61c-0.82-0.45-1.73-0.74-2.45-1.33
		c-1.59-1.32-1.6-4.11-0.02-5.44c-6.77-2.18-13.54-4.36-20.31-6.54c-0.89-0.29-1.82-0.6-2.42-1.32c-0.47-0.56-0.69-1.32-1.24-1.8
		c-0.71-0.62-1.75-0.62-2.68-0.59c-2.29,0.08-4.57,0.16-6.86,0.25c1.09-1.15,0.15-3.07-1.05-4.1c-1.2-1.03-2.75-1.97-3-3.53
		c1.9,0.24,3.8,0.48,5.71,0.72c0.18-2.8-0.44-5.65-1.75-8.13c-1.24,1.38-3.85,0.46-4.41-1.32c-0.56-1.77,0.51-3.73,2.03-4.8
		c1.52-1.07,3.41-1.45,5.24-1.8c2.63-0.51,5.42-1.01,7.94-0.09c1.61,0.58,3.25,1.74,4.86,1.17c0.42-3.17,4.64-4.57,7.6-3.34
		s4.84,4.09,6.55,6.79c2.03,0.01,4.05-0.84,5.46-2.3c1.03,0.48,1.9,1.32,2.41,2.34c3.99-1.53,8.51-1.64,12.56-0.3
		c1.08-4.23,2.14-8.8,0.55-12.87c-0.86-2.21-2.45-4.07-3.38-6.26c-0.94-2.18-1.05-5.04,0.72-6.62c2.5-2.23,6.39-0.36,9.15,1.55
		c0.77,0.53,1.54,1.06,2.31,1.59c3.66,2.53,7.48,5.13,11.88,5.8c1.37,0.21,2.82,0.21,4.06-0.41c2.49-1.25,3.16-4.38,4.37-6.89
		c1.24-2.57,3.31-4.74,5.82-6.1c3.07-1.66,6.63-2.09,9.96-3.1c3.34-1,6.76-2.88,8.02-6.14c1.5-3.89-0.59-8.38,0.57-12.39
		c1.59-5.53,8.23-7.55,13.86-8.7c0.89-0.18,1.97-1.77,2.79-2.15c0.82,2.42-0.93,5.68,1,7.35c0.59,0.51,1.37,0.69,2.12,0.91
		c3.38,1,6.43,3.09,8.59,5.87c0.88,1.14,1.67,2.44,2.94,3.13c0.86,0.47,1.86,0.6,2.83,0.73c2.74,0.36,5.48,0.72,8.21,1.07
		c0.61,3.16,1.23,6.32,1.84,9.48c3.22,0.25,6.48,0.11,9.67-0.41c-0.93-1.46-0.49-3.62,0.93-4.61c0.56,2.71,1.12,5.43,1.68,8.14
		c0.16,0.79,0.34,1.61,0.84,2.25c0.58,0.73,1.49,1.08,2.36,1.41c2.49,0.94,4.99,1.87,7.48,2.81c1.04,0.39,2.14,0.79,3.23,0.59
		c1.09-0.19,2.12-1.22,1.89-2.31c-0.12,2.02,2.39,3.11,4.41,3.13c2.02,0.03,4.32-0.32,5.83,1.03c0.73,0.65,1.13,1.59,1.68,2.39
		c2.78,4.01,8.59,3.87,13.46,4.26c5.21,0.41,10.33,1.92,14.94,4.39c0.1,2.55-0.2,4.69-1.79,6.68c-0.55,0.69-1.27,1.24-1.83,1.91
		c-0.83,0.99-1.31,2.23-1.7,3.46c-1.93,6.13-1.85,12.69-1.75,19.12c0.05,2.98,0.09,5.95,0.14,8.93
		C665.51,483.64,665.58,483.52,665.03,483.34z"/>
	<path class="st0" d="M753.02,108.98c2.28,7.7,4.9,15.29,7.85,22.75c5.68,1.34,11.4,2.69,17.23,2.87c-1.66,1.32,0.36,3.78,2.04,5.09
		c2.6,2.03,4.74,4.88,5.18,8.15c0.44,3.27-1.17,6.92-4.22,8.18c0.13,0.98,0.26,1.96,0.38,2.94c1.28,0.53,2.56,1.06,3.84,1.58
		c-2.55,2.96-3.71,6.83-5.39,10.35c-1.69,3.52-4.33,7.02-8.15,7.81c-2.32,0.48-4.75-0.12-7.1,0.2s-4.87,2.23-4.42,4.56
		c3.11-1.94,7.41,0.52,8.88,3.87s1.04,7.19,0.94,10.86c-0.22,7.85,1.19,15.66,1.66,23.5s-0.09,16.06-3.92,22.92
		c-0.39,0.71-0.83,1.41-1.45,1.93c-1.4,1.19-3.4,1.26-5.24,1.33c-2.97,0.11-6.02,0.4-8.68,1.72c-2.67,1.31-4.91,3.85-5.1,6.82
		c-0.14,2.07,0.7,4.06,1.36,6.02s1.15,4.16,0.34,6.07c-0.81,1.91-3.41,3.13-5.04,1.85c-1.09-0.86-1.67-2.64-3.05-2.62
		c-0.08,1.38-0.52,2.73-1.26,3.9c-3.82-0.34-7.64-0.67-11.46-1.01c2.14-2.63,1.45-6.65-0.4-9.49c-1.85-2.84-4.64-4.91-6.93-7.4
		c-0.67-0.73-1.35-1.7-1.05-2.65c0.32-1,1.5-1.37,2.43-1.86c3.22-1.68,4.11-6.6,1.69-9.3c-2.11-2.36-5.78-2.76-7.97-5.04
		c-1.14-1.19-1.76-2.76-2.45-4.26c-2.76-6.03-6.98-11.39-12.19-15.5c1.13-2.66,1.56-5.61,1.23-8.48c-0.82,0.82-1.63,1.63-2.45,2.45
		c-3.61-8.52-5.8-15.29-8.46-24.16c-1.95-6.52-9.36-10.55-10.07-18.47c-0.2-2.23,0.07-4.49-0.15-6.71c-2.64,4.33-1.9,10.43,1.7,14
		c-0.22,6.73-7.83,10.2-12.62,14.93c-2.82,2.78-4.78,6.28-7.02,9.54c-4.62,6.73-11.04,12.86-19.07,14.32c-3.9,0.71-8,0.25-11.64-1.3
		c-0.05-1.37-0.1-2.74-0.15-4.11c-6.11,0.35-11.05-4.64-15.09-9.24c-0.84-0.95-1.7-1.95-2-3.18c-0.3-1.23,0.16-2.75,1.33-3.21
		s2.74,0.83,2.19,1.98c1.47-0.53,2.95-1.06,4.42-1.59c-1.78-3.22-0.74-7.7,2.26-9.81c-1.95-0.9-3.45-2.72-3.95-4.81
		c-3.16,2.17-6.4,4.2-9.73,6.1c-1.47-3.88-0.41-8.58,2.57-11.46c-2.03-0.8-4.06-1.6-6.09-2.39c2.87-2.48,5.75-4.96,8.62-7.44
		c-1.88-2.65-5.39-4.04-8.57-3.38c1.42-3.75-5.07-8.09-2.35-11.05c0.7-0.76,1.78-1,2.66-1.53c0.88-0.53,1.61-1.71,1.02-2.55
		c-1.55-0.3-3.09-0.6-4.64-0.9c0.84-1.15,2.52-1.58,3.81-0.99c0.47-2.18,0.93-4.36,1.4-6.54c-1.94,0.13-3.91-0.38-5.54-1.45
		c1.41-1.78,2.83-3.56,4.24-5.34c-3.12-1.36-3.86-6.24-1.29-8.46c-2.79-0.82-4.36-4.42-3.06-7.02c5.04,1.54,7.74-7.76,13.01-7.54
		c1.14,0.05,2.36,0.55,3.36-0.01c2.15-1.21,0.4-5.55,2.68-6.49c4.84-0.13,8.83,3.59,12.22,7.05c0.57-2.79,0.51-5.71-0.18-8.47
		c-0.2-0.82-0.51-1.69-1.21-2.15c-0.71-0.46-1.63-0.39-2.41-0.7c-2.06-0.82-2.09-4.13-0.32-5.47c1.77-1.34,4.4-0.91,6.2,0.38
		s2.96,3.28,4.07,5.2c2.13-1.25,3.38-3.84,3.05-6.28c-0.33-2.45-2.23-4.61-4.61-5.25c3.23-2.22,6.3-4.66,9.18-7.3
		c-0.76,0.89-1.16,2.07-1.1,3.24c1.74,1.2,3.86-0.91,4.83-2.79s2.7-4.17,4.65-3.36c0.24,2.36,1.23,4.64,2.79,6.43
		c0.18-3.88,7.24-2.92,9-6.38c0.89-1.76,0.56-4.69,2.51-4.96c1.1-0.15,2.19,0.87,3.22,0.48c2-0.75-0.27-3.92,0.49-5.92
		c0.37-0.97,1.41-1.46,2.22-2.11c1.65-1.32,2.46-3.6,2.02-5.67c0.34,2.24-1.71,4.11-3.73,5.12s-4.36,1.75-5.64,3.62
		c-1.78,2.59-0.84,6.45-2.83,8.88c-1.28,1.56-3.66,2.08-5.47,1.19c-1.81-0.89-2.86-3.1-2.4-5.06c-1.38,0.62-2.89,0.93-4.39,0.91
		c2-2.84,4.01-5.68,6.01-8.52c0.91-1.29,1.83-2.6,2.43-4.07c0.78-1.92,0.98-4.06,1.98-5.87c1-1.81,3.29-3.23,5.12-2.26
		c0.98-1.72,2.9-2.86,4.87-2.91c0.32-1.17,0.15-2.47-0.47-3.52c-1.97,1.15-4.1,2.34-6.37,2.11c-2.26-0.23-4.41-2.61-3.5-4.69
		c3.24,0.39,6.61-0.26,9.46-1.84c2.59-1.43,4.48-5.25,5.21-8.12c0.1-0.4,0.19-0.81,0.11-1.21c-0.11-0.58-0.56-1.03-1-1.43
		c-1.32-1.21-2.77-2.29-4.31-3.21c3.99-2.25,6.85-6.41,7.52-10.95c0.17-1.18,0.22-2.41,0.79-3.46c0.66-1.21,2.02-2.43,1.41-3.67"/>
	<path class="st0" d="M700.09,6.2c3.7,10.89,3.4,23.08-0.82,33.77c-0.38,0.97-0.81,2-0.61,3.03c0.4,2.02,2.82,2.8,4.84,3.19
		c0.27,2.81,0.54,5.62,0.81,8.43c-2.28,1.96-5.61,0.14-8.5,0.99c-1.62,0.47-2.84,1.77-3.95,3.04c-2.44,2.76-4.83,5.7-5.99,9.19
		c-1.69,5.08-0.58,10.65,1.12,15.73c1.7,5.07,3.98,10.02,4.65,15.33c0.53,4.19,0.05,8.53,1.18,12.61c1.13,4.07,4.67,8.01,8.87,7.56
		c1.03,2.02,2.43,5.29,1.74,7.45c-0.57,1.77-2.16,2.97-3.62,4.13c-1.45,1.16-2.95,2.57-3.15,4.42s1.78,3.87,3.42,2.99
		c0.67,3.57,1.33,7.13,2,10.7c0.32,1.74,0.65,3.54,0.23,5.25c-0.43,1.75-1.58,3.22-2.54,4.75c-3.37,5.4-4.38,12.22-2.72,18.36
		c0.46,1.71,1.12,3.49,0.64,5.19s-2.78,2.95-4.05,1.72c-1.14-1.1-1.2-3.7-2.76-3.47"/>
	<path class="st0" d="M752.61,107.86c-1.06-1.45-0.44-3.53,0.53-5.04c0.97-1.51,2.29-2.9,2.62-4.67c0.61-3.26-2.34-6.29-2.13-9.6
		c0.07-1.1,0.48-2.14,0.89-3.17c1.37-3.41,2.74-6.82,4.1-10.22c0.95-2.37,1.92-5.01,1.07-7.43c5.53-2.29,5.15-10.71,9.65-14.67
		c1.24-1.09,2.78-1.76,4.14-2.7c7.25-4.97,7.57-15.37,7.13-24.15c-3.65-0.14-6.75-3.8-6.29-7.42c0.29-2.28,1.62-4.98-0.04-6.57
		c-0.23-1.18,0.63-2.89,1.68-3.47c1.05-0.59,1.98-2.18,0.96-2.83"/>
	<path class="st0" d="M883.63,101.74c1.36-5.91,3.49-11.65,6.31-17.02c1.6-3.05,3.46-6.07,3.98-9.48c0.66-4.35-0.94-8.77-0.47-13.15
		c0.44-4.16,2.7-7.86,4.35-11.71c1.65-3.85,2.66-8.42,0.66-12.1c-0.82-1.51-2.08-2.72-3.31-3.91c-4.13-3.96-8.56-8.09-14.15-9.3
		c-2.83-0.61-6.42-0.86-7.49-3.55c-0.4-1.01-0.3-2.14-0.34-3.22c-0.1-3.36-1.57-6.66-4-8.98c-0.88,0.46-1.75,0.92-2.63,1.39
		c-0.02-2.63-0.05-5.26-0.07-7.89"/>
	<path class="st0" d="M814.69,2.63c3.24,2.1,3.47,7.52,0.44,9.9c-1.32,1.03-3.06,1.52-4.11,2.82c-1.69,2.07-0.92,5.09-0.75,7.76
		c0.6,9.48-7.4,17.09-10.85,25.94c-0.73,1.86-1.26,3.82-2.33,5.51c-0.7,1.09-1.6,2.04-2.31,3.13c-2.03,3.1-2.32,6.98-2.55,10.68
		c-0.41,6.5-0.71,13.45,2.56,19.08c1.35,2.32,3.24,4.28,4.81,6.46c6.07,8.36,7.19,19.2,8.11,29.49c4.79-1.99,10.89,0.04,13.53,4.5
		c0.89-1.01,1.79-2.02,2.68-3.03c0.48,2.67,0.97,5.33,1.45,8c1.23,0.38,2.69-0.36,3.1-1.57c3.23,5.08,12.14,4.7,14.92-0.65
		c0.88-1.69,1.39-3.87,3.15-4.59c1.11-0.46,2.4-0.15,3.56-0.45c1.1-0.28,1.98-1.06,2.83-1.81c5.64-5,11.54-9.7,17.67-14.09
		c3.68-2.63,7.74-5.25,12.26-5.32c0.18-1.12,0.73-1.89,0.9-3.01"/>
	<path class="st0" d="M576.75,391.87c1.02-0.8,2.61-0.03,3.76-0.64c0.48-0.26,0.81-0.72,1.15-1.15c2.65-3.41,7.61-3.99,8.85-8.34
		c1.84,0.88,3.88,0.14,4.88-1.65c0.97-1.72,1-3.79,1.53-5.69c0.66-2.38,2.15-4.52,4.14-5.97c1.11-0.81,2.37-1.41,3.36-2.36
		c1.08-1.04,1.75-2.41,2.34-3.79c1.78-4.21,2.88-8.71,3.24-13.26c0.12-1.52,0.23-3.2,1.32-4.26c1.47-1.44,4.15-0.87,5.41,0.76
		c1.26,1.62,1.35,3.89,0.9,5.9c-0.26,1.15-0.68,2.33-0.44,3.49s1.55,2.18,2.59,1.62c0.56-0.3,0.84-0.94,1.05-1.55
		c1-2.87,0.1-6.81-0.26-9.82c0.57,0.44,1.14,0.88,1.71,1.32c-2.18-4.79,0.05-11.11,4.75-13.47c1.88-0.95,4-1.29,6.09-1.63
		c3.13-0.5,6.27-1,9.4-1.5c-0.57,1.2,0.85,2.44,2.17,2.68c1.31,0.24,2.8,0.09,3.83,0.94c0.85,0.7,1.1,1.88,1.72,2.8
		c0.62,0.91,2.11,1.48,2.75,0.58c1.18-1.22-0.2-3.27-1.74-3.97c-1.55-0.7-3.48-1.04-4.3-2.53c-1.24-2.26,1.13-4.75,3.23-6.24
		c1.81-1.28,3.74-2.61,5.96-2.73c4.23-0.23,7.27,3.86,9.47,7.48c1.14-1.08,1.75-2.69,1.62-4.26c1.15,1.15,2.69-1.23,2.17-2.77
		c-0.52-1.54-1.64-3.33-0.62-4.59c1.6-1.96,5.49,0.94,7.1-1.01c1.06-1.29-0.15-3.16-1.32-4.36c-2.09-2.15-4.17-4.29-6.26-6.44
		c1.5-0.35,3-0.7,4.5-1.05c-1.99-4.66-4.01-9.39-4.66-14.41c-0.19-1.47-0.27-2.95-0.61-4.39c-0.34-1.39-0.92-2.72-1.07-4.14
		c-0.21-2,0.48-3.99,0.55-6c0.16-4.66-2.93-8.71-5.51-12.59c-2.58-3.88-4.86-8.78-2.99-13.05c0.22-0.51,0.54-1.03,1.06-1.23
		c0.89-0.34,1.79,0.4,2.71,0.64c2.86,0.74,4.51-3.13,4.89-6.06c1.11,1.62,3.92,0.88,4.83-0.86s0.53-3.86,0.04-5.76
		c-0.79,2.71-6.49-0.78-7.4,1.89c-0.25,0.74,0.14,1.53,0.14,2.31c0.01,1.6-1.65,2.8-3.25,2.88c-1.6,0.08-3.11-0.64-4.55-1.34
		c-0.85-3.17,0.94-6.84,3.96-8.12c2.29-0.96,4.88-0.63,7.36-0.7c2.48-0.08,5.27-0.83,6.41-3.03c0.79-1.53,0.63-3.55,1.84-4.77
		c0.81-0.82,2.05-1.07,2.97-1.77c1.46-1.11,1.85-3.1,2.56-4.8c0.7-1.7,2.57-3.12,4.34-2.61c1,5.76,2,11.7,0.72,17.41
		c-0.92,4.07-2.75,8.99,0.24,11.9c2.23,2.17,5.83,1.7,8.88,1.09c1.24,2.25,0.86,5.29-0.9,7.16c-1.76,1.87-4.77,2.44-7.09,1.33
		c0.43,2.29,0.85,4.68,0.25,6.94c-0.61,2.25-2.57,4.32-4.91,4.24c0.33,1.93,0.67,3.86,1,5.8c5.61-0.63,10.94-2.72,16.2-4.79
		c2.03-0.8,4.14-1.66,5.55-3.32c1.41-1.66,1.83-4.39,0.31-5.95c2.2,2.09,3.93,4.66,5.05,7.48c1.74-3.18,2.15-7.06,1.12-10.53
		c1.24-0.8,2.98-0.3,4.02,0.74s1.57,2.48,2.05,3.87c0.78,2.24,1.56,4.47,2.35,6.71c0.48,1.37,0.97,2.83,0.68,4.26
		c-0.41,2.03-2.23,3.4-3.55,4.99c-1.32,1.59-2.08,4.23-0.49,5.56c-1.11,0.48-2.21,0.95-3.32,1.43c-2-2.72-5.62-3.54-8.83-4.6
		s-6.7-3.11-7.05-6.47c-2.28,1.12-1.23,4.54,0.07,6.72c1.3,2.18,2.11,5.74-0.27,6.61c-1.16,0.43-2.43-0.18-3.52-0.77
		c-3.32-1.79-6.64-3.59-9.96-5.38c-1.05-0.56-2.15-1.15-3.34-1.12s-2.45,0.9-2.45,2.08c1.88,0.21,4.43,1.69,3.36,3.25
		c-0.48,0.7-1.56,0.91-1.84,1.71c-0.34,1,0.92,1.87,1.98,1.83c1.06-0.04,2.09-0.54,3.14-0.4s1.99,1.52,1.2,2.23
		c-1.95-0.25-3.94-0.17-5.86,0.25c-0.09,0.86,0.07,1.76,0.47,2.53c2.17-0.52,4.47,0.68,5.88,2.41c1.41,1.73,2.13,3.91,2.81,6.04
		c4.89,0.67,9.79,1.33,14.68,2c0.64,0.63,0.86,1.65,0.52,2.49c-1.06,0.49-2.12,0.97-3.18,1.46c-0.4,2.42,1.65,4.83,4.08,5.24
		s4.92-0.92,6.36-2.92c0.52-0.72,0.96-1.55,1.74-1.95c0.85-0.43,1.87-0.22,2.83-0.21c5.29,0.07,8.56-5.58,10.67-10.43
		c1.2,2.15,4.3,2.98,6.41,1.7c-0.18,1.16,1.01,2.31,2.16,2.09c0.78-2.33,0.33-5.04-1.16-6.99c1.89-0.15,3.76-0.68,5.45-1.54
		c0.98,2.93,0.75,6.25-0.63,9.02c0.99,1.91,2.93,3.3,5.06,3.61c-0.92-0.71,0.64-2.2,1.65-1.63c1.01,0.57,1.2,1.92,1.31,3.08
		c0.18,1.87,0.5,3.83,1.71,5.26c1.22,1.43,3.62,1.99,4.96,0.68c2.31,6.47,4.83,14.06,3.84,20.86c-0.29,2.02-1.06,4.39-3.04,4.9
		c3.58-2.02,8.8,0.16,9.88,4.13c0.32,1.18-0.79,3.01-1.64,2.12c-0.76,2.74,3.29,4,5.15,6.15c3.39,3.92-1.05,10.78,2.01,14.96
		c2.76-0.49,5.43,1.67,6.49,4.26c1.06,2.59,0.91,5.5,0.73,8.29c-0.08,1.28-0.22,2.68-1.16,3.55c-2.58,2.39-6.45-2.08-9.93-1.52
		c0.3,3.27-2.5,6.01-5.41,7.52s-6.23,2.4-8.63,4.63c-2.02,1.87-3.19,4.51-5.14,6.45c-1.95,1.94-5.4,2.99-7.36,1.06
		c-0.92,2.36-3.18,4.15-5.69,4.49c-2.38,0.33,1.07,3.43,2.85,5.05c1.78,1.62,4.23,2.97,4.55,5.35c0.32,2.4-1.59,5.43,0.31,6.93
		c1.29,1.02,3.37,0.25,4.68,1.23c0.89,0.67,1.1,1.9,1.67,2.86c1.5,2.51,5.05,2.63,7.59,4.09c1.31,0.75,2.36,1.88,3.38,3
		c2.44,2.65,4.88,5.29,7.32,7.94c1.27-0.36,2.54-0.72,3.81-1.08c1.25,3.94-3.62,8.22-7.37,6.47c0.81,5.85-10.19,7.33-10.38,13.23
		c-0.04,1.45,0.63,2.8,0.92,4.22c0.29,1.42,0.03,3.18-1.27,3.82c-0.82,0.41-1.79,0.23-2.71,0.2c-4.51-0.16-8.72,3.92-8.69,8.43
		c-5.34-1.68-11.67,0.62-14.69,5.34c-1.55-3.05-5.33-4.79-8.66-3.98s-5.89,4.08-5.86,7.51c-1.21-1.93-2.67-3.79-4.66-4.88
		c-2-1.09-4.64-1.24-6.45,0.13c-3.02,2.29-2.21,6.96-1.09,10.59c3.65,1.74,7.3,3.47,10.95,5.21c0.89,0.42,1.95,0.84,2.81,0.37
		c0.64-0.35,0.97-1.11,1.62-1.44c0.64-0.32,1.4-0.16,2.09,0.02c3.64,0.92,7.28,1.84,10.92,2.75c1.32-0.85-0.49-3.03,0.19-4.44
		c0.48-1,1.86-1.02,2.97-0.99c5.22,0.16,10.47-1.73,14.39-5.18c-1.22,2.94,1.19,6.32,4.15,7.48c2.96,1.16,6.26,0.8,9.44,0.77
		c5.14-0.04,10.28,0.87,15.1,2.66c0.38,0.14,0.77,0.3,1.05,0.59c0.81,0.85,0.15,2.39-0.93,2.87c-1.08,0.47-2.32,0.21-3.47-0.05
		c-0.84,1.84-1.68,3.69-2.52,5.53c1.8-0.17,3.61-0.34,5.41-0.51c-2.51,2.81-1.85,7.82,1.32,9.88"/>
	<path class="st0" d="M697.56,477.62c-4-0.91-8-1.83-12-2.74c-0.81-0.18-1.71-0.35-2.42,0.08c-0.45,0.28-0.73,0.75-1.04,1.18
		c-1.64,2.27-4.54,3.55-7.32,3.23c-1.39-0.16-2.72-0.68-4.11-0.83s-2.97,0.18-3.76,1.34"/>
	<path class="st0" d="M655.42,522.55c4.39-1.42,9.15-0.2,13.77-0.29c4.62-0.09,10.01-2.46,10.52-7.05
		c-0.11,0.58-1.17,0.54-1.24-0.05c-1.57-3.66,1.29-8.46,5.26-8.81c-0.01,2.58,0.25,5.66,2.49,6.94c0.8,0.45,1.76,0.61,2.49,1.16
		c2.73,2.05,0.66,7.92,3.93,8.92c1.71,0.34,3.13-1.5,3.36-3.22s-0.24-3.5,0.03-5.22c0.16-1.02,0.58-1.98,0.88-2.98
		c0.68-2.25,0.73-4.69,0.15-6.98c1.65,0.8,3.74,0.58,5.19-0.54c-0.28,2.11,0.09,5.07,2.21,5.2c0.89,0.05,1.69-0.49,2.51-0.84
		c2.19-0.93,4.92-0.38,6.57,1.33c1.27-2.51,0.71-5.83-1.32-7.78c1.5-0.85,3.35-1.06,4.99-0.55c0.71-1.9,0.64-4.08-0.18-5.94"/>
	<path class="st0" d="M775.5,516.6c-2.99,0.8-6.15,1.71-8.21,4.02c-0.63,0.7-1.13,1.51-1.78,2.2c-3.45,3.64-10.24,3-12.87,7.27
		c-1.82,2.97-0.15,7.45,3.16,8.5c0.65,0.21,1.35,0.3,1.91,0.69c1.26,0.88,1.21,2.82,0.53,4.2s-1.84,2.49-2.48,3.88
		c-1.86,4.04,1.11,8.65,4.39,11.65c3.45,3.15,7.42,5.72,11.71,7.57c3.07,1.32,6.32,2.28,9.22,3.94c2.91,1.66,5.53,4.19,6.31,7.45"/>
	<path class="st0" d="M672.77,577.45c3.95,1.79,7.91-2.38,10.06-6.14c2.49-4.36,5.32-9.39,10.24-10.36c2.57-0.51,5.2,0.25,7.71,0.99
		c5.95,1.77,12.1,3.64,16.76,7.74c4.32,3.8,6.93,9.14,9.01,14.5c1.33,3.41,2.49,6.94,2.74,10.59c1.31-0.83,3.1-0.81,4.4,0.04
		c1.2,0.79,1.89,2.14,2.66,3.36c2.73,4.3,6.98,7.37,11.13,10.32c3.76,2.68,7.52,5.35,11.27,8.03c6.71,4.78,13.42,9.56,20.13,14.34
		c1.18,0.84,2.5,1.72,3.94,1.55c-0.91-0.87-0.21-2.56,0.96-3.04c1.17-0.48,2.49-0.14,3.71,0.2c3.03,0.85,6.11,1.73,8.73,3.47
		c2.62,1.74,4.75,4.52,4.9,7.66c2.56-0.02,5.12-0.04,7.68-0.06c0.66,2.09,3.01,3.48,5.15,3.05c0.99-0.2,2.05-0.73,2.96-0.28
		c0.58,0.29,0.92,0.91,1.19,1.5c1.03,2.25,1.71,4.65,2,7.11c2.75-0.45,5.67,1.66,6.1,4.42c2.08,0.06,4.04-1.69,4.22-3.76
		c2.24-0.46,4.71,0.91,5.5,3.06c0.66,1.8,0.24,3.92,1.15,5.6c0.91,1.69,4.33,1.59,4.01-0.3c-0.81-0.74-1.61-1.48-2.42-2.22
		c0.95,1.96,2.51,3.82,3.45,5.78c0.64,1.32,1.3,2.68,2.35,3.71c0.68,0.67,1.54,1.22,1.94,2.09c0.54,1.18,0.08,2.58,0.27,3.87
		c0.4,2.78,3.76,4.96,2.96,7.65c-0.61,2.05-3.26,2.73-4.41,4.53c-2.03,0.56-0.83,1.83-0.44,3.9c0.4,2.07,1.09,4.41-0.14,6.12
		c-0.55,0.75-1.39,1.23-2.06,1.88c-2.39,2.33-1.67,6.97,1.31,8.46c2.25,0.86,4.32-1.79,4.75-4.16c0.43-2.37,0.26-5.09,1.92-6.84
		c1.5-1.57,4.2-1.94,5.1-3.92c0.7-1.52,0-3.26-0.25-4.91c-0.66-4.43,2.62-9.08,7.02-9.95c1.4,1.09,2.79,2.18,4.19,3.26
		c2.71,0.41,3.81-3.76,2.38-6.1c-1.43-2.34-4.08-3.75-5.4-6.15c-0.95-1.72-1.15-3.83-2.39-5.35c-1.85-2.27-5.31-2.43-7.58-4.28
		c-2.63-2.15-3.03-5.96-3.16-9.35c-0.05-1.36-0.09-2.77,0.35-4.06c0.77-2.25,2.84-3.76,4.8-5.12c2.75-1.91,6.29-3.89,9.23-2.29
		c1.14,0.62,2.01,1.73,3.23,2.18c1.33,0.49,2.8,0.1,4.21,0.11c5.12,0.05,8.59,5.05,11.14,9.49c3.3-6.14-0.25-14.16-5.96-18.16
		s-12.94-4.96-19.87-5.78c-6.92-0.81-14.15-1.69-19.96-5.53c-2.99-1.98-5.69-5.68-4.19-8.94c0.67-1.46,2.12-2.95,1.39-4.38
		c-0.69-1.33-2.62-1.17-4.08-0.81c-6.86,1.69-14.4,3.17-20.74,0.07c-2.94-1.44-5.35-3.75-7.71-6.02
		c-6.78-6.54-13.94-13.81-15.2-23.15"/>
	<path class="st0" d="M708.07,606.29c0.59-0.04,1.18-0.2,1.71-0.46c1.51,1.97,1.91,4.61,1.7,7.08c-0.21,2.47-0.98,4.86-1.62,7.26
		c-1.17,4.38-1.9,8.88-2.19,13.41c-0.04,0.62-0.09,1.3-0.49,1.77c-0.29,0.35-0.73,0.54-1.15,0.71c-1.54,0.64-3.62,1.17-4.65-0.16
		c-0.42-0.54-0.52-1.26-0.64-1.93c-0.59-3.21-2.04-6.26-4.16-8.74c-0.5-0.58-1.05-1.16-1.24-1.9c-0.12-0.47-0.09-0.96-0.06-1.44
		c0.09-1.3,0.17-2.6,0.26-3.9c-0.61,0.06-1.23,0.13-1.84,0.19c-1.05-1.32-0.63-3.32,0.3-4.74s2.27-2.53,3.16-3.97
		c0.6-0.97,0.99-2.08,1.74-2.93c1.61-1.83,4.39-2.01,6.47-3.28c2.09-1.28,3.26-3.67,3.25-6.08
		C708.56,597.87,708.23,606.28,708.07,606.29z"/>
	<path class="st0" d="M698.75,650.24c-0.46,1.68-0.76,3.81-2.4,4.37c-1.86,0.63-3.79-1.42-5.7-0.94c-1.29,0.33-2.04,1.76-2.03,3.09
		c0.01,1.33,0.59,2.58,1.15,3.78c4.58,9.87,8.47,21.09,5.14,31.44c-0.25,0.77-0.53,1.6-0.25,2.36c0.24,0.65,0.86,1.08,1.44,1.47
		c2.36,1.59,4.73,3.18,7.09,4.76c0.49,0.33,1.01,0.67,1.6,0.68c1.68,0.03,2.53-2.52,4.22-2.5c-0.07-1.76-0.14-3.52-0.2-5.28
		c1.97-1.95,6.4,1.89,7.66-0.57c0.24-0.46,0.22-1.01,0.19-1.53c-0.19-3.3-0.81-6.62-0.25-9.88c0.82-4.7,4.07-9.2,2.88-13.82
		c-0.39-1.51-1.25-2.95-1.13-4.51c0.09-1.25,0.8-2.35,1.22-3.53C723.57,647.7,703.12,634.32,698.75,650.24z"/>
	<path class="st0" d="M604.96,679.03c0.04-1.43,0.07-2.86,0.11-4.29c0.83,0.63,1.33,1.63,2.19,2.2c0.86,0.57,2.41,0.32,2.46-0.72
		c0.64,2.13,0.87,4.37,0.67,6.58c-1.31-0.67-1.73-2.31-2.5-3.56s-2.75-2.16-3.6-0.95"/>
	<path class="st0" d="M589.59,681.52c-0.16-0.24-0.4-0.43-0.65-0.58c-2.06-1.21-5.14,0.28-5.47,2.65c-0.08,0.56-0.06,1.21-0.48,1.58
		c-0.31,0.27-0.75,0.3-1.15,0.35c-1.86,0.24-3.61,1.29-4.7,2.81c-0.8,1.11-1.26,2.6-0.75,3.87c0.51,1.27,2.25,2.03,3.35,1.22
		c0.16-1.18,1.95-1.71,2.72-0.8c0.59,0.69,0.48,1.76,0.96,2.54c0.94,1.53,3.28,1.03,4.95,1.69c0.38,0.15,0.79,0.37,1.17,0.22
		c0.26-0.1,0.42-0.34,0.56-0.59c0.9-1.62,0.98-3.57,1.73-5.26c1.19-2.66,3.86-4.62,3.57-7.7c-1.75-0.08-3.51,0.84-4.99,1.33
		C590.08,683.91,590.15,682.38,589.59,681.52z"/>
	<path class="st0" d="M834.93,709.35c-1.86,3.55-3,7.48-3.31,11.48c-0.2,2.59,0.9,6.12,3.48,5.83c0.74,3.83,1.02,8.72-2.36,10.65
		c-1.39,0.8-3.09,0.83-4.69,0.7c-4.6-0.36-9.1-1.86-13-4.32c-1.45-0.92-2.96-2.01-4.67-1.95c-0.82,0.03-1.6,0.32-2.42,0.39
		c-2.33,0.17-4.32-1.54-6.45-2.51c-1.38-0.63-2.88-0.95-4.37-1.27c-4.24-0.91-8.49-1.82-12.73-2.73c-2.39-0.51-4.93-1.11-6.62-2.87
		c-3.08-3.22-0.92-9.63,3.48-10.32c2.42-0.38,4.8,0.69,7.22,1.08c2.42,0.39,5.46-0.31,6.17-2.66c0.55-1.82-0.12-4.58,1.72-5.04
		c3.41,4.29,10.12,5.5,14.82,2.67c2.04-1.23,3.85-3.16,6.23-3.34c1.38-0.11,2.75,0.41,4.14,0.36c1.22-0.05,2.38-0.53,3.51-1.01
		c1.9-0.81,10.68-5.98,12.46-5.14C840.51,700.77,835.87,707.57,834.93,709.35z"/>
	<path class="st0" d="M495.06,589.88c-4.18,1.95-9.07,0.78-13.54-0.34c-5.03-1.25-10.08-2.4-15.16-3.44
		c-4.13-0.84-8.3-1.61-12.52-1.67c-6-0.07-12.17,1.3-17.89-0.51c-3.44-1.09-6.45-3.26-9.83-4.53c-9.87-3.71-21.6,0.61-31.15-3.87
		c-3.45-1.62-6.39-4.32-10.03-5.47c-3.64-1.15-8.57,0.11-9.43,3.83c-0.21,0.91-0.16,1.89-0.56,2.73c-1.27,2.61-5.12,1.6-8,1.93
		c-3.53,0.4-6.17,3.31-8.47,6.03c-1.48,1.75-3.06,3.86-2.61,6.11c0.22,1.07,0.87,1.98,1.42,2.92c6.84,11.71-2.38,27.08,1.73,40
		c1.43,4.51,4.24,10.03,0.86,13.33c-1.06,1.04-2.53,1.53-3.83,2.25c-4.46,2.48-6.9,8.12-5.64,13.07c0.43,1.71,1.26,3.41,0.94,5.14
		c-0.26,1.36-1.19,2.47-2.08,3.53c-1.82,2.13-3.63,4.26-5.45,6.39c-1.8,2.11-3.64,4.29-4.44,6.94c-0.8,2.65-0.28,5.91,1.96,7.53
		c2.24,1.62,6.16,0.5,6.53-2.24c2.28,2.78-1.41,7.72-4.72,6.31c-1.89,1.73,0.79,4.74,3.3,5.23c2.52,0.49,5.7,0.53,6.77,2.85
		c-4.91,1.53-5.15,8.21-5.11,13.35c0.06,7.45-1.35,14.91-4.13,21.83c5.86,2.76,13.45-4.49,18.8-0.82c0.95,0.65,1.72,1.62,2.82,1.99
		c1.88,0.63,3.77-0.7,5.59-1.48c1.61-0.69,3.38-0.97,5.13-0.87c7.18,0.4,12.42,6.61,17.28,11.91c4.86,5.3,11.74,10.54,18.59,8.34
		c1.92-0.62,3.62-1.78,5.53-2.42c3.38-1.13,7.06-0.53,10.6-0.04c15.87,2.22,32.07,2.06,47.89-0.49c3.52-3.31,8.79-4.65,13.46-3.42
		c0.88-2.07,1.15-4.4,0.77-6.61c5.47-0.62,10.55-4.04,13.18-8.87c2.2,1.09,4.41,2.17,6.61,3.26c3.3-1.65,1.19-6.6,1.43-10.28
		c0.58-9.07,16.54-10.42,17.47-19.46c0.51-4.92-3.96-8.82-5.67-13.46c-2.57-6.95,1.35-14.63,6.22-20.23s10.91-10.45,13.83-17.26
		c1.1-2.57,1.93-5.6,4.41-6.9c2.31-1.2,5.12-0.37,7.7-0.66c2.4-0.27,4.57-1.51,6.61-2.8c9.9-6.29,18.55-14.56,25.26-24.18
		c0.99-0.29,1.97-0.57,2.96-0.86c0.54-3.3-1.03-6.85-3.84-8.67"/>
	<path class="st0" d="M497.69,194.54c-5.95,3.43-13.38,1.15-20.25,1.04c-0.95-0.01-1.97,0.04-2.72,0.63
		c-1.13,0.89-1.14,2.56-1.2,3.99c-0.2,4.94-2.18,9.78-5.5,13.44c-3.65,0.12-5.48,4.46-5.95,8.09s-0.81,7.9-3.93,9.8
		c-0.96-4.17-1.93-8.33-2.89-12.5c-1.69-1.3-4.37-0.06-5.18,1.91c-0.8,1.97-0.22,4.23,0.67,6.17c1.54,3.35,4.01,6.26,7.05,8.34
		c1.18,3.17-1.21,7.14-4.57,7.58c0.84,2.9,0.82,6.05-0.05,8.94c1.53,0.84,3.53-0.38,4.15-2.01c0.62-1.63,0.28-3.45-0.07-5.16
		c2.91,1.9,7.21,1.24,9.41-1.45c-0.89,4.98-4.82,8.85-6.6,13.59c-2.28,6.05-1.04,13.45-5.04,18.53c2.11,0.28,4.22,0.56,6.32,0.83
		c-1.71-0.93-2.31-3.42-1.22-5.03c-0.07,2.19,3.39,3.05,4.84,1.41s0.98-4.32-0.41-6.02c-0.54-0.67-1.24-1.32-1.29-2.18
		c-0.12-2.06,2.99-2.27,4.96-1.66c4.41,7.75,0.48,18.98-7.79,22.29c3.73,2.22,6.48,6.04,7.41,10.28c0.99-2.01,3.98-1.54,5.99-0.56
		s4.56,2.13,6.28,0.7c0.6-0.5,0.96-1.24,1.53-1.78c1.35-1.26,3.86-0.86,4.75,0.76c-3.07,1.99-3.71,6.39-2.6,9.88
		c1.11,3.49,3.55,6.36,5.65,9.36c1.38-1.37,2.76-2.75,4.14-4.12c-3.11,6.16-0.33,15.07-5.68,19.42c-2.24,1.82-5.29,2.18-8.15,2.48
		c-3.1,0.32-6.66,0.49-8.88-1.7c-0.6-0.6-1.15-1.38-1.99-1.51c-2.03-0.31-2.2,3.05-0.93,4.66c1.26,1.61,3.13,3.58,2.09,5.35
		c-2.06-0.13-4.03,1.74-4.01,3.8c1.26-0.63,2.52-1.26,3.79-1.89c2.89,5.15,3.31,11.61,1.11,17.09c-5.09,0.89-10.04,2.6-14.6,5.04
		c-1.25,0.67-2.59,1.54-2.9,2.93c-0.45,1.98,1.39,3.66,3.02,4.86c1.16,0.85,2.41,1.74,3.85,1.84c1.44,0.11,3.06-0.92,3.02-2.36
		c4.15,0.26,6.1,5.22,9.47,7.66c3.06,2.22,7.14,2.21,10.92,2.12c2.28-0.06,4.93-0.32,6.15-2.24c1.1,0.27,1.49,1.67,1.34,2.8
		c-0.45,3.38-3.75,5.71-7.06,6.53s-6.78,0.57-10.15,1.1c-12.26,1.91-24.93,15.47-32.97,24.14c0.87,1.23,2.78,0.28,4.29,0.36
		c1.9,0.11,3.35,2.05,5.25,2.1c1.61,0.04,2.92-1.3,3.7-2.7c0.78-1.4,1.27-3,2.33-4.2c2.73-3.08,7.66-2.23,11.62-1.12
		c1.02,0.29,2.2,0.73,2.45,1.76c0.12,0.52-0.04,1.08,0.1,1.6c0.33,1.26,2.27,1.39,3.19,0.46c0.91-0.93,1.02-2.37,0.95-3.67
		s-0.25-2.66,0.26-3.86c1.01-2.4,4.19-2.96,6.77-2.61c2.58,0.35,5.24,1.24,7.71,0.44c1.29-0.42,2.27-0.38,3.63-0.32
		c1.14,2.4,4.54,2.73,7.03,1.79c2.49-0.94,4.59-2.75,7.13-3.56c5.38-1.71,11.13,1.45,16.76,1.04c4.13-0.29,8.26-2.5,12.23-1.32
		c1.63,0.48,3.09,1.52,4.78,1.72c7.42,0.91,9.86-13.36,17.27-12.33c-2.27-3.27-7.45-1.02-11.29-2.04c-4.27-1.14-6.02-7.42-2.94-10.6
		c1.71,1.66,4.48-0.11,6.13-1.83c1.05-1.09,2.1-2.18,3.16-3.27c4.24-4.39,8.82-9.85,7.6-15.84c-0.92-4.49-4.85-7.63-8.51-10.37
		c-4.8,0.35-9.56,1.27-14.15,2.72c1.01-4.86,2.13-9.7,3.36-14.51c-4.9-5.35-7.99-12.33-8.66-19.56c-0.2-2.2-0.36-4.75-2.15-6.03
		c-0.88-0.63-1.98-0.81-3.01-1.14c-6.7-2.18-9.13-10.2-10.88-17.02c-1.73-6.76-3.74-13.45-6.02-20.04
		c-0.37-1.06-0.78-2.18-1.63-2.91c-0.89-0.77-2.12-1-3.28-1.19c-5.94-0.97-11.93-1.67-17.93-2.11c3.62-1.61,7.24-3.21,10.86-4.82
		c0.71-0.32,1.46-0.66,1.91-1.3c1.13-1.59-0.23-3.74-0.25-5.69c-0.04-2.96,2.89-4.92,5.1-6.88c5.29-4.7,7.59-11.81,9.67-18.57
		c0.41-1.35,0.81-2.88,0.11-4.1c-0.95-1.65-3.25-1.75-5.15-1.65c-9.44,0.52-18.88,1.04-28.32,1.56c5.22-1.9,8.71-7.72,7.92-13.22
		c5.83,1.19,11.81-4.99,10.42-10.78C499.51,195.63,498.68,195.09,497.69,194.54z"/>
	<path class="st0" d="M434.97,275.03c-1.98-1.35-4.36,0.86-6.58,1.77c-4.32,1.78-10.6-1.17-13.22,2.69
		c-1.61,2.37-0.63,6.19-2.96,7.86c-1.34,0.96-3.48,0.9-4.19,2.38c-0.83,1.72,1.36,3.53,3.27,3.44c1.9-0.09,3.61-1.21,5.49-1.54
		c-0.8,5.55-7.58,8.09-13.18,7.7c-3.66-0.26-7.27-1.28-10.52-2.98c-1.7-0.89-4.4-1.61-5,0.21c-0.14,0.42-0.09,0.88-0.04,1.32
		c0.28,2.53,0.57,5.06,0.85,7.6c-0.22,1.07,0.64,2.23,1.72,2.33c-2.37,1.48-4.74,2.97-7.11,4.45c2.67,5.31,6.77,11.47,12.68,10.89
		c2.16,1.14,2.1,4.53,0.44,6.32c-1.66,1.79-4.24,2.35-6.66,2.65c-1.03,0.13-2.12,0.25-2.91,0.92c-2.01,1.7-0.45,4.97-0.92,7.56
		c-0.4,2.21-2.38,3.87-4.53,4.54s-4.45,0.55-6.69,0.41c-0.39,0.85-0.78,1.71-1.16,2.56c1.76,1.65,4.36,2.36,6.72,1.82
		c0.81,0.76-1.1,1.23-2.2,1.07c-2.28-0.34-4.3,1.85-4.65,4.13c-0.35,2.28,0.49,4.55,1.32,6.69c3.09-0.88,6.4-0.93,9.51-0.15
		c0.22,0.89-0.02,1.88-0.63,2.58c7.36,1.98,15.33,1.61,22.47-1.04c6.51-2.41,12.36-6.66,19.18-7.95c2.51-0.47,5.1-0.53,7.62-0.16
		c1.32,0.19,2.86,0.43,3.8-0.51c0.38-0.38,0.59-0.9,0.79-1.41c3.86-9.85,7.78-20.19,6.62-30.71c-0.56-5.01-2.08-10.73,1.12-14.63
		c2.25-2.74,6.14-3.52,8.77-5.89c4.72-4.25,3.92-11.72,2.73-17.96c-2.51-3.54-9.76,2.62-11.93-1.13c-0.38-0.66-0.44-1.5-0.93-2.09
		c-0.73-0.88-2.07-0.86-3.21-0.76c-3.01,0.27-6.3,0.88-9.26,0.64C433.27,279.19,434.65,277.31,434.97,275.03z"/>
	<path class="st0" d="M526.54,152.08c-0.62,0.49-1.4,0.73-2.06,1.19c-1.44,0.99-2.04,3.03-1.38,4.65c1.55-0.64,3.09,1.22,3.14,2.9
		c0.05,1.68-0.73,3.29-0.73,4.97c2.73-4.78,6.15-13.45,4.73-18.9C529,148.47,528.17,150.81,526.54,152.08z"/>
	<path class="st0" d="M501.27,184.85c1.5,1.58,1.31,4.45-0.39,5.81c-1.3-2.01-1.75-4.55-1.23-6.89"/>
	<path class="st0" d="M455.33,208.22c-0.66,1.76-2.83,2.34-4.68,2.66c-1.61,0.28-3.22,0.57-4.83,0.85c0.14-2.66,0.28-5.33,0.42-7.99
		c0.03-0.55,0.07-1.14,0.4-1.58c0.42-0.55,1.16-0.72,1.84-0.84c3.4-0.62,7.03-1.51,10.31-1.97c-0.44,2.07-2.48,2.25-3.14,3.98
		C455.06,204.9,455.92,206.64,455.33,208.22z"/>
	<path class="st0" d="M438.37,215.27c-1.17,0.75-1.18,2.75-0.02,3.52c0.26,0.17,0.57,0.29,0.77,0.53c0.28,0.33,0.31,0.8,0.33,1.23
		c0.1,2.83,0.2,5.66,0.3,8.5c2.61-3.46,3.74-8,3.06-12.27c-0.07-0.45-0.2-0.95-0.58-1.19c-0.27-0.17-0.61-0.17-0.93-0.16
		c-1.3,0.02-2.6,0.04-3.9,0.07"/>
	<path class="st0" d="M446.44,202.2c3.28-2.96,9.05-1.77,12.05-5.01c0.21-0.23,0.41-0.55,0.28-0.82s-0.71-0.09-0.54,0.17
		c-0.57,2.06,1.48,5.1-0.03,6.61c-0.57,0.57-1.4,0.77-2.12,1.14s-1.4,1.09-1.24,1.88"/>
	<path class="st0" d="M456.94,255.86c-0.55,3.15-2.55,6.01-5.31,7.61c-0.44,0.25-0.92,0.51-1.14,0.96c-0.24,0.5-0.09,1.1-0.18,1.65
		c-0.17,1.08-1.29,1.83-2.38,1.87s-2.13-0.5-2.99-1.17c-0.81-0.64-1.57-1.7-1.12-2.62c0.24-0.49,0.75-0.78,1.24-1.01
		c1.97-0.94,4.09-1.58,6.26-1.87c1.14-0.15,2.38-0.25,3.21-1.05c0.67-0.64,0.91-1.59,1.34-2.41s1.26-1.6,2.16-1.39"/>
	<path class="st0" d="M647.6,338.43c-1.55,5.94,2.55,12.23,1.16,18.21c-0.63,2.71-2.33,5.03-4,7.27c-2.37,0.41-4.57,1.79-5.96,3.76
		c1.14,0.11,2.16,1.05,2.36,2.18c-2.08,0.54-4.31-0.02-6.42,0.4c-2.11,0.41-4.2,2.64-3.18,4.53c0.91,1.67,3.75,2.05,3.88,3.95
		c0.04,0.58-0.22,1.14-0.45,1.67c-2.28,5.27-5.27,24.7,5.28,22.88c0.43,1.64,0.95,4.83,0.08,6.41c-1.15,2.09-4.07,1.88-4.68,4.36
		c-0.55,2.21,1.65,5.04,3.21,6.33c3.2,2.66,3.85,1.97,4.66,6.6c0.16,0.92,0.19,2.11-0.66,2.5"/>
	<path class="st0" d="M591.88,385.33c0.53,1.3,1.9,2.21,3.3,2.2c0.94-0.01,1.83-0.39,2.74-0.63c2.26-0.61,4.67-0.41,6.97-0.88
		c2.3-0.47,4.69-1.97,4.99-4.3c4.28,1.85,8.73,3.33,13.31,4.22c1.97,0.38,4.19,0.79,5.33,2.44c0.82,1.19,0.88,2.79,1.68,4
		c-0.59,1.45-2.94,4.32-2.38,5.78c0.56,1.46,2.9,2.13,3.66,0.77"/>
	<path class="st0" d="M634.18,415.32c-2.74,1.35-4.27,4.76-3.46,7.7"/>
	<path class="st0" d="M777.44,517.99c2.16,1.88,2.92,5.22,1.78,7.85c-0.36,0.83-0.89,1.64-0.86,2.54c0.04,0.91,0.65,1.68,1.25,2.37
		c2.19,2.49,4.6,4.78,7.2,6.84c0.37-1.45,0.74-2.91,1.11-4.36c3.21,1.64,5.43,5.05,5.64,8.65c1.92,0.34,3.76-1.27,4.37-3.13
		c0.61-1.86,0.3-3.88-0.01-5.81c2.86,4.27,10.02,4.22,12.29,8.83c1.74,3.53-0.33,8.24,1.89,11.49c0.74,1.09,1.86,1.84,2.96,2.57
		c3.77,2.5,7.53,5,11.3,7.5c1,0.67,2.04,1.34,3.21,1.6c1.42,0.31,2.88-0.02,4.32-0.19c8.66-1.01,16.9,4.01,23.29,9.94
		c2.46,2.28,4.89,4.81,8.07,5.87c4.84,1.61,10.94-0.3,14.71,3.14c2.6,2.37,3.46,6.87,6.89,7.66c2.15,0.49,4.62-0.78,6.49,0.37
		c1.27,0.78,1.73,2.38,2.08,3.83c0.82,3.39,1.65,6.79,2.47,10.18c1.28,5.28,2.57,10.74,1.62,16.09c-0.2,1.11-0.48,2.3-0.02,3.32
		c0.3,0.66,0.86,1.15,1.42,1.61c1.72,1.42,3.53,2.74,5.4,3.94c2,1.29,4.33,2.49,6.66,2.01c2.33-0.48,4.11-3.52,2.57-5.34"/>
	<path class="st0" d="M908.5,109.48c-4.33-1.02-9.08,2.9-8.91,7.34c0.04,1.18,0.38,2.37,0.18,3.54c-0.24,1.4-1.22,2.55-2.15,3.62
		c-1.98,2.27-4.05,4.6-6.81,5.8c-2.29,0.99-4.85,1.1-7.32,1.45c-8.98,1.25-17.15,5.72-25,10.26c-5.84,3.38-12.18,7.61-13.45,14.24
		c-0.72,3.73,1.7,8.62,5.45,8.01c0.95-0.16,2.01-0.64,2.81-0.1c0.57,0.39,0.73,1.13,0.93,1.79c0.96,3.12,3.96,5.5,7.21,5.73
		c0.67-1.87,2.51-3.25,4.49-3.38c1.24,7.74,2.91,15.41,5,22.96c0.62,2.25,0.96,5.3-1.14,6.33c-0.9,0.44-1.96,0.31-2.96,0.17
		c-9.19-1.33-18.37-2.76-27.53-4.28c-6.13,9.65-5.97,21.87-5.6,33.3c0.04,1.1,0.11,2.3,0.87,3.1c0.55,0.58,1.35,0.83,2.03,1.25
		c2.85,1.78,2.76,5.83,3.17,9.17c0.49,4.01,2.22,7.87,4.89,10.9c4.04,4.59-2.05,13.82-8.13,14.57c-0.73,0.09-1.54,0.13-2.05,0.65
		c-0.46,0.47-0.53,1.2-0.54,1.86c-0.01,3.04,0.76,6.3-0.68,8.98c-1.59,2.95-5.31,4.04-8.65,4.04c-5.35,0-10.68-2.13-14.55-5.83
		c-0.98-0.94-2.02-2.04-3.37-2.1c-0.92-0.04-1.78,0.41-2.59,0.86c-7.31,4.02-14.66,8.06-21.21,13.23c-3.93,3.11-7.54,6.6-11.39,9.82
		c-5.37,4.5-11.2,8.45-17.36,11.79c0.44,0.94,0.88,1.88,1.33,2.82"/>
</g>
<path class="st0" d="M1450.3,706.98c0.77,0.18,1.22,1.16,0.87,1.86"/>
<path class="st0" d="M359.61,594.64c6.58-0.7,13.17-1.41,19.75-2.11c4.98,9.16,10.11,18.93,9.54,29.34c-0.43,7.84-3.9,16.49,0.48,23
	c0.73,1.08,1.66,2.06,2.1,3.29c0.66,1.83,0.13,3.85-0.45,5.71c-3.76,12.08-9.42,24.27-7.63,36.79c0.62,4.31,2.11,8.54,1.88,12.89
	c-0.23,4.35-2.95,9.05-7.28,9.54c-1.93,0.22-4.03-0.4-5.72,0.55c-1.09,0.61-1.74,1.76-2.35,2.85c-1.92,3.43-3.88,7.03-4.07,10.95
	c-0.19,3.93,1.98,8.27,5.81,9.2"/>
<circle class="st1" cx="758.39" cy="214.04" r="4.61"/>
<circle class="st1" cx="630.06" cy="546.89" r="4.61"/>
<circle class="st1" cx="530.11" cy="496.06" r="4.61"/>
<circle class="st1" cx="550.79" cy="479.54" r="4.61"/>
<circle class="st1" cx="573.47" cy="517.67" r="4.61"/>
<circle class="st1" cx="573.32" cy="404.57" r="4.61"/>
</svg>
