<?xml version="1.0" encoding="utf-8"?>
<!-- Generator: Adobe Illustrator 23.0.1, SVG Export Plug-In . SVG Version: 6.00 Build 0)  -->
<svg version="1.1" id="Calque_1" xmlns="http://www.w3.org/2000/svg" xmlns:xlink="http://www.w3.org/1999/xlink" x="0px" y="0px"
	 viewBox="0 0 683.76 491.76" style="enable-background:new 0 0 683.76 491.76;" xml:space="preserve">
<style type="text/css">
	.st0{fill:none;stroke:#A40300;stroke-width:2;stroke-miterlimit:10;}
	.st1{stroke:#000000;stroke-linecap:round;stroke-linejoin:round;stroke-miterlimit:10;}
	.st2{stroke:#000000;stroke-width:0.5;stroke-miterlimit:10;}
</style>
<g>
	<line class="st0" x1="45.82" y1="269.94" x2="382.82" y2="99.94"/>
	<line class="st0" x1="183.82" y1="88.94" x2="482.82" y2="105.94"/>
	<line class="st0" x1="396.82" y1="0.94" x2="512.82" y2="143.94"/>
	<line class="st0" x1="682.82" y1="262.94" x2="625.82" y2="235.94"/>
	<line class="st0" x1="512.82" y1="143.94" x2="625.82" y2="235.94"/>
	<line class="st0" x1="416.82" y1="101.94" x2="545.82" y2="242.94"/>
	<line class="st0" x1="517.82" y1="286.94" x2="575.82" y2="195.94"/>
	<line class="st0" x1="682.82" y1="262.94" x2="517.82" y2="286.94"/>
	<line class="st0" x1="676.82" y1="374.94" x2="517.82" y2="286.94"/>
	<line class="st0" x1="653.82" y1="266.94" x2="676.82" y2="374.94"/>
	<line class="st0" x1="225.82" y1="179.94" x2="503.82" y2="196.94"/>
	<line class="st0" x1="45.82" y1="269.94" x2="220.82" y2="258.94"/>
	<line class="st0" x1="190.82" y1="196.94" x2="220.82" y2="258.94"/>
	<line class="st0" x1="88.82" y1="354.94" x2="132.82" y2="263.94"/>
	<line class="st0" x1="334.82" y1="185.94" x2="88.82" y2="354.94"/>
	<line class="st0" x1="280.82" y1="222.94" x2="482.82" y2="240.94"/>
	<line class="st0" x1="517.82" y1="286.94" x2="441.82" y2="192.94"/>
	<line class="st0" x1="244.82" y1="309.94" x2="220.82" y2="264.94"/>
	<line class="st0" x1="345.82" y1="228.94" x2="243.82" y2="306.94"/>
	<g>
		<line class="st0" x1="435.82" y1="236.94" x2="515.82" y2="329.94"/>
	</g>
	<line class="st0" x1="676.82" y1="374.94" x2="510.82" y2="335.94"/>
	<line class="st0" x1="539.82" y1="298.94" x2="510.82" y2="335.94"/>
	<line class="st0" x1="648.82" y1="431.94" x2="641.82" y2="366.94"/>
	<line class="st0" x1="510.82" y1="335.94" x2="648.82" y2="431.94"/>
	<line class="st0" x1="496.82" y1="383.94" x2="648.82" y2="431.94"/>
	<line class="st0" x1="525.82" y1="345.94" x2="496.82" y2="383.94"/>
	<line class="st0" x1="452.82" y1="270.94" x2="521.82" y2="350.94"/>
	<line class="st0" x1="496.82" y1="383.94" x2="637.82" y2="475.94"/>
	<line class="st0" x1="630.82" y1="425.94" x2="637.82" y2="475.94"/>
	<line class="st0" x1="505.82" y1="389.94" x2="495.82" y2="399.94"/>
	<line class="st0" x1="629.82" y1="490.94" x2="495.82" y2="399.94"/>
	<line class="st0" x1="110.82" y1="407.94" x2="256.82" y2="388.94"/>
	<line class="st0" x1="110.82" y1="429.94" x2="256.82" y2="388.94"/>
	<line class="st0" x1="119.82" y1="406.94" x2="110.82" y2="429.94"/>
	<line class="st0" x1="244.82" y1="309.94" x2="106.82" y2="362.94"/>
	<line class="st0" x1="88.82" y1="354.94" x2="106.82" y2="362.94"/>
	<line class="st0" x1="110.82" y1="407.94" x2="137.82" y2="350.94"/>
	<line class="st0" x1="256.82" y1="388.94" x2="223.82" y2="320.94"/>
	<line class="st0" x1="329.82" y1="261.94" x2="232.82" y2="339.94"/>
	<line class="st0" x1="304.82" y1="259.94" x2="465.82" y2="271.94"/>
	<line class="st0" x1="45.82" y1="269.94" x2="110.82" y2="171.94"/>
	<line class="st0" x1="183.82" y1="171.94" x2="45.82" y2="269.94"/>
	<line class="st0" x1="7.82" y1="164.94" x2="183.82" y2="171.94"/>
	<line class="st0" x1="167.82" y1="93.94" x2="183.82" y2="171.94"/>
	<line class="st0" x1="396.82" y1="0.94" x2="289.82" y2="55.94"/>
	<line class="st0" x1="167.82" y1="93.94" x2="289.82" y2="55.94"/>
	<line class="st0" x1="0.82" y1="154.94" x2="167.82" y2="93.94"/>
	<line class="st0" x1="7.82" y1="164.94" x2="0.82" y2="154.94"/>
	<line class="st0" x1="396.82" y1="0.94" x2="7.82" y2="145.94"/>
	<line class="st0" x1="0.82" y1="154.94" x2="10.82" y2="144.94"/>
	<line class="st0" x1="629.82" y1="490.94" x2="626.82" y2="468.94"/>
	<line class="st0" x1="495.82" y1="399.94" x2="627.82" y2="473.94"/>
	<line class="st0" x1="396.82" y1="0.94" x2="592.82" y2="86.94"/>
	<line class="st0" x1="627.82" y1="110.94" x2="592.82" y2="86.94"/>
	<line class="st0" x1="682.82" y1="262.94" x2="627.82" y2="110.94"/>
	<line class="st0" x1="592.82" y1="86.94" x2="682.82" y2="262.94"/>
</g>
<g>
	<g>
		<path d="M357.56,103.79c-1.42-1.98-2.84-3.95-4.26-5.93c-3.12-4.34-6.4-9.3-5.6-14.6c0.49-3.23,2.48-6.07,4.94-8.2
			c2.46-2.13,5.37-3.65,8.26-5.14c2.88-1.49,5.77-2.99,8.65-4.48c1.19,0.75,1.49,2.14,1.4,3.54c-0.09,1.4,0.23,3.21,1.6,3.5
			c0.47,0.1,0.96-0.02,1.45,0.02c2.46,0.22,2.85,4.05,5.1,5.07c1.06,0.48,2.28,0.22,3.43,0c1.14-0.21,2.43-0.34,3.37,0.35
			c0.94,0.69,0.99,2.49-0.13,2.81c-0.35,0.1-0.74,0.03-1.09,0.13c-0.9,0.25-1.18,1.48-0.82,2.34c0.36,0.86,1.13,1.46,1.81,2.1
			c2.95,2.77,4.44,6.71,5.84,10.52"/>
		<path class="st1" d="M357.63,103.88c7.54,1.98,14.86,4.72,21.82,8.37c0.28-4.01,1.08-7.98,2.37-11.77
			c0.18-0.54,0.38-1.09,0.7-1.55c0.83-1.21,2.31-1.69,3.7-1.93s2.86-0.37,4.07-1.15"/>
		<line class="st2" x1="358.94" y1="103.52" x2="381.73" y2="97.86"/>
	</g>
	<path d="M358.83,234.46c-2.86-2.68-7.42-0.54-12.66-1.07c0.99-21.64-1.66-43.27-1.86-64.93s2.24-43.99,12.56-63.03
		c0.32-0.6,0.69-1.23,1.3-1.51c0.75-0.36,1.64-0.1,2.42,0.17c7.84,2.66,15.49,5.87,22.87,9.61c-2.91,8.82,2.52,18.55,7.01,26.68
		c8.08,14.65,10.45,32.35,6.49,48.61c-0.7,2.87-1.59,5.71-1.85,8.65c-0.67,7.62,2.9,15.42,0.88,22.79
		c-0.86,3.14-3.06,5.75-3.91,8.77c-1.22,4.32-1.01,9.41-2.04,13.88c-2.04,8.86-5.19,17.42-7.48,26.22
		c-5.96,22.87-6.03,47.25-0.22,70.16c-10.62,0.21-21.23,0.41-31.85,0.62c5.63-27.82,9.39-56.01,11.24-84.34
		c0.39-5.87,0.86-12.34-1.01-18.02C360.21,236.2,359.58,235.16,358.83,234.46z"/>
	<path d="M375.78,336.31c2.01,7.3,10.17,12.32,17.59,10.83c2.76-0.56,5.77-1.84,8.2-0.43c2.11,1.22,2.74,3.92,3.12,6.32
		c-8.14,3.13-16.61,6.32-25.31,5.67c-1.23-0.09-2.49-0.28-3.53-0.94c-1.26-0.8-2.01-2.2-3.18-3.14c-1.17-0.93-3.22-1.15-3.9,0.18
		c-0.28,0.55-0.24,1.21-0.53,1.75c-0.48,0.9-1.65,1.1-2.67,1.21c-2.15,0.23-4.29,0.46-6.44,0.69c-0.89,0.1-1.82,0.18-2.65-0.15
		c-1.82-0.74-2.31-3.11-2.06-5.06c0.58-4.57,3.59-9.5,1.09-13.36c5-1.04,9.21-3.91,14.21-4.95
		C371.55,334.55,374.11,335.5,375.78,336.31z"/>
</g>
</svg>
