<svg id="Calque_1" data-name="Calque 1" xmlns="http://www.w3.org/2000/svg" viewBox="0 0 798.9 622.79"><defs><style>.cls-1{font-size:16px;stroke:#000;stroke-width:0.5px;}.cls-1,.cls-20,.cls-21,.cls-22,.cls-23,.cls-24,.cls-28,.cls-29{stroke-miterlimit:10;}.cls-1,.cls-7{font-family:Futura-Medium, Futura;font-weight:500;}.cls-2{letter-spacing:0.01em;}.cls-3,.cls-7{font-size:14px;}.cls-4{letter-spacing:-0.03em;}.cls-5{letter-spacing:0.01em;}.cls-6{letter-spacing:0.05em;}.cls-8{letter-spacing:0em;}.cls-9{letter-spacing:0.04em;}.cls-10{letter-spacing:0.01em;}.cls-11{letter-spacing:-0.04em;}.cls-12{letter-spacing:0.02em;}.cls-13{letter-spacing:-0.04em;}.cls-14{letter-spacing:0em;}.cls-15{letter-spacing:-0.01em;}.cls-16{letter-spacing:-0.03em;}.cls-17{letter-spacing:0em;}.cls-18{letter-spacing:-0.03em;}.cls-19{letter-spacing:-0.02em;}.cls-20,.cls-21,.cls-22,.cls-23,.cls-24,.cls-28,.cls-29{fill:none;stroke:#a40300;}.cls-20,.cls-21,.cls-22,.cls-23,.cls-24,.cls-29{stroke-linecap:round;}.cls-20{stroke-width:5px;}.cls-21,.cls-29{stroke-width:3px;}.cls-22{stroke-width:2px;}.cls-24{stroke-dasharray:13.01 13.01;}.cls-25{letter-spacing:0.01em;}.cls-26{letter-spacing:0.01em;}.cls-27{letter-spacing:-0.01em;}.cls-29{stroke-dasharray:11.97 11.97;}.cls-30{fill:#a40300;}</style></defs><title>diagramme Balsan</title><text class="cls-1" transform="translate(405.8 263.48)"><tspan class="cls-2">N</tspan><tspan x="13.62" y="0">OUS</tspan><tspan class="cls-3"><tspan x="-35.63" y="16.8">BURE</tspan><tspan class="cls-4" x="-0.66" y="16.8">A</tspan><tspan x="9.3" y="16.8">U DE </tspan><tspan class="cls-5" x="46.37" y="16.8">S</tspan><tspan class="cls-6" x="54.73" y="16.8">T</tspan><tspan x="62.17" y="16.8">YLE</tspan></tspan></text><text class="cls-7" transform="translate(379.4 12.33)"><tspan class="cls-8">F</tspan><tspan x="7.13" y="0">OURNISSEURS</tspan></text><text class="cls-7" transform="translate(567.96 77.6)">DIRECTION</text><text class="cls-7" transform="translate(668.15 156.67)">P<tspan class="cls-9" x="7.56" y="0">L</tspan><tspan x="14.36" y="0">ANNI</tspan><tspan class="cls-10" x="52.49" y="0">N</tspan><tspan x="64.42" y="0">G </tspan><tspan x="32.99" y="16.8">&amp;</tspan><tspan x="8.48" y="33.6"> </tspan><tspan class="cls-11" x="12.8" y="33.6">A</tspan><tspan class="cls-12" x="22.68" y="33.6">C</tspan><tspan x="32.78" y="33.6">H</tspan><tspan class="cls-13" x="43.05" y="33.6">A</tspan><tspan class="cls-14" x="52.83" y="33.6">T</tspan><tspan x="59.57" y="33.6">S</tspan></text><text class="cls-7" transform="translate(655.88 276.48)">MARKETI<tspan class="cls-10" x="60.33" y="0">N</tspan><tspan x="72.26" y="0">G</tspan></text><text class="cls-7" transform="translate(635.61 388.04)">RESPON<tspan class="cls-15" x="56.4" y="0">S</tspan><tspan x="64.45" y="0">ABLE</tspan><tspan x="17.56" y="16.8" xml:space="preserve"> Q</tspan><tspan class="cls-16" x="34.39" y="16.8">U</tspan><tspan x="44.28" y="16.8">ALITÉ</tspan></text><text class="cls-7" transform="translate(618.62 500.56)">BURE<tspan class="cls-4" x="34.97" y="0">A</tspan><tspan x="44.93" y="0">U DE </tspan><tspan x="13.66" y="16.8">DESSIN</tspan></text><text class="cls-7" transform="translate(493.01 546.77)"><tspan class="cls-9">L</tspan><tspan class="cls-13" x="6.79" y="0">A</tspan><tspan x="16.58" y="0">TEX</tspan></text><text class="cls-7" transform="translate(342.97 547.68)"><tspan class="cls-17">C</tspan><tspan x="9.74" y="0">OUPE</tspan></text><text class="cls-7" transform="translate(214.18 469.33)">TEINTURE</text><text class="cls-7" transform="translate(130.4 265.17)">TUFT</text><text class="cls-7" transform="translate(125.67 173.27)">FRANTZ</text><text class="cls-7" transform="translate(113.98 371.79)"><tspan class="cls-17">C</tspan><tspan x="9.74" y="0">O</tspan><tspan class="cls-18" x="22.25" y="0">L</tspan><tspan x="28.03" y="0">ORI</tspan><tspan class="cls-5" x="53.09" y="0">S</tspan><tspan x="61.46" y="0">TE</tspan></text><text class="cls-7" transform="translate(241.04 77.29)"><tspan class="cls-17">C</tspan><tspan x="9.74" y="0">OMME</tspan><tspan class="cls-19" x="57.09" y="0">R</tspan><tspan x="65.28" y="0">CI</tspan><tspan class="cls-4" x="79.21" y="0">A</tspan><tspan x="89.18" y="0">UX</tspan></text><line class="cls-20" x1="504.01" y1="250.29" x2="653.01" y2="179.29"/><line class="cls-20" x1="367.01" y1="231.29" x2="206.01" y2="179.29"/><line class="cls-20" x1="3.5" y1="538.79" x2="80.53" y2="538.79"/><line class="cls-21" x1="1.5" y1="570.79" x2="78.53" y2="570.79"/><line class="cls-22" x1="1.5" y1="597.79" x2="78.53" y2="597.79"/><line class="cls-23" x1="1.5" y1="618.79" x2="7.5" y2="618.79"/><line class="cls-24" x1="20.51" y1="618.79" x2="66.02" y2="618.79"/><line class="cls-23" x1="72.53" y1="618.79" x2="78.53" y2="618.79"/><text class="cls-7" transform="translate(97.2 540.87)"><tspan class="cls-25">q</tspan><tspan x="8.55" y="0">u</tspan><tspan class="cls-26" x="16.18" y="0">o</tspan><tspan x="24.68" y="0">tidiennement</tspan></text><text class="cls-7" transform="translate(149.72 571.87)"> </text><text class="cls-7" transform="translate(102.48 569.75)"><tspan class="cls-27">r</tspan><tspan x="5.14" y="0">éguliè</tspan><tspan class="cls-27" x="43.61" y="0">r</tspan><tspan x="48.75" y="0">ement</tspan></text><text class="cls-7" transform="translate(113.85 597.75)">sou<tspan class="cls-19" x="21.72" y="0">v</tspan><tspan x="28.52" y="0">ent </tspan></text><text class="cls-7" transform="translate(94.79 618.75)">occasionnellement </text><path class="cls-28" d="M432.13,28.93c6,23.62,5.94,48.3,5.85,72.68q-.21,53.28-.41,106.57"/><path class="cls-21" d="M512.2,273.2l116.21,1.23"/><path class="cls-21" d="M495.09,307.14l26.48,11.41a46.49,46.49,0,0,1,10.5,5.62c4.63,3.59,7.75,8.76,11.93,12.87,7.43,7.31,17.67,10.82,26.93,15.63,12.3,6.4,23.1,15.29,33.8,24.11"/><path class="cls-21" d="M461.71,316.36q2.27,2,4.5,4"/><path class="cls-29" d="M475.07,328.39c45.3,42,84.2,90.54,122.47,139.2"/><path class="cls-21" d="M601.24,472.31,605,477"/><path class="cls-21" d="M438.15,322.85c14.13,23.45,21.14,50.38,28,76.88Q481.66,460,497.19,520.17"/><path class="cls-21" d="M421.4,321.62c-25.64,36-36.71,80.26-44.28,123.81-3.6,20.69-6.6,41.75-14.88,61"/><path class="cls-21" d="M373.46,318.19c-44.2,27.39-60.86,86.83-105.78,113"/><path class="cls-21" d="M359.47,264.26c-52.65-4.5-105.93,10.81-158.17,2.87"/><path class="cls-21" d="M316.48,95.79,330.25,128c3.19,7.46,6.38,14.93,10,22.18,12.06,24.14,28.79,45.58,45.4,66.85"/><path class="cls-21" d="M351.34,295.59l-32.58,13.57c-10.62,4.42-21.26,8.85-32.32,12-21.72,6.26-45.47,7.92-64.28,20.47"/><path class="cls-30" d="M471.51,226.61c34.74-39,64.47-82.38,95.23-124.52,1.14-1.57-1.46-3.06-2.59-1.52-30.62,41.94-60.19,85.08-94.77,123.92-1.28,1.44.84,3.57,2.13,2.12Z"/></svg>