<svg id="Calque_1" data-name="Calque 1" xmlns="http://www.w3.org/2000/svg" viewBox="0 0 912.46 662.24"><defs><style>.cls-1,.cls-2,.cls-3,.cls-6,.cls-7{fill:none;}.cls-1,.cls-3,.cls-4,.cls-7{stroke:#000;}.cls-1,.cls-2,.cls-3,.cls-4,.cls-7{stroke-miterlimit:10;}.cls-2{stroke:#a40300;}.cls-3{stroke-width:0.5px;}.cls-5{fill:#fff;}.cls-7{stroke-width:0.25px;}</style></defs><title>Evans-Breiditis</title><path class="cls-1" d="M662.45,349.36l1.59,80c.17,8.24-2.42,19-9.91,22.42l-1.63,23.45a158.37,158.37,0,0,1-61.17-25.27c-2.93-2-6.17-4.24-9.71-3.81-3,.38-5.44,2.62-8.11,4.11-10.78,6-23.92-.77-36.24-1.39-9.4-.46-20.06,2.45-27.41-3.42a59.79,59.79,0,0,0,8-25.54c.17-2.15.18-4.49-1.06-6.26-1.51-2.16-4.33-2.81-6.67-4-6.83-3.45-9.76-12.94-6.06-19.64,6.52,1.82,13.28,3.45,20,2.53s13.39-4.95,15.58-11.35c2.46-7.2-1.18-14.87-4-21.94a103.63,103.63,0,0,1-7.13-41.61c.48-13,3.42-25.83,6.35-38.53C551.66,206.4,569,132.16,608.72,69c13.71-21.82,30.47-42.5,52.66-55.61s50.62-17.65,74-6.86c14.31-6.52,31.71-3.11,44.47,6.1S801.7,35.16,810.5,48.2c23.52,34.87,47.25,70.24,61.31,109.88,8.62,24.29,13.44,49.74,18.23,75.08l11.24,59.45c2.69,14.2,5.38,28.48,5.71,42.93.82,36.6-13.56,72.38-11.94,109,.08,1.93.28,4,1.59,5.43,2.38,2.57,8.19,4.73,5.63,7.13a33.84,33.84,0,0,1-27.91,1.34c-4.81-1.94-10.24-5-14.77-2.51-3.13,1.73-4.45,5.52-7,8-5.28,5.06-15.18,4.13-18.77,10.5-1.64,2.89-1.39,6.54-2.89,9.51-2.51,4.95-9.41,6.4-14.53,4.23s-8.62-7-11-12c1,1-3.17-1.46-2.2-.45q-4.73-12.12-9.43-24.24a38.22,38.22,0,0,1-2.66-8.89c-.76-5.8,1.14-11.57,2.85-17.16a312.31,312.31,0,0,0,13.73-90.3"/><path class="cls-1" d="M757.29,516.69"/><path class="cls-1" d="M746.33,489.16"/><path class="cls-1" d="M782.56,369.17q-3.21,28.69-7.37,57.29"/><path class="cls-1" d="M748.69,60.68a352.8,352.8,0,0,1-72,66.5c-5.75,4-11.67,7.85-16.52,12.9-10.28,10.73-14.79,26.17-14.11,41,.3,6.52,1.52,13.09.37,19.52-1.26,7.06-5.27,13.3-9.4,19.17-7.88,11.18-17.84,20.4-25.08,32.08-5.6,9-15.82,13.93-25.59,17.8-4.59,1.82-9.4,3.05-14,4.89a57.08,57.08,0,0,0-30.37,29.1"/><path class="cls-1" d="M608.61,266.68A45.88,45.88,0,0,0,604.1,290c.68,7.69,3.66,15,5.51,22.47,3.33,13.48,3,27.55,2.64,41.43-.21,8.15-.71,17.07-6.18,23.11"/><path class="cls-1" d="M619.68,252c-5.2,2.32-6.47,9.07-7,14.79-.45,4.58-.89,9.31.42,13.72s4.81,8.48,9.33,9c1.47.16,3,0,4.34.67,1.5.81,2.19,2.57,2.64,4.23,2.63,9.79.82,21.23,7,29.24a34.4,34.4,0,0,0,7.42,6.55l21.62,15.68a157.45,157.45,0,0,0,16.41,10.87c8.43,4.62,17.61,7.64,26.83,10.3,17.71,5.1,37.63,8.71,53.8-.2,7.14-3.93,12.86-10,18.46-15.94L803,327.39a178.17,178.17,0,0,0,13.59-15.6,91.31,91.31,0,0,0,17.81-55.94"/><path class="cls-1" d="M751.55,64.37c4.39,7.9,14.05,10.79,21.68,15.62,7,4.44,12.54,10.78,17.95,17.06,14.45,16.79,29.21,34.79,33.35,56.56,1.54,8.1,1.55,16.55,4.35,24.31s9.51,15,17.76,14.91"/><path class="cls-1" d="M822.52,177.23c2.4,6.46,4.82,13,8.31,18.9,5.61,9.57,13.83,17.45,19.07,27.23,8.08,15.09,8.44,33.53,17.2,48.24"/><path class="cls-1" d="M839.27,211.82c-12,43.77-1.38,91.07,29.14,129.05"/><path class="cls-1" d="M738,196.79a101.93,101.93,0,0,0,6.58,47.39"/><path class="cls-1" d="M657.69,474.08c7.74.61,15.55.18,23.26,1.11s15.55,3.41,21.07,8.87"/><path class="cls-1" d="M737.92,476.79a40,40,0,0,1,16.7,15.76,33.44,33.44,0,0,0,3.77,6c1.58,1.75,3.9,3.05,6.23,2.67"/><path class="cls-1" d="M787.66,446.75l-3.78,11.56c-2.84,8.67-5.71,17.89-3.61,26.77"/><path class="cls-1" d="M789.22,456.21a101.77,101.77,0,0,0,.3,15.81"/><path class="cls-2" d="M690.66,308.51c4-1.32,8.28.33,12.43,1.05,5.78,1,11.71.2,17.53-.61l8.24-1.16c3.3-.46,6.61-.93,9.88-1.6,3-.61,5.87-1.39,8.83-2,4.55-.9,9.18-1.34,13.69-2.41s9-2.82,12.4-6"/><path class="cls-2" d="M750.41,305.86a52,52,0,0,1-28.18,4.74"/><path class="cls-2" d="M694.21,311.54a10.84,10.84,0,0,1,2.42.84L710,318.24c3.63,1.59,7.41,3.21,11.37,3.17"/><path class="cls-2" d="M727.27,321.49a58.83,58.83,0,0,0,17.5-2.24"/><path class="cls-2" d="M750,317.74a42.67,42.67,0,0,0,18.37-13.26c1.78-2.22,3.39-4.67,5.72-6.32"/><path class="cls-2" d="M770.6,295.24a68.48,68.48,0,0,0-32.74,4.7"/><path class="cls-2" d="M696.77,306.17c2,.17,3.83-.78,5.63-1.58,10.14-4.52,21.65-5,32.7-3.91"/><path class="cls-1" d="M703.37,261.48a12.28,12.28,0,0,0-.68,11.71,5.68,5.68,0,0,0,1.55,2.07,5.54,5.54,0,0,0,2.47.93,11,11,0,0,0,5.88-.72,12.16,12.16,0,0,1,2.76-1.05c2.2-.34,4.19,1.21,6.18,2.21a13.86,13.86,0,0,0,14.4-1.46c1.44-1.12,2.69-2.56,4.39-3.23,3.27-1.27,7,.73,10.42-.07a7.66,7.66,0,0,0,5.41-5.6,10.8,10.8,0,0,0-1.3-7.88"/><path class="cls-3" d="M745.35,252.86a30.9,30.9,0,0,1,3.16,4.56,5.4,5.4,0,0,1,0,5.3c-1,1.43-2.82,2-4.38,2.78a12.41,12.41,0,0,0-4.47,3.86"/><path class="cls-3" d="M710.91,257.86c-.06,1.38-.09,2.77-.1,4.15a13.13,13.13,0,0,0,.35,3.76,4.7,4.7,0,0,0,2.22,3c1.42.73,3.17.42,4.69.94,1.21.42,2.23,1.35,3.49,1.57"/><path class="cls-1" d="M700.37,222.3c-7.51-2.23-12-10.7-19.53-12.67-4.52-1.17-9.41.27-13.31,2.85s-7,6.21-9.91,9.84"/><path class="cls-1" d="M695.1,222.7c-4.2-1-8.43,1-12.57,2.29a35.05,35.05,0,0,1-24-1.46"/><path class="cls-1" d="M654.73,215.23a114.59,114.59,0,0,1,11.61-8.32,20.17,20.17,0,0,1,5.37-2.59,19.14,19.14,0,0,1,7.2-.14,34.41,34.41,0,0,1,10.71,2.87,17.47,17.47,0,0,1,8.06,7.41"/><path class="cls-1" d="M653.54,196.48a155.09,155.09,0,0,1,25.21-1.28,10.36,10.36,0,0,1,4,.68,15,15,0,0,1,2.64,1.79,17.78,17.78,0,0,0,17.18,2.38c-.7-2.61-1.45-5.32-3.2-7.38-2.94-3.46-7.9-4.26-12.43-4.55a108.75,108.75,0,0,0-33.62,3.12"/><path class="cls-1" d="M806.5,174.62c-3.44-3.31-8.67-3.69-13.44-3.88-5.35-.22-10.76-.43-16,.63-1.86.37-3.68.9-5.5,1.43l-16.4,4.79a18.8,18.8,0,0,0-6.21,2.67c-4,3-4.31,8.81-4.85,13.82,10.95-2.5,19.34-11.43,29.92-15.2,6.58-2.34,13.7-2.57,20.68-2.55q6.07,0,12.15.29"/><path class="cls-1" d="M753,199.61c4.86-6.62,13.41-10,21.61-9.55s15.94,4.49,21.84,10.2"/><path class="cls-1" d="M749.52,212.07a8,8,0,0,0,3.6-3.15c.92-1.34,1.63-2.81,2.57-4.12,2.13-3,5.28-5,8.36-7a18.16,18.16,0,0,1,10.33-2.63,25,25,0,0,1,7.47,1.82c3.81,1.39,7.7,3,10.48,5.94"/><path class="cls-1" d="M750.28,214.53l17.86-1.07a37.91,37.91,0,0,0,5.93-.67,37.22,37.22,0,0,0,6.67-2.42c3.36-1.48,6.81-3,9.34-5.69"/><path class="cls-4" d="M772.73,202.58a4.08,4.08,0,0,0-5.12.33,3.11,3.11,0,0,0,.67,4.75,4.12,4.12,0,0,0,1.93.31A4.41,4.41,0,0,0,774,206.1c.72-1.27,0-3.27-1.42-3.38"/><path class="cls-3" d="M807,198.9a30,30,0,0,1-7.5,3.94c3.67-.5,8.69,1.12,12.2,2.33"/><path class="cls-3" d="M778.43,295.34a10.26,10.26,0,0,0,5.06-.58"/><path class="cls-3" d="M780.89,298.39a30.33,30.33,0,0,0,4.28,2.63"/><path class="cls-3" d="M809.87,139.09a61.9,61.9,0,0,1,4.7,8.47q3.79,7.75,7.56,15.53"/><path class="cls-1" d="M837.9,140.09a63,63,0,0,1,13.35,27.07c1.55,7.08,1.93,14.61,5.49,20.93,2.41,4.28,6.13,7.7,8.7,11.89"/><path class="cls-1" d="M859.16,217.77C869.62,229.69,873,246.13,875,261.86c1.62,12.68,2.49,26.08-2.68,37.77-3.12,7.07-8.35,13.23-10.19,20.73"/><path class="cls-1" d="M845.12,230.65c2.57,5.31,5.2,11,4.58,16.85-.81,7.66-7,14.07-7.24,21.77"/><path class="cls-1" d="M831.82,309a51.71,51.71,0,0,0,6.52,34.25c3.7,6.23,9.1,11.88,16.07,13.87"/><path class="cls-3" d="M890.74,305.79c7.21,7.25,8.62,18.44,8,28.65-1.54,25.81-13.32,49.9-27,71.81-4.53,7.23-9.43,14.68-10.26,23.17l1-1.43"/><path class="cls-1" d="M846.75,384c-7.92,9.17-16,18.65-19.87,30.14-4.8,14.34-2.39,29.94-3,45.05"/><path class="cls-3" d="M823.73,364.8c-6.68,1.77-12,7.08-15.27,13.13s-4.93,12.87-6.51,19.59"/><path class="cls-3" d="M885.38,391.13c4.62,1.58,9.75,2,13.75,4.85a23.22,23.22,0,0,1,6,7,77.2,77.2,0,0,1,7.08,14.85"/><path class="cls-3" d="M664.49,362.2c3.47,3.22,5.38,7.83,6.24,12.48s.75,9.43.77,14.16c0,6.9.29,13.82-.46,20.68s-2.58,13.73-6.43,19.45"/><path class="cls-3" d="M678,397.91c.57,11.65,1.06,23.79-3.58,34.5-3.19,7.39-8.7,13.74-10.85,21.5a1.74,1.74,0,0,0,0,1.38c.6.91,2,0,2.66-.82"/><path class="cls-3" d="M678.48,440.82a19.47,19.47,0,0,0,2.6,11.8,57.9,57.9,0,0,0,7.34,9.84"/><path class="cls-3" d="M614.78,373.93c-1.31,6.07-2.61,12.46-.8,18.41,1,3.46,3.1,6.53,5.12,9.54,3.26,4.85,6.52,9.69,9.86,14.48,3.07,4.4,6.24,8.8,8.25,13.78a33.85,33.85,0,0,1,.38,24.15"/><path class="cls-1" d="M624.46,340.79c4,6.36,11.26,9.92,15.87,15.82A31.83,31.83,0,0,1,646.2,371a95.1,95.1,0,0,1,.87,15.65c0,10.17,0,20.55-3.2,30.21"/><path class="cls-3" d="M658.83,161.05c-8.32,8.39-10,21.34-9.11,33.12s3.77,23.5,2.76,35.27a25.09,25.09,0,0,1-3,10.83c-7.38,12.25-26.35,10.1-37.49,19a22.46,22.46,0,0,0-8.25,16c0,.63.06,1.42.66,1.61s.86-1.11.26-.91"/><path class="cls-3" d="M637.33,231.76a83.09,83.09,0,0,1-16.67,13.7"/><path class="cls-1" d="M628.54,117.43c-13.55,9.44-23.4,23.43-30.44,38.36s-11.5,30.93-16.16,46.77c-4,13.41-8.28,27.16-17.2,37.92-6.93,8.36-16.91,15.58-18.11,26.37"/><path class="cls-1" d="M550.65,297.58a100.51,100.51,0,0,0,21.7,87.49"/><path class="cls-3" d="M547.23,224.33,513.83,302c-4.09,9.52-8.21,19.13-10.17,29.31s-1.58,21.1,3,30.39"/><path class="cls-1" d="M726.9,20a81.9,81.9,0,0,0-97.59,55.59"/><path class="cls-1" d="M724.87,52c-40.07,8.85-75.48,36.81-93.38,73.74"/><path class="cls-1" d="M677.65,46.83,642.24,72.91C621.77,88,599.9,105.08,594,129.8"/><path class="cls-1" d="M751,31.87c4.82-1.74,10.15-1.56,15.17-.56,12.29,2.44,23.25,9.66,32,18.65s15.45,19.72,21.7,30.58"/><path class="cls-1" d="M772.61,63.57c5.87,5.72,15.07,5.86,22.54,9.23,5.86,2.64,10.56,7.26,15.13,11.77l27.81,27.52c6.92,6.84,14.19,14.35,15.83,23.94"/><path class="cls-1" d="M750,22.38c4.58-2.67,10.36-.7,15.26,1.31L784,31.39"/><path class="cls-4" d="M681.73,214.58a4.08,4.08,0,0,0-5.12.33,3.11,3.11,0,0,0,.67,4.75,4.12,4.12,0,0,0,1.93.31A4.41,4.41,0,0,0,683,218.1c.72-1.27,0-3.27-1.42-3.38"/><ellipse class="cls-1" cx="679.52" cy="217.19" rx="9.5" ry="7.5"/><ellipse class="cls-1" cx="772.52" cy="204.69" rx="9.5" ry="8"/><circle class="cls-5" cx="680.52" cy="217.19" r="1.5"/><circle class="cls-5" cx="772.52" cy="205.19" r="1.5"/><path class="cls-6" d="M409.38,245.76c-6.52-5.5-15.48-6.83-23.93-7.95a24.81,24.81,0,0,0-6-.3,16.18,16.18,0,0,0-9.52,5.09,40.65,40.65,0,0,0-6.22,9.05c5.32-.4,12.21-.35,17.52-.86l4-.38,16.12-1.54a3.36,3.36,0,0,0,1.43-.36,4.61,4.61,0,0,0,1-1C404.86,246.2,407.7,245.78,409.38,245.76Z"/><path class="cls-6" d="M421.48,226.38c-2.28-4.31-7.09-6.56-11.63-8.36a26.56,26.56,0,0,0-7.78-2.14c-7.23-.52-13.6,4.41-20.52,6.57a43.13,43.13,0,0,1-8.21,1.57c-2.39.26-5,.4-7-.87s-3-4.52-1.16-6.1c8.78-.94,18.62-2.66,27.4-3.6a34.4,34.4,0,0,1,8.95-.17,25.83,25.83,0,0,1,7.05,2.37C414,218.24,417.24,222.09,421.48,226.38Z"/><path class="cls-6" d="M253,218.87a18.17,18.17,0,0,1,15.41-5.45c5,.68,9.39,3.38,14.14,5s9.78,2,14.77,2.51l14.18,1.29c.84.08,1.88.06,2.31-.67a2.31,2.31,0,0,0-.15-1.93l-2.17-5.55c-7.94.43-17.38.61-25.25-.51-4.19-.59-8.31-1.62-12.52-2a43.88,43.88,0,0,0-12.32.51C257.17,212.8,253.73,214.64,253,218.87Z"/><path class="cls-6" d="M327.35,187.36a115.8,115.8,0,0,0,56.88-17.85"/><path class="cls-1" d="M464.8,227.68a5.61,5.61,0,0,1,6.65-1.74c3.52,1.62,4.26,6.29,4,10.16-.87,11.19-5.51,22.24-7.61,33.3-2.31,12.12-4,24.36-5.14,36.65-.34,3.74-.71,7.71-2.94,10.74-2.42,3.27-6.63,4.78-10.69,5.12l.25-2.54"/><path class="cls-1" d="M455.29,261.21,450.93,309c-1.26,13.83-2.57,27.87-7.52,40.85-4.5,11.81-4.69,24.17-11.13,35a86.58,86.58,0,0,1-8.5,11.65c-6.5,7.67-13.91,14.76-22.78,19.48a109.22,109.22,0,0,1-14.18,5.9L367,429.14c-6.44,2.33-13,4.69-19.78,5.44-8.35.93-16.79-.6-24.89-2.84-24.13-6.69-46-19.64-67-33.19"/><path class="cls-1" d="M197.58,249.3a109.51,109.51,0,0,0,8.89,34.47c1.74,3.93,3.72,7.81,4.63,12,1,4.68.64,9.55,1.38,14.27s3,9.68,7.34,11.63a13.24,13.24,0,0,0,5.35,1c1.15,0,3.31-.62,4.38,0,2.11,1.28,1.09,6.24,1.21,8.45A112.06,112.06,0,0,0,234,352.53c3.51,14.13,9.4,27.6,16.43,40.33,1.37,2.47,3,5.09,5.59,6.13"/><path class="cls-1" d="M223.83,256.83q-.3,10.05-.38,20.11a53.29,53.29,0,0,0,.67,10.79,99.15,99.15,0,0,0,2.94,9.79,60.87,60.87,0,0,1,2.47,22.88"/><path class="cls-1" d="M210,231.82a8.08,8.08,0,0,0-14.09,2.05,11.71,11.71,0,0,0-.59,2.94c-.4,4.68.86,9.33,2.11,13.86"/><path class="cls-1" d="M199,238.91a11.91,11.91,0,0,1,2.73,1,9.39,9.39,0,0,1,3,2,6.77,6.77,0,0,1,1.19,2.11,13.68,13.68,0,0,1,.81,3.14,27.72,27.72,0,0,1-.23,7.1l-1,8.85"/><path class="cls-1" d="M226.49,248.41c-.18,2.49-2.35,4.31-4.36,5.79a10.81,10.81,0,0,1-4.71,2.38"/><path class="cls-1" d="M225.72,253.07a8.36,8.36,0,0,1-6,5"/><path class="cls-1" d="M227.13,246.74c.47-11.46-2.23-23.06-.09-34.32a2.5,2.5,0,0,1,.72-1.56c.68-.54,2-.52,2.05-1.39"/><path class="cls-1" d="M257.66,218.68c2.93-3.94,8.09-5.58,13-5.91,9-.6,17.88,2.44,26.46,5.33a78.17,78.17,0,0,0,13,3.5,6.19,6.19,0,0,0,3.47-.19,2.37,2.37,0,0,0,1.4-2.86,3.49,3.49,0,0,0-2.47-1.59,209.34,209.34,0,0,0-35.15-6.84,14.11,14.11,0,0,0-4.4,0,14.89,14.89,0,0,0-3.24,1.22l-6,2.81"/><path class="cls-1" d="M422.31,229.08c-4.47-1.29-6.94-6-10.61-8.82-5.39-4.2-13-4.13-19.65-2.57a23.46,23.46,0,0,0-5.66,2,22.07,22.07,0,0,1-3.09,1.6,12.47,12.47,0,0,1-2.72.53l-12.53,1.51a9.8,9.8,0,0,1,5.86-8.32c3.25-1.28,6.81-1.41,10.26-2,5.75-.93,11.35-3.06,17.17-2.94a6.61,6.61,0,0,1,3.05.64,10.75,10.75,0,0,1,2.43,2.29c2.32,2.49,5.51,4,7.82,6.53,1.59,1.71,2.7,3.81,4.22,5.59S420,229.24,422.31,229.08Z"/><path class="cls-1" d="M312.11,297.53a33.84,33.84,0,0,0-3.15,6.06,60.45,60.45,0,0,0-2.52,8.66c-.25,1.07-.44,2.35.33,3.14a3.55,3.55,0,0,0,1.61.77A40.75,40.75,0,0,1,322,323.05"/><path class="cls-1" d="M320.73,311.34a25.4,25.4,0,0,0-.45-14.17c-.41-1.24-1.12-2.62-2.4-2.82"/><path class="cls-1" d="M324.82,317.66c0,2.17,2.62,3.21,4.75,3.66l12,2.54a11,11,0,0,0,4.86.27c2.86-.73,4.7-3.67,7.51-4.62,1.22-.41,2.54-.42,3.77-.78A7,7,0,0,0,362.2,310c-.61-1.71-.5-4.74-.79-6.53a.64.64,0,0,0-.21-.44c-.14-.09-.39,0-.32.2"/><path class="cls-1" d="M361.26,320c2.57-1.13,5.47-1.17,8.28-1.09a3.53,3.53,0,0,0,2.18-.39,3.32,3.32,0,0,0,1-1.39,9.09,9.09,0,0,0,.93-3c.27-3.08-2.13-5.84-2.22-8.93"/><path class="cls-1" d="M356.71,241.17a124,124,0,0,0-2.37,49.34"/><path class="cls-1" d="M324.54,239.76a171.65,171.65,0,0,1,1.35,45.5"/><path class="cls-3" d="M400.42,358.1c.13-8.92-.92-18.24-5.73-25.76-3.76-5.86-9.65-10.36-12.29-16.8a18.61,18.61,0,0,0-4.81-7c-2.13-1.83-4.51-3.34-6.68-5.11-1-.79-2-1.81-1.93-3.06"/><path class="cls-3" d="M307.46,300.35l-13.21,20.18c-1.51,2.32-3,4.64-4.67,6.88-2.86,3.91-6.08,7.57-8.76,11.61s-4.85,8.56-5.28,13.39"/><path class="cls-3" d="M282.77,348.22A56.69,56.69,0,0,0,281.6,354a7.3,7.3,0,0,0,.2,3.94"/><path class="cls-2" d="M294,351.42a61.3,61.3,0,0,1,30.82-.35c3.54.88,7,2.08,10.6,2.66,9.84,1.6,19.76-1.5,29.7-2.19a62,62,0,0,1,23.62,3,10.41,10.41,0,0,0-4.88-2.59c-11.28-3.46-23.2-5.28-34.92-4a72.64,72.64,0,0,1-8,.77,51.81,51.81,0,0,1-8-.91c-10.8-1.75-22.05-2.9-32.5.31-3.66,1.12-7.18,2.77-10.95,3.44-.45,1.48.75,3.29,2,4.21a17.47,17.47,0,0,0,4.19,1.91c5.28,2.09,9.51,6.14,14.36,9.08,6.87,4.18,14.85,6.06,22.67,7.89a38.53,38.53,0,0,0,8.18,1.3,35.45,35.45,0,0,0,6.32-.63c6.24-1,12.58-2.32,18-5.56a50.22,50.22,0,0,0,4.54-3.14q5.13-3.86,10.08-7.94a21.36,21.36,0,0,1,4.65-3.22,6.91,6.91,0,0,1,5.5-.34"/><path class="cls-2" d="M377.75,355.5c-9.68,5.2-20,10.19-31,10.21a73.4,73.4,0,0,1-11.44-1.21l-12.76-2.05a49,49,0,0,1-7.1-1.5c-6.22-2-11.61-6.42-18.08-7.34"/><path class="cls-1" d="M472.09,237c-2.62,2.7-3.17,6.74-3.58,10.48l-.94,8.61"/><path class="cls-1" d="M364.64,252c4.78-6.34,10.28-13.15,18.09-14.56,4.35-.79,8.83.27,13,1.67,4.6,1.54,9.18,3.61,12.52,7.13"/><path class="cls-1" d="M404.11,247.62a31.82,31.82,0,0,1-6.77,2.24c-8.72,1.82-17.9-.13-26.61,1.76"/><path class="cls-1" d="M309.19,250.24,298.78,243a31.94,31.94,0,0,0-6.77-3.89,26.46,26.46,0,0,0-8.72-1.29A28.11,28.11,0,0,0,273,239.19a12.24,12.24,0,0,0-7.43,6.92"/><path class="cls-1" d="M306.51,252.72l-17.24-.49c-2.33-.06-4.66-.13-7-.41a37.4,37.4,0,0,1-12.17-3.65"/><path class="cls-1" d="M322.26,110.14l-8.62-6.07a61.4,61.4,0,0,1-7.81-6.17c-1.95-1.93-3.64-4.11-5.7-5.93-4.26-3.76-9.87-5.71-15.5-6.47s-11.35-.4-17,0"/><path class="cls-1" d="M311.72,46.82C304,46,296.4,49.37,289.34,52.74c-18.18,8.68-36.85,18.11-49.42,33.85a44,44,0,0,0-4.81,7.22A60.07,60.07,0,0,0,231,105.34c-3.54,12.7-6.42,25.62-11.28,37.87-4.15,10.47-9.78,20.66-10.66,31.88-.4,5,.17,10,.41,15,.52,10.92-.53,21.86-.14,32.79s2.37,22.13,8.35,31.29"/><path class="cls-3" d="M202.93,285.78c-.89,6.87-5,12.8-8.21,18.94a74.57,74.57,0,0,0-8.14,28.68"/><path class="cls-3" d="M195.15,259.33c-8.45,13.61-6,31.16-10.43,46.57-.74,2.6-1.86,5.37-4.26,6.62"/><path class="cls-3" d="M230,362.38a36.17,36.17,0,0,1-12.89,11.41c-3.41,1.79-7.14,3-10.15,5.44-3.32,2.64-5.49,6.43-7.46,10.19a218.13,218.13,0,0,0-10.64,23.41"/><path class="cls-3" d="M229.52,347.94q-4.07,8.73-8.35,17.37c-.91,1.83-2.12,3.88-4.14,4.17"/><path class="cls-3" d="M233.7,374.73,213,401.45a53.8,53.8,0,0,0-6.2,9.28,27.22,27.22,0,0,0-2.29,16.41"/><path class="cls-3" d="M228.39,369.87a182.91,182.91,0,0,0-19,28.17"/><path class="cls-3" d="M236.88,385.08A58.06,58.06,0,0,1,226,403.76c-2.46,2.85-5.24,5.51-7,8.86-1.08,2.08-1.6,4.89,0,6.57"/><path class="cls-3" d="M238.53,396.85c-1.86,7-3.74,14.26-2.71,21.44.36,2.55,1.08,5.21.23,7.63"/><path class="cls-3" d="M473.32,257.87c-.12,8.14,5.91,14.85,10,21.92,5.69,9.93,7.71,21.47,9.63,32.75"/><path class="cls-3" d="M473.33,269.89a114.85,114.85,0,0,1,6.3,44.27c-.28,5.06-.92,10.18-2.92,14.84-2.86,6.67-8.51,12.58-8.37,19.84"/><path class="cls-3" d="M469.16,277.69a111.73,111.73,0,0,1,.76,32.86"/><path class="cls-7" d="M453.42,256a93.38,93.38,0,0,1-5.74-19.85c-.89-5.14-1.35-10.34-2.17-15.49-1.49-9.46-4.17-18.68-6.83-27.87-6.26-21.56-10.64-45.89-26.34-61.93-11.47-11.71-28.26-16.13-44.17-20.07l-21.84-5.41a11.62,11.62,0,0,0-3.78-.51,14.28,14.28,0,0,0-4.74,1.7,35.35,35.35,0,0,1-19.73,3c-5.31-.74-10.69-2.68-15.89-1.36-6.2,1.58-10.27,7.3-15,11.6a38.87,38.87,0,0,1-23,9.86,20.92,20.92,0,0,0-5.92.85c-4.34,1.63-6.45,6.43-8.1,10.75l-6,15.68c-6.63,17.34-13.35,35.22-13,53.78"/><path class="cls-1" d="M460.1,249.9l6.12-37.75c3-18.4,5.92-37.55.67-55.44-1-3.51-2.36-6.92-3.32-10.44-.92-3.35-1.49-6.78-2.3-10.15-2.69-11.13-8-21.41-13.24-31.58"/><path class="cls-1" d="M446.68,101.88C437,90.55,427.33,79.16,415.83,69.72c-4.35-3.57-9-6.89-14.3-8.83-6.29-2.31-13.21-2.58-19.4-5.14-8.76-3.62-15.27-11.49-24.11-14.94a38.89,38.89,0,0,0-13.42-2.3,70.38,70.38,0,0,0-34.87,8.54"/><path class="cls-1" d="M253.74,407.07a117.65,117.65,0,0,1-5.28,70.68c-3.72,9.23-8.62,18-11.1,27.65"/><path class="cls-1" d="M417.86,418.51a207.72,207.72,0,0,0-3.34,81.9"/><path class="cls-1" d="M385.87,531.05a366.17,366.17,0,0,1-36.29,39.64"/><path class="cls-1" d="M273.33,536.06a115.15,115.15,0,0,0,34.41,54.79"/><path class="cls-1" d="M445.35,440.92a83.84,83.84,0,0,0,27.55,10.87c8.74,1.75,18.31,2.33,25.17,8"/><path d="M388.7,238.9h0c4.14,0,7.47,2,7.73,4.72a4.72,4.72,0,0,1-2,4,11,11,0,0,1-6,2.32c-.42,0-.84.06-1.25.06-4.15,0-7.48-2-7.74-4.71-.3-3,3.25-5.86,7.92-6.31.42,0,.84-.07,1.26-.07m0-1c-.45,0-.9,0-1.36.07-5.22.51-9.17,3.82-8.82,7.4.32,3.27,4.11,5.62,8.74,5.62q.66,0,1.35-.06c5.22-.51,9.17-3.83,8.82-7.4-.32-3.27-4.11-5.63-8.73-5.63Z"/><path d="M286.1,239.16h0a12.25,12.25,0,0,1,1.7.12c4.67.66,8.1,3.81,7.64,7-.39,2.76-3.58,4.77-7.59,4.77a12.25,12.25,0,0,1-1.7-.12c-4.67-.66-8.1-3.82-7.65-7,.39-2.76,3.59-4.77,7.6-4.77m0-1c-4.44,0-8.12,2.31-8.59,5.63-.53,3.77,3.28,7.43,8.5,8.17a14.48,14.48,0,0,0,1.84.13c4.44,0,8.12-2.31,8.58-5.63.54-3.78-3.27-7.43-8.49-8.17a13,13,0,0,0-1.84-.13Z"/><path class="cls-1" d="M458.43,264.21a71.87,71.87,0,0,0-2.92,18.31"/><path class="cls-1" d="M460.94,266.42a45.69,45.69,0,0,1,.31,10.83,15.43,15.43,0,0,1-4.6,9.59"/><path class="cls-1" d="M360.51,248.43l8.32-9.5a20.52,20.52,0,0,1,4.33-4.05,15.76,15.76,0,0,1,7.82-2c10.55-.39,20.72,4,29.79,9.4"/><path class="cls-1" d="M313.35,246.08c-4-2.52-6.87-6.48-10.7-9.24a26.22,26.22,0,0,0-10.94-4.41,33.16,33.16,0,0,0-29.46,10"/><path class="cls-3" d="M261.88,255.12a22.68,22.68,0,0,0,15.91,9.3"/><path class="cls-3" d="M382.63,264.08c6,1.14,12.29,1.91,18.27.54a26.39,26.39,0,0,0,8.88-3.88"/><path class="cls-3" d="M413.36,250.17a14.16,14.16,0,0,1,4.86,7.42"/><path class="cls-3" d="M260.09,246.19A25.56,25.56,0,0,1,250,242.71"/><path class="cls-3" d="M257.86,249.85a17.85,17.85,0,0,1-12.78-2.91"/><path class="cls-3" d="M254.77,252.64a17.92,17.92,0,0,1-11.66.28"/><path class="cls-3" d="M425.22,249.5a33.74,33.74,0,0,0,9.18-2.68"/><path class="cls-3" d="M420.17,252.65a50.36,50.36,0,0,1,11.7-.38"/><path class="cls-3" d="M419.22,255.82a20.22,20.22,0,0,1,13.64,2.64"/><path class="cls-1" d="M226.92,198.75a46.57,46.57,0,0,0-15.19,6"/><path class="cls-1" d="M226,205.47q-7.52,7.49-15.29,14.7"/><path class="cls-1" d="M224,239.24c-.94,4-2.06,8.69-5.63,10.68a6.53,6.53,0,0,0,5.13-4.42"/><path class="cls-1" d="M224.84,233a34.85,34.85,0,0,1-6.16,7.9,7.14,7.14,0,0,1-3.77,2"/><path class="cls-1" d="M223.7,227.54a22,22,0,0,1-10.94,11.8"/><path class="cls-1" d="M222.55,222.23a38.31,38.31,0,0,1-11,11.86"/><path class="cls-1" d="M223.78,213.37a32.8,32.8,0,0,1-11.4,10.69"/><path class="cls-1" d="M225.12,202.16a92.76,92.76,0,0,0-13.2,7.48"/><path class="cls-1" d="M225,193.75a22.72,22.72,0,0,0-12.74,4.63"/><path class="cls-1" d="M212.07,171l11.36-4.82c4.14-1.76,8.7-3.55,13-2.28"/><path class="cls-1" d="M209.45,178.44a43.65,43.65,0,0,1,21-6.75"/><path class="cls-1" d="M213.38,181.28a81.09,81.09,0,0,1,17.76-2.09c.44,0,1.07.33.81.68"/><path class="cls-1" d="M294.84,108.38c-5.46-1.36-9.25-6.12-13.54-9.75a39.17,39.17,0,0,0-40.38-5.75"/><path class="cls-1" d="M282.23,113.92c-2.49,1.35-5.55.17-8.12-1A135.44,135.44,0,0,1,257,104a30,30,0,0,0-4.84-2.81c-6-2.47-12.87.16-18.68,3.12"/><path class="cls-1" d="M268.1,124.62c-3.47,1.8-7.73.67-11.25-1s-6.89-4-10.77-4.47c-5.1-.64-10,1.91-14.34,4.7"/><path class="cls-1" d="M246.18,137a31,31,0,0,0-24.52,14.63"/><path class="cls-1" d="M334.44,103.1a54.83,54.83,0,0,0-35.87-29.69c-1.63-.41-3.42-.82-4.48-2.12A6.19,6.19,0,0,1,293,69a18.41,18.41,0,0,1,.57-11.66"/><path class="cls-1" d="M334.33,86.84a17.35,17.35,0,0,0-1.46-11.44A36.1,36.1,0,0,0,326,66c-1.74-1.82-3.63-3.64-4.49-6s-.3-5.48,1.94-6.64"/><path class="cls-1" d="M349.4,43.14c.68,4.1,2.79,7.8,4.15,11.73C356,62,356,69.75,355.93,77.32c-.07,8.13-.4,17-5.65,23.18"/><path class="cls-1" d="M347.27,99.35,346,51.05"/><path class="cls-1" d="M358.78,101.31c.9-3.11,1-6.4,1.43-9.61a38.62,38.62,0,0,1,8.36-19.84c4.71-5.54,11.53-9.44,18.78-9.92"/><path class="cls-1" d="M363.82,65l.88-7.7c.2-1.76.57-3.79,2.13-4.64"/><path class="cls-1" d="M365.42,103.47c3.69-5,10-7.3,16-8.87s12.37-2.79,17.36-6.51A20.67,20.67,0,0,0,406.92,71"/><path class="cls-1" d="M368.44,93.77c4.18-3.48,6.64-8.64,10.66-12.3,3.69-3.35,8.48-5.24,13.3-6.48"/><path class="cls-1" d="M378.46,109.26a65.38,65.38,0,0,1,64.09-1.83"/><path class="cls-1" d="M396.91,113.9a51.87,51.87,0,0,1,57.18,22.66"/><path class="cls-1" d="M425.58,134.21c6.2,0,12.64,0,18.23,2.63a33.21,33.21,0,0,1,7.58,5.32,89.36,89.36,0,0,1,9.45,9.81"/><path class="cls-1" d="M441.64,182.76c2.43,1.77,5.37,2.63,8.25,3.46l17.18,4.95-.77-.23"/><path class="cls-1" d="M443,191.37a49.73,49.73,0,0,0,9.49,6.09,16.54,16.54,0,0,0,11,1.21"/><path class="cls-1" d="M445.12,201.16a63.86,63.86,0,0,1,14.77,7.35,5.92,5.92,0,0,1,2.48,2.6"/><path class="cls-1" d="M445.29,205.53c2.17,4.89,9.12,5.92,11.78,10.56.8,1.38,1.37,3.2,2.91,3.59"/><path class="cls-1" d="M449.08,218.28a20.77,20.77,0,0,0,11.86,6.39"/><path class="cls-1" d="M449.44,227A10.29,10.29,0,0,0,460,232.59"/><path class="cls-1" d="M451.55,236.39a13.8,13.8,0,0,0,.14,5.36,4.68,4.68,0,0,0,3.69,3.49"/><path class="cls-1" d="M438.62,180.34c2.91-1.21,5.91-2.44,9.07-2.43s6.17,1.29,9.07,2.55,5.72,2.54,7.4,5.07"/><path class="cls-1" d="M436.21,159.27l8.1,3.54a11.78,11.78,0,0,1,3.58,2.09c1.11,1.09,1.76,2.57,2.84,3.69a28.16,28.16,0,0,0,4,2.82c1.32,1,2.43,2.23,3.78,3.18a5.46,5.46,0,0,0,4.63,1.09l0-1.48"/><path class="cls-1" d="M434.63,150.35a5.81,5.81,0,0,1,3.6-.45,11.42,11.42,0,0,1,2.92,1.19l5,2.61A31.39,31.39,0,0,1,453,158c1.81,1.63,3.27,3.71,5.42,4.87"/><path class="cls-1" d="M217.47,266.75c-5.57,4.16-8,12.22-1.81,17.38a2.54,2.54,0,0,0,3.31.11"/><path class="cls-1" d="M211.08,259.55a15.46,15.46,0,0,0-.42,8"/><path class="cls-3" d="M202.69,298.82a82.19,82.19,0,0,1-.7,13.94c-1,7.64-3.05,15.84.41,22.72"/><path class="cls-3" d="M194.18,277c-1.13,6.09-2.48,12.15-4.05,18.14"/><path class="cls-3" d="M475.81,316.47c-.85,4.34-2.14,9.11-5.86,11.5-1.39.9-3,1.37-4.43,2.22a9.91,9.91,0,0,0-4.75,7.69"/><path class="cls-1" d="M288.7,246.32a.57.57,0,1,0-1,.54.83.83,0,0,0,1.36.36,1.11,1.11,0,0,0-.18-1.55,1.75,1.75,0,0,0-1.66-.21,1.25,1.25,0,0,0-.62.43c-.35.55.16,1.33.8,1.48a3.1,3.1,0,0,0,1.89-.37,2.32,2.32,0,0,0-1.37-3.31,2.17,2.17,0,0,0-2.49,2.46,2,2,0,0,0,3.29.91"/><path class="cls-4" d="M386.63,244.1a3.57,3.57,0,0,0-1.69,1.08,2.6,2.6,0,0,0,1.66.14l-.21-1.35a3.89,3.89,0,0,0-2,2l2.32-.15a2.84,2.84,0,0,0,.67-.11c.75-.27.46-1,.08-1.49a2,2,0,0,0-1.35-.91c-1.06-.14-1.81.84-1.27,1.45a4,4,0,0,0,2.83.82,1,1,0,0,0-.1-1.65,3.1,3.1,0,0,0-2.49-.41c-.67.75.9,1.79,2.08,1.38a.46.46,0,0,1,0,.64c-.39.09-.87-.13-.87-.4"/><path class="cls-1" d="M240.33,444.45A236.75,236.75,0,0,1,172,467.09c-21.36,3.6-43.22,4.28-64.24,9.52C58.11,489,16.11,528.29.48,577"/><path class="cls-1" d="M186.84,511.06a1212.17,1212.17,0,0,1,73,151"/></svg>