<?xml version="1.0" encoding="utf-8"?>
<!-- Generator: Adobe Illustrator 23.0.1, SVG Export Plug-In . SVG Version: 6.00 Build 0)  -->
<svg version="1.1" id="Calque_1" xmlns="http://www.w3.org/2000/svg" xmlns:xlink="http://www.w3.org/1999/xlink" x="0px" y="0px"
	 viewBox="0 0 255.44 274.12" style="enable-background:new 0 0 255.44 274.12;" xml:space="preserve">
<style type="text/css">
	.st0{fill:none;stroke:#000000;stroke-width:0.75;stroke-miterlimit:10;}
	.st1{fill:none;stroke:#000000;stroke-width:0.5;stroke-miterlimit:10;}
	.st2{fill:none;stroke:#000000;stroke-miterlimit:10;}
	.st3{fill:none;stroke:#A31A23;stroke-miterlimit:10;}
</style>
<path class="st0" d="M184.75,89.43c-1.58,0.05-3.23,0.13-4.61,0.92c-1.37,0.79-2.34,2.52-1.74,3.99c0.88,2.16,3.95,2.04,6.22,1.49
	c2.97-0.71,6.33-1.43,8.88,0.23c-2.72-0.41-5.45-0.82-8.17-1.22"/>
<path class="st0" d="M193.95,100.38c1.81-0.79,3.62-1.57,5.43-2.36c1.31-0.57,2.73-1.26,3.25-2.58c0.52-1.33-0.07-2.82-0.71-4.1
	c-0.77-1.55-1.63-3.06-2.65-4.47c-1.79-2.48-4.05-4.61-5.69-7.19c-1.64-2.58-2.62-5.86-1.51-8.71"/>
<path class="st1" d="M189.62,102.58c-0.76,1.24-1.18,2.68-1.22,4.13"/>
<path class="st2" d="M197.89,99.17c-0.12,4.32-0.25,8.73-1.72,12.8c-2.26,6.25-7.54,11.27-8.76,17.8
	c-0.67,3.55-0.23,7.68-2.74,10.27c-2,2.07-5.14,2.35-7.97,2.84c-6.57,1.12-12.84,3.97-18,8.19"/>
<path class="st2" d="M183.03,133.24c0.13-1.13-0.92-2.02-1.89-2.61c-3.89-2.4-8.38-3.82-12.94-4.11"/>
<path class="st0" d="M113.97,100.47c1.21,3.87,2.41,7.74,3.62,11.62c0.55,1.78,1.14,3.61,2.39,4.99c1.16,1.27,2.76,2.02,4.33,2.74
	c6.37,2.92,12.74,5.84,19.11,8.76c3.12,1.43,6.26,2.87,9.51,3.98c9.06,3.09,18.84,3.6,27.89,6.73"/>
<path class="st3" d="M166.92,110.53c5.92-0.06,11.71-2.92,17.57-2.02c0.43,0.07,0.95,0.23,1.06,0.65c0.09,0.34-0.13,0.74,0.05,1.04
	c0.23,0.39,0.82,0.23,1.27,0.16c1.16-0.19,2.31,0.61,2.89,1.64c0.58,1.03,0.72,2.23,0.85,3.41"/>
<path class="st3" d="M168.48,112.8c2.08,0.53,4.17,1.06,6.13,1.91c2.31,1.01,4.41,2.45,6.73,3.42c2.32,0.98,5.02,1.46,7.34,0.46"/>
<path class="st3" d="M171.06,112.23c4.3-0.75,8.16,2.52,12.33,3.79c1.35,0.41,2.75,0.61,4.1,0.99"/>
<path class="st3" d="M174.1,110.75c2.78-0.3,5.63-0.59,8.35,0.05c2.72,0.64,5.35,2.41,6.24,5.07"/>
<path class="st2" d="M113.24,70.7c-1.12-2.54-3.01-4.8-5.49-6.03c-2.49-1.23-5.59-1.32-7.99,0.08c-3.4,1.99-4.65,6.33-4.69,10.27
	c-0.08,7.62,3.69,15.46,10.36,19.14c2.48,1.37,5.23,2.13,7.95,2.89c1.6,0.44,3.36,0.88,4.89,0.23c1.53-0.65,2.42-2.91,1.18-4.02"/>
<path class="st0" d="M110.02,71.96c0.41-0.82-0.49-1.68-1.32-2.09c-2.46-1.22-5.76-1.53-7.7,0.41c-0.58,0.58-0.98,1.31-1.29,2.07
	c-1.34,3.24-1.03,7.12,0.81,10.11c1.84,2.99,5.17,5.01,8.67,5.27c1.34,0.1,2.72-0.04,3.98,0.39c0.59,0.2,1.16,0.53,1.78,0.58
	c0.62,0.05,1.35-0.32,1.41-0.94"/>
<path class="st1" d="M191.01,26.96c0.61-1.38,1.23-2.84,1.08-4.35s-1.37-3.01-2.88-2.91c-0.82,0.06-1.53,0.56-2.18,1.07
	c-4.31,3.39-7.7,7.79-11.52,11.73c-8.6,8.87-19.42,15.34-30.77,20.22c-11.35,4.88-23.28,8.24-35.17,11.59"/>
<path class="st1" d="M128.36,63.68c-2.71,1.69-5.05,4.06-6.38,6.96c-1.33,2.9-1.58,6.36-0.35,9.31"/>
<path class="st1" d="M113.2,65.99c3.17,3.99,4.83,8.94,6.79,13.64c0.67,1.6,1.39,3.21,2.48,4.55c1.09,1.35,2.61,2.43,4.33,2.65
	c0.12-0.21,0.25-0.43,0.37-0.64"/>
<path class="st1" d="M128.18,91.1c2.22,2.98,3.8,6.44,4.61,10.07c0.56,2.53,0.73,5.25-0.24,7.66c-1.03,2.55-3.21,4.43-5.43,6.06
	c-2.22,1.62-4.59,3.12-6.3,5.27s-2.65,5.18-1.52,7.69"/>
<path class="st2" d="M188.59,29.15c-0.36-1.34-2.22-1.71-3.45-1.08c-1.23,0.64-1.98,1.9-2.75,3.05c-4.9,7.3-12.74,12-20.38,16.35
	c-9.54,5.44-19.47,10.84-30.36,12.23c-1.7,0.22-3.45,0.35-5.01,1.07c-1.56,0.72-2.9,2.22-2.86,3.93"/>
<path class="st2" d="M193.12,18.29c-0.53-2.11-2.24-3.69-3.96-5.02c-12.81-9.86-29.84-12.03-45.99-12.65
	c-5.77-0.22-11.65-0.28-17.21,1.29c-7.96,2.25-14.61,7.63-21.01,12.87C90.54,26.6,75.65,39.02,67.87,55.95
	c-2.56,5.57-4.31,11.56-7.71,16.65c-3.35,5.02-8.26,9.11-10.33,14.79c-1.63,4.47-1.29,9.38-0.93,14.12
	c0.52,6.89,1.05,13.77,1.57,20.66c0.42,5.47,0.07,10.37-0.51,15.82c-0.38,3.59-0.79,7.73,1.71,10.34c0.77,0.8,1.74,1.37,2.63,2.03
	c4.38,3.29,6.41,9.4,4.88,14.66"/>
<path class="st1" d="M56.78,158.74c-3.62,0.69-7.3,1.41-10.54,3.15c-3.25,1.74-6.05,4.69-6.68,8.32"/>
<path class="st2" d="M110.82,99.62c1.98,9.41,5.02,19.3,1.91,28.4c-2.16,6.32-7.21,11.92-6.87,18.58c0.26,5.09,3.67,9.53,4.39,14.58
	c0.62,4.36-0.83,8.7-1.64,13.02c-0.68,3.59-0.93,7.26-0.74,10.91c0.05,1.07,0.16,2.17,0.66,3.11c0.66,1.23,1.9,2,2.97,2.89
	c3.67,3.03,5.72,8.02,4.98,12.72c-0.74,4.71-4.35,8.9-8.97,10.1c-4.61,1.19-9.59-0.49-14.2,0.69"/>
<path class="st1" d="M80.44,95.65c-0.02,4.65-2.7,8.83-5.48,12.57c-2.25,3.03-4.64,5.97-7.14,8.81c-1.76,2-3.61,3.98-4.72,6.4
	c-1.13,2.44-1.43,5.25-0.86,7.87"/>
<path class="st0" d="M82.44,109.47c-1.36,4.92,0.1,10.3,2.87,14.59c2.77,4.29,6.75,7.65,10.8,10.76c0.41,0.31,1.17,0.52,1.3,0.02"/>
<path class="st0" d="M77.69,124.12c0.97,11.23,4.32,22.25,9.76,32.13c0.36,0.65,0.74,1.31,1.29,1.82c0.72,0.66,1.67,1.01,2.5,1.52
	c2.19,1.35,3.48,3.85,3.94,6.39c0.47,2.53,0.22,5.14-0.03,7.71c-0.06,0.61-0.14,1.27-0.53,1.73s-1.24,0.6-1.59,0.1"/>
<path class="st0" d="M71.46,138.95c-0.03,8.49,2.51,16.98,7.19,24.07c3.35,5.07,7.72,9.38,11.28,14.31
	c3.56,4.92,6.37,10.8,5.86,16.85c-0.05,0.62-0.31,1.41-0.94,1.42"/>
<path class="st3" d="M180.24,166.99c2.58,4.46,2.96,9.81,3.22,14.95c0.42,8.31,0.62,16.88-2.32,24.66
	c-3.12,8.26-9.63,14.95-17.21,19.48c-7.26,4.33-14.95,5.94-22.92,8.31c-7.45,2.21-13.94-0.79-20.16-5.34
	c-5.93-4.34-11.17-9.7-17.71-13.04c-1.33-0.68-2.72-1.28-3.88-2.22c-1.73-1.41-2.79-3.47-3.98-5.36c-2.94-4.7-6.95-8.25-11.17-11.75
	c-3.22-2.67-7.26-4.34-9.74-7.91c-2.35-3.37-4.23-7.13-7.2-9.98c-0.89-0.86-1.87-1.62-2.73-2.5c-2.65-2.73-4.02-6.42-6.13-9.59
	c-5.06,2.35-11.59,1.57-16.85,3.46c-3.22,1.16-6.1,3.07-9.02,4.86c-5.94,3.65-12.14,6.88-18.54,9.66
	C6.64,200.51,0.95,217.79,0.5,235.24"/>
<path class="st3" d="M29.48,192.96c4.68,6.76,14.23,8,20.41,13.43c3.13,2.75,5.24,6.46,7.28,10.09c4.06,7.25,8.06,14.54,12,21.86
	c6.06,11.26,12.09,23,13.16,35.74"/>
<path class="st3" d="M182.34,165.87c15.12,1.13,30.06,4.67,44.08,10.43c1.58,0.65,3.17,1.34,4.52,2.39
	c1.86,1.45,3.14,3.49,4.39,5.48c3.03,4.85,6.08,9.72,8.18,15.04c1.56,3.96,2.58,8.12,3.54,12.27c3.21,13.9,5.84,27.92,7.9,42.03"/>
<path class="st0" d="M159.95,187.39c-2.24-10.62-3-21.55-2.26-32.38c0.09-1.36,0.21-2.74,0.59-4.05"/>
<path class="st0" d="M138.87,209.7c0.18-3.1,0.36-6.19,0.54-9.29c0.05-0.8,0.1-1.64,0.52-2.33c0.82-1.36,2.64-1.64,4.23-1.74
	c4.29-0.28,8.6-0.37,12.9-0.25c3.74,0.1,7.78,0.28,10.88-1.81"/>
<path class="st1" d="M110.91,138.05c0.99,3.08,2.91,5.85,5.44,7.86c1.94,1.55,4.2,2.64,6.15,4.18c7,5.54,8.21,17.03,2.51,23.91
	c-1.33,1.6-2.94,2.95-4.21,4.6c-1.04,1.35-1.84,2.92-2.08,4.61c-0.51,3.64,2.01,7.45,5.56,8.41c3.54,0.96,7.64-1.08,9.03-4.48"/>
<path class="st1" d="M124.85,123.76c0.35,3.28,0.29,6.7-0.99,9.74c-1.01,2.41-2.74,4.45-4.4,6.47c-2.33,2.82-4.64,5.77-5.86,9.22
	s-1.18,7.55,0.96,10.52"/>
<path class="st1" d="M116.34,126.92c0.99,6.68-2.78,12.99-5.32,19.25c-3.67,9.01-4.93,18.79-6.16,28.44
	c-0.38,0.3-0.91,0.42-1.38,0.29"/>
<path class="st2" d="M169.72,10c-5.04-0.82-10.14,1.75-13.68,5.42s-5.84,8.33-8.17,12.87c-5.2,10.17-11.64,20.84-22.27,25
	c-5.61,2.19-12.19,2.46-16.78,6.37"/>
<path class="st0" d="M181.77,15.71c-4.75-0.27-9.12,2.8-12.1,6.5c-2.99,3.7-5,8.09-7.76,11.97c-4.5,6.33-11.04,11.19-18.4,13.68"/>
<path class="st1" d="M163.77,18.33c-8.31,4.35-13.4,13.31-15.46,22.46c-0.3,1.31-0.93,2.97-2.28,2.92"/>
<path class="st1" d="M161.51,5.15c-9.19,0.38-16.78,7.4-21.97,15s-8.94,16.26-15.26,22.94c-5.35,5.66-12.43,9.67-20.04,11.34"/>
<path class="st0" d="M141.53,5.75c-3.3,5.76-9.39,9.23-14.9,12.93c-14.56,9.78-27.29,23.97-30.36,41.24"/>
<path class="st1" d="M130.71,8.14c-12.67,4.82-19.97,17.69-28.21,28.46c-9.4,12.3-21.17,22.77-34.48,30.69"/>
<path class="st0" d="M84.04,66.63c-2.64,9.94,1.88,20.25,6.49,29.45c4.62,9.19,9.59,19.12,7.9,29.27"/>
<path class="st0" d="M76.03,69.49c-5.61,8.04-15.85,11.96-21.21,20.17c-3.61,5.52-4.58,12.42-4.12,19c0.05,0.68,0.13,1.4,0.58,1.91
	c0.45,0.51,1.39,0.62,1.75,0.05"/>
<path class="st1" d="M73.82,93.79c-2.07,4.91-4.39,9.71-6.94,14.39c-1.11,2.04-2.29,4.07-3.91,5.73c-2.29,2.36-5.33,3.82-8.23,5.36
	c-10.21,5.43-20.27,13.48-22.56,24.81c-0.25,1.22,0.28,3.08,1.46,2.68"/>
<path class="st1" d="M47.88,132.61c-1.81,1.85-3.94,3.36-5.79,5.16s-3.49,4-3.92,6.55c-0.43,2.55,0.64,5.48,2.98,6.59
	c1.41,0.67,3.04,0.61,4.57,0.93c1.53,0.32,3.15,1.3,3.31,2.86"/>
<path class="st1" d="M41.46,154.44c-0.92,3.55-4.65,5.79-5.73,9.3c-0.74,2.41,0.01,5.22,1.84,6.95c-0.36-0.7-0.72-1.39-1.08-2.09"/>
<path class="st1" d="M44,99.04c-2.7,2.32-5.39,4.65-8.09,6.97c-1.67,1.44-3.4,2.92-5.46,3.7c-0.25,0.1-0.54,0.18-0.79,0.09
	c-0.33-0.12-0.48-0.48-0.61-0.81c-0.28-0.75-0.56-1.5-0.84-2.25"/>
<path class="st1" d="M44.92,103.78c-2.67,3.17-5.46,6.62-5.86,10.75c-0.19,1.94,0.18,3.89,0.2,5.84c0.05,3.69-1.15,7.39-3.36,10.35"
	/>
<path class="st1" d="M46,113.68c-1.17,3.53,0.32,7.41,2.43,10.48s4.84,5.7,6.62,8.96c2.71,4.94,2.98,10.81,3.19,16.44
	c0.04,1.11,0.02,2.37-0.82,3.1"/>
<path class="st0" d="M63.67,141.75c-0.67,2.94,0.8,5.95,2.66,8.32s4.17,4.41,5.64,7.04c2.3,4.11,2.26,9.07,2.17,13.78
	c-0.04,2.05-0.11,4.2-1.08,6"/>
<path class="st1" d="M77.34,175.58c-0.36,1.72,0.92,3.42,2.47,4.24s3.35,1.02,5.06,1.42c1.71,0.4,3.49,1.11,4.44,2.59
	c0.46,0.71,0.68,1.55,0.9,2.37c0.37,1.39,0.74,2.77,1.1,4.16c0.38,1.41,0.75,2.85,0.73,4.32c-0.04,2-0.83,3.91-1.67,5.73
	c-1.03,2.23-2.16,4.41-3.38,6.54"/>
<path class="st0" d="M86.43,134.16c0.63,5.64,5.9,9.4,9.15,14.04c3.7,5.29,4.81,11.92,5.62,18.32c1.58,12.58,2.3,25.67-1.83,37.66"
	/>
<path class="st1" d="M193.15,27.43c3.47,2.33,8.75,1.32,11.11-2.14"/>
<path class="st1" d="M193.7,30.05c2.1,1.78,2.61,4.95,4.75,6.69c0.43,0.35,0.92,0.63,1.28,1.06c0.6,0.71,0.73,1.68,0.83,2.6
	c0.22,1.9,0.44,3.79,0.67,5.69"/>
<path class="st2" d="M186.2,32.39c5.44,2.55,9.24,7.81,11.32,13.45c2.08,5.64,2.66,11.7,3.22,17.69c0.17,1.81,0.34,3.64,0.14,5.45
	c-0.2,1.82-0.77,3.57-1.19,5.35c-0.9,3.76-1.19,7.67-0.83,11.52"/>
<path class="st0" d="M159.67,66.94c5.27-2.47,11.63-2.51,16.93-0.08"/>
<path class="st0" d="M160.83,68.95c2.76-0.61,5.54,0.64,8.15,1.72s5.63,2,8.18,0.78"/>
<path class="st1" d="M173.56,66.59c-0.99-0.01-2.02,0.01-2.91,0.45c-0.89,0.44-1.6,1.41-1.4,2.39c0.08,0.41,0.32,0.78,0.61,1.08
	c1.31,1.36,3.95,1.08,4.84-0.59c0.89-1.67-0.5-4.09-2.39-4.06"/>
<path class="st1" d="M176.97,65.05c-0.5-1.18-1.38-2.19-2.47-2.86"/>
<path class="st1" d="M169.4,59.33c1.71-0.23,3.46-0.46,5.16-0.15c3.76,0.68,6.54,3.81,9.87,5.68c0.22,0.12,0.46,0.25,0.71,0.21
	c0.35-0.04,0.6-0.38,0.74-0.7c0.84-1.88-0.25-4.18-1.94-5.35c-1.7-1.17-3.83-1.46-5.88-1.65c-2.82-0.25-5.66-0.35-8.5-0.3
	c-0.81,0.02-1.64,0.04-2.43,0.25c-0.66,0.17-1.28,0.46-1.89,0.75c-1.26,0.59-2.58,0.9-3.16,2.1C164.48,60.18,167,59.66,169.4,59.33z
	"/>
<path class="st1" d="M194.54,69.05c-0.72,0.42-1.11,1.32-0.94,2.14c0.17,0.81,0.9,1.48,1.73,1.57c2,0.23,3.37-2.46,5.38-2.38"/>
<path class="st1" d="M194.55,68.01c1.88-0.62,3.88-0.88,5.86-0.77"/>
<path class="st2" d="M112.45,74.6c0.07,1.66,0.15,3.33,0.22,4.99c0.05,1.2,0.16,2.54,1.05,3.36c0.71,0.66,1.91,1,2.03,1.97"/>
<path class="st0" d="M108.61,78.13c-1.04,0.14-1.47,1.46-1.32,2.49c0.24,1.61,1.37,3.06,2.88,3.67c1.26,0.51,2.94,0.65,3.43,1.92"/>
<path class="st0" d="M108.03,75.24c-0.36-0.76-1.34-1.02-2.18-0.91c-0.84,0.11-1.62,0.48-2.45,0.62c-0.83,0.14-1.82-0.03-2.26-0.75"
	/>
<path class="st0" d="M131.81,206.66c-1.33-0.47-2.38-1.66-2.69-3.03"/>
<path class="st0" d="M195.26,119.43c5.87,11.53,6.82,25.46,2.57,37.68c-0.82,2.36-1.84,4.71-1.93,7.21
	c-0.09,2.5,1.02,5.24,3.32,6.21"/>
<path class="st0" d="M189.18,140.5c2.13,3.32-0.35,7.71-3.34,10.28c-2.99,2.57-6.75,4.72-8.03,8.45c-1.03,3.02-0.15,6.31,0.73,9.38
	c1.3,4.49,2.59,8.98,3.89,13.47c1.06,3.68,2.28,7.6,5.29,9.96c4.02,3.17,10.57,3.01,13.11,7.45c1.65,2.9,0.72,6.72-1.36,9.33
	c-2.08,2.61-5.08,4.28-8.01,5.88c-0.34-1.78-0.68-3.55-1.02-5.33"/>
<path class="st0" d="M189.38,158.48c-2.77,6.6-0.77,14.89,4.7,19.52c1.93,1.63,4.21,2.82,6.02,4.59c1.81,1.76,3.12,4.39,2.35,6.8"/>
<path class="st0" d="M169.94,153.54c-6.82,7.61-7.03,20.28-0.47,28.11c2.7,3.22,6.28,5.58,9.22,8.58c2.94,3,5.33,7.06,4.65,11.21
	c-0.42,2.59-2.65,5.21-5.25,4.76"/>
<path class="st0" d="M202.13,146.76c1.32,6.01,2.63,12.03,3.95,18.04c0.66,3,2.29,6.75,5.34,6.43"/>
<path class="st1" d="M193.47,23.59c1.74,0.53,3.8-0.25,4.74-1.81"/>
<path class="st1" d="M187.35,102.25c-0.29,0.82-0.35,1.71-0.19,2.56"/>
</svg>
