<?xml version="1.0" encoding="utf-8"?>
<!-- Generator: Adobe Illustrator 23.0.1, SVG Export Plug-In . SVG Version: 6.00 Build 0)  -->
<svg version="1.1" id="Calque_1" xmlns="http://www.w3.org/2000/svg" xmlns:xlink="http://www.w3.org/1999/xlink" x="0px" y="0px"
	 viewBox="0 0 1200 3567.8" style="enable-background:new 0 0 1200 3567.8;" xml:space="preserve">
<style type="text/css">
	.st0{fill:none;stroke:#939598;stroke-miterlimit:10;}
	.st1{fill:none;stroke:#939598;stroke-width:0.5;stroke-miterlimit:10;}
	.st2{fill:none;stroke:#939598;stroke-width:0.75;stroke-miterlimit:10;}
	.st3{fill:none;stroke:#BF4B24;stroke-miterlimit:10;}
	.st4{fill:none;stroke:#939598;stroke-width:2;stroke-miterlimit:10;}
	.st5{fill:none;}
	.st6{fill:#707071;}
	.st7{font-family:'Futura-Medium';}
	.st8{font-size:15px;}
	.st9{fill:#A31A23;}
	.st10{font-size:100px;}
	.st11{font-size:25px;}
	.st12{font-size:30px;}
	.st13{stroke:#000000;stroke-width:2;stroke-miterlimit:10;}
	.st14{fill:none;stroke:#A31A23;stroke-width:2;stroke-miterlimit:10;}
	.st15{fill:none;stroke:#000000;stroke-width:2;stroke-miterlimit:10;}
	.st16{font-family:'Futura-MediumItalic';}
</style>
<g>
	<path class="st0" d="M133.2,994.02c4.24,25.14,13.95,50.2,32.28,67.92c3.48,3.36,7.24,6.45,10.38,10.13
		c3.49,4.09,6.14,8.85,9.64,12.92c4.21,4.89,9.54,8.68,15.02,12.1c7.96,4.96,16.62,9.31,25.96,10.09
		c9.34,0.78,19.51-2.68,24.6-10.55c1.54-2.38,2.56-5.04,3.63-7.66c7.2-17.59,17.04-33.98,24.61-51.41
		c7.57-17.43,12.88-36.53,10.25-55.35c-0.83-5.93-2.43-11.74-2.92-17.71c-0.66-7.98,0.7-15.98,0.72-23.98
		c0.04-18.85-7.27-36.87-14.71-54.19"/>
	<path class="st1" d="M260.19,1019.17c1.5,3.29,3.36,6.44,4.45,9.89c1.09,3.45,1.35,7.36-0.32,10.57"/>
	<path class="st1" d="M213.73,1012.74c-0.68,2.11-3.01,3.09-4.72,4.49c-1.86,1.53-3.06,3.71-4.52,5.62
		c-2.93,3.84-6.95,6.69-10.08,10.36c-3.13,3.67-5.35,8.78-3.65,13.29"/>
	<path class="st0" d="M280.85,963.46c-1.58-3.3-5.01-5.5-8.61-6.13c-3.61-0.63-7.35,0.17-10.69,1.68c-4.32,1.96-8.2,5.27-9.97,9.68
		c2.09,0.96,5.2,1.82,7.33,0.95c1.13-0.46,2.18-1.17,3.39-1.34c0.91-0.13,1.83,0.05,2.74,0.23c1.24,0.25,2.48,0.49,3.72,0.74
		c2.16,0.43,4.34,0.86,6.53,0.7c2.19-0.16,4.43-0.99,5.82-2.69"/>
	<path class="st2" d="M165.51,946.15c3.7-2.84,7.6-5.77,12.19-6.55c2.06-0.35,4.16-0.25,6.24-0.15c7.58,0.37,15.16,0.73,22.74,1.1
		c2.65,0.13,5.36,0.27,7.79,1.34c2.43,1.07,4.54,3.27,4.7,5.92c-5.2-1.56-11.82,0.37-17.17-0.5c-3.92-0.64-7.55-2.43-11.4-3.42
		C182.66,941.84,173.57,944.65,165.51,946.15z"/>
	<path class="st0" d="M175.48,966.24c4.44,0.8,8.87,1.6,13.31,2.4c6.37,1.15,14.39,0.96,20.32-1.64c-0.93-3.93-4.57-6.67-8.33-8.12
		c-9.27-3.56-20.62-0.74-27.13,6.75"/>
	<path class="st1" d="M212.71,961.93c-2.04-4.76-7.21-7.59-12.35-8.26c-5.14-0.67-10.32,0.47-15.37,1.63
		c-4.04,0.93-8.47,2.14-10.74,5.62"/>
	<path class="st2" d="M196.92,958.25c1.37,1.4,1.97,3.51,1.53,5.42c-0.44,1.91-1.9,3.55-3.74,4.21c-1.51,0.54-3.16,0.44-4.75,0.27
		c-2.6-0.28-5.51-0.96-6.83-3.22c-1.33-2.27-0.16-5.61,2.3-6.55"/>
	<path class="st2" d="M193.99,961.99c-0.13-0.84-0.8-1.57-1.62-1.78c-0.53-0.13-1.09-0.06-1.63,0.06c-0.61,0.13-1.23,0.34-1.64,0.81
		c-0.75,0.87-0.32,2.37,0.67,2.94c1,0.57,2.31,0.33,3.24-0.35c0.68-0.5,1.18-1.59,0.52-2.13"/>
	<path class="st2" d="M255.5,964.38c0.9,1.84,2.87,2.99,4.89,3.32c2.02,0.33,4.09-0.07,6.05-0.68c1.21-0.38,2.45-0.87,3.27-1.83
		c0.9-1.05,1.17-2.54,1.03-3.92c-0.14-1.38-0.65-2.69-1.16-3.99"/>
	<path class="st2" d="M263.17,961.44c-0.57,0.01-1.15,0.03-1.72,0.04c-0.11,0.78,0.01,1.63,0.52,2.23c0.51,0.6,1.47,0.85,2.11,0.39
		c0.34-0.64,0.46-1.41,0.32-2.12c-0.34,0.01-0.69-0.09-0.97-0.28"/>
	<path class="st1" d="M251.65,963.51c3.98-3.51,8.16-7.13,13.29-8.48c3.73-0.98,7.7-0.66,11.42,0.36c1.01,0.28,2.03,0.62,2.9,1.22
		c1.91,1.32,2.76,3.68,3.51,5.88"/>
	<path class="st2" d="M287.31,944.79c-9.87-0.71-18.95,7.19-28.74,5.79c2.02-2.43,5.25-4.57,8.31-5.67c3.06-1.1,6.3-1.66,9.52-2.22
		c3.18-0.55,6.36-1.1,9.54-1.66C286.68,940.91,287.12,944.1,287.31,944.79z"/>
	<g>
		<g>
			<path class="st3" d="M196.82,1041.88c11.67,5.83,23.71,11.77,36.72,12.82c4.13,0.33,8.5,0.1,12.04-2.05
				c1.77-1.08,3.23-2.58,4.68-4.06c3.08-3.16,6.16-6.33,9.24-9.49"/>
			<path class="st3" d="M197.49,1044.79c3.72,1.14,6.5,4.15,9.43,6.71c8.9,7.77,20.76,12.06,32.57,11.79
				c2.09-0.05,4.21-0.24,6.13-1.05c4.13-1.74,6.59-5.96,8.43-10.04c1.84-4.08,3.47-8.48,6.84-11.43"/>
			<path class="st3" d="M259.8,1037.13c-4.71-1.65-9.73-3.33-14.59-2.21c-2.32,0.54-4.51,1.7-6.89,1.85
				c-1.59,0.11-3.16-0.25-4.74-0.44c-4.47-0.56-9,0.09-13.46,0.74c-7.51,1.09-15.09,2.79-22.6,3.88c3.97-0.25,7.95-0.5,11.92-0.75
				c2.18-0.14,4.37-0.27,6.55-0.15c2.87,0.16,5.7,0.75,8.55,1.13c10.63,1.42,21.4-0.15,32.01-1.71"/>
		</g>
	</g>
	<path class="st1" d="M217.7,1079.39c8.84-3.53,18.75-4.34,28.05-2.29"/>
	<path class="st0" d="M291.63,884.25c7.35,7.02,11.51,16.7,14.86,26.3c7.57,21.66,12.04,44.41,13.24,67.33
		c0.61,11.71,0.38,23.52,2.52,35.04c1.46,7.84,4.01,15.92,1.86,23.6c-2.05,7.31-7.98,12.81-11.48,19.54
		c-5.62,10.8-4.53,23.93-1.02,35.59c3.5,11.66,9.22,22.56,12.71,34.22c10.31,34.43,0.69,73.41,15.63,106.09
		c1.46,3.2,3.18,6.4,3.46,9.91c0.67,8.27-6.48,14.78-12.49,20.5s-11.85,14.26-8.17,21.7"/>
	<path class="st0" d="M167.53,932.81c-0.63,15.71-14.02,27.73-27.37,36.05c-13.34,8.32-28.4,15.61-36.46,29.1
		c-7.4,12.39-7.4,28.25-2.45,41.81c4.95,13.56,14.35,25.07,24.85,34.97c6.35,5.99,13.29,11.65,17.54,19.27
		c4.25,7.62,5.14,17.95-0.56,24.56"/>
	<path class="st0" d="M174.49,933.08c-11.8,11.5-15.8,29-26.59,41.45c-10.31,11.9-25.88,18.12-36.64,29.61
		c-3.22,3.44-6.03,7.44-7.1,12.03c-1.07,4.59-0.15,9.83,3.22,13.13"/>
	<path class="st0" d="M133.36,994.01c-10.19,18.37-6.19,43.46,9.21,57.74c4.47,4.14,9.87,7.59,12.7,12.98
		c-5.28-2.6-10.55-5.2-15.83-7.8"/>
	<path class="st0" d="M112.48,1014.46c2.41,12.66,7.96,24.48,13.46,36.14c1.52,3.23,3.09,6.53,5.56,9.11
		c3.1,3.23,7.34,5.05,11.24,7.24c13.75,7.72,24.7,22.64,22.88,38.31"/>
	<path class="st0" d="M212.54,1103.42c-5.65,3.09-10.14,8.23-12.45,14.23"/>
	<path class="st0" d="M162.12,1089.69c11.01,6.41,20.48,15.09,29.86,23.71c4.76,4.37,9.78,9.19,11,15.54
		c1.52,7.85-3.2,15.42-7.72,22.02c-3.36,4.9-6.87,9.94-11.89,13.12c-4.34,2.74-9.57,3.94-13.64,7.06
		c-4.07,3.12-6.51,9.54-3.03,13.32"/>
	<path class="st0" d="M170.79,1106.19c-1.67,11.22-3.34,22.68-1.32,33.83s8.44,22.16,18.84,26.68c5.98,2.6,12.8,2.9,18.64,5.8
		c12.08,6,16.36,20.86,18.64,34.16c4.8,27.97,6.32,56.5,4.52,84.82"/>
	<path class="st0" d="M170.27,935.18c-11.59,6-26.56-1.93-38.49,3.35c-4.71,2.08-8.32,5.99-11.79,9.79
		c-8.32,9.11-16.64,18.22-24.96,27.33c-3.01,3.3-6.08,6.68-7.82,10.8c-1.97,4.67-2.08,9.87-2.68,14.9
		c-2.66,22.26-16.17,42.97-35.48,54.37c-9.81,5.79-22.17,10.67-25.11,21.68"/>
	<path class="st0" d="M94.17,1012.6c-6.22,26.68-29.06,47.45-54.96,56.36c-3.84,1.32-7.85,2.47-11.01,5.01
		c-3.16,2.54-5.26,6.94-3.77,10.72"/>
	<path class="st0" d="M91.77,1048.24c-4.56,9.37-10.72,17.97-18.12,25.3c-6.5,6.45-14.05,12.04-19.04,19.71s-6.83,18.45-1.27,25.73"
		/>
	<path class="st0" d="M105.72,1069.61c-3.91,6-6.41,12.91-7.24,20.02c-0.32,2.76-0.38,5.62,0.56,8.23c1.01,2.81,3.09,5.08,5.25,7.14
		c4.44,4.25,9.42,7.94,14.78,10.95c8.37,4.7,17.73,7.8,25.22,13.81s12.81,16.35,9.18,25.24"/>
	<path class="st0" d="M121.93,1082.21c-2.47,3.31-2.08,8.08-0.16,11.72c1.92,3.65,5.13,6.42,8.25,9.11
		c6.34,5.44,12.77,10.95,20.32,14.53c3.42,1.62,7.12,2.87,9.95,5.38c3.36,2.97,5.1,7.34,6.36,11.64c2.7,9.22,3.7,18.93,2.94,28.51"
		/>
	<path class="st0" d="M160.61,1174.34c7.45-0.14,15.05,0.55,21.9,3.47c6.85,2.92,12.91,8.3,15.35,15.33
		c4.78,13.77-5.08,28.5-4.04,43.04"/>
	<path class="st4" d="M61.79,1107.47c9.25,1.11,18.5,2.22,27.75,3.34c4.22,0.51,8.54,1.04,12.36,2.93c3.22,1.59,5.91,4.05,8.5,6.53
		c24.01,22.93,44.11,49.96,59.17,79.55c3.53,6.95,6.79,14.03,10.05,21.11"/>
	<path class="st2" d="M320.2,1056.06c1.66,8.46,9.43,14.44,12.32,22.56c1.38,3.87,1.58,8.05,1.52,12.16
		c-0.21,14.15-3.45,28.24-9.44,41.06"/>
	<path class="st0" d="M312.69,1070.82c7.94,9.77,10.3,23.78,5.99,35.61c-3.04,8.36-8.99,15.3-13.27,23.1
		c-9.75,17.78-10.18,40.36-1.11,58.5"/>
	<path class="st0" d="M302.95,1010.21c-7.82,25.59-15.69,51.46-17.42,78.16c-2.01,31.09,4.38,62.04,11.01,92.48
		c2.81,12.9,5.68,26.05,4.44,39.2c-1.24,13.15-7.32,26.54-18.67,33.28"/>
	<path class="st0" d="M267.75,1091.67c-7.33,51.46-13.82,105.71,5.48,153.98c5.06,12.67,11.76,27.41,4.64,39.05
		c-3.76,6.15-10.76,9.74-17.85,11.04"/>
	<path class="st0" d="M230.33,1119.26c2.62,15.52-1.12,31.33-1.69,47.06c-0.8,21.94,4.75,44.07,15.78,63.05"/>
	<path class="st0" d="M178.71,1134.12c-0.51,1.97-1.02,3.95-1.53,5.92c13.55-2.15,26.83,7.24,33.57,19.19
		c6.74,11.95,8.35,26.02,9.84,39.67c2.05,18.83,4.1,37.67,6.14,56.5"/>
	<path class="st0" d="M309.47,1179.19c3.19,19.39,2.91,39.34-0.81,58.63c-2.84,14.76-10.44,22.94-19.19,34.63"/>
	<path class="st0" d="M295.41,906.92c9.86,20.89,17.41,56.42,11.97,79.35c-2.43,10.22-8.37,20.09-11.44,30.32
		c-4.58,15.23-9.16,30.46-13.74,45.69c-10.68,35.51-21.38,73.65-10.19,109"/>
	<path class="st0" d="M255.66,1134.32c-4.07,16.28-7.08,33.23-4.33,49.79c2.74,16.55,12.14,32.78,27.31,39.96"/>
	<path class="st0" d="M138.36,954.17c-14.92,5.62-26.27,17.75-37.06,29.49c-10.29,11.2-21.31,24.53-19.41,39.62
		c0.36,2.89,1.19,5.94,0.04,8.61c-0.92,2.14-2.93,3.58-4.85,4.9c-5.74,3.97-11.48,7.94-17.22,11.91"/>
	<path class="st4" d="M45.77,1159.51c13.89-6.64,28.06-13.37,43.49-15.93c15.43-2.56,32.61-0.34,44.31,9.2
		c6.22,5.07,10.49,11.84,13.77,18.84c11.01,23.49,11.63,49.78,12.1,75.32"/>
	<path class="st0" d="M239.64,877.23c-11.22,14.58-25.5,26.8-41.64,35.65c-12.03,6.59-26.05,12.26-32.07,24.58"/>
	<path class="st0" d="M242.69,863.58c-0.41-4.06-4.53-6.53-8.17-8.36c-11.18-5.6-22.87-11.33-35.37-11.35"/>
	<path class="st0" d="M182.7,846.61c-15.57,6.16-30.6,13.67-44.87,22.41c-7.97,4.88-15.8,10.22-22.05,17.17
		c-4.69,5.21-8.39,11.22-11.95,17.26c-7.13,12.08-13.79,24.44-19.96,37.03c-13.88,28.32-25.52,60.16-18.37,90.88"/>
	<path class="st0" d="M251.73,860.97c19.73,1.7,37.69,16.43,43.22,35.44"/>
	<path class="st0" d="M249.72,861.56c-0.23-17.38-15.82-30.93-32.06-37.12c-31.93-12.19-69.46-4.31-97.07,15.83
		s-45.96,51.17-55.62,83.96s-11.28,67.41-10.38,101.58c0.43,16.57,1.47,33.28,5.97,49.23"/>
	<path class="st0" d="M217.05,861.35c-6.77-0.7-12.54,5.12-15.47,11.27c-2.94,6.14-4.25,13.09-8.12,18.69
		c-9.15,13.24-27.92,13.89-43.62,17.42c-32.45,7.29-59.91,33.48-68.72,65.55"/>
	<path class="st0" d="M190.29,853.96c-28.77,9.73-53.25,31.51-66.25,58.95"/>
	<path class="st0" d="M247.4,872.31c9.74,8.48,19.09,17.73,27.99,27.68c5.42,6.07,10.77,12.54,14.24,20.7
		c2.98,7.01,4.45,14.92,5.82,22.74c1.82,10.4,3.53,20.82,5.13,31.28"/>
	<path class="st0" d="M242.1,845.35c14.45,0.12,30.32,0.77,41.02,10.48c7.11,6.46,10.65,15.87,13.68,24.98
		c8.01,24.06,14.21,48.73,18.54,73.72"/>
	<path class="st0" d="M234.76,842.01c-0.08-9.43-8.76-17.01-17.97-19.06c-9.2-2.05-18.76,0.14-27.91,2.42
		c-34.31,8.57-71.28,20.88-89.95,50.92c-10.41,16.75-13.61,36.85-16.59,56.35c-1.13,7.38-2.26,14.77-3.38,22.15"/>
	<path class="st0" d="M214.95,851.45c-37.94,6.25-71.45,34.45-84.08,70.77"/>
	<path class="st2" d="M193.11,836.07c-7.24-10.91-20.27-17.72-33.35-17.43c-13.09,0.28-25.81,7.65-32.57,18.86"/>
	<path class="st0" d="M236.5,836.58c14.05-4.98,30.66-1.88,41.96,7.84c11.3,9.72,16.86,25.67,14.04,40.31"/>
	<path class="st0" d="M220.6,999.82c-2.59,0.79-5.53,1.97-6.29,4.57c-0.9,3.07,1.77,5.92,4.2,8c1.62,1.39,3.35,2.83,5.46,3.14
		c2.42,0.35,4.83-0.89,7.27-0.72c2.96,0.21,5.39,2.43,7.15,4.81c0.59,0.79,1.17,1.65,2.06,2.07c0.7,0.33,1.5,0.33,2.28,0.3
		c3.97-0.17,8.22-1.5,10.41-4.81c0.94-1.41,1.45-3.12,2.66-4.32c0.66-0.65,1.51-1.12,2.09-1.84c0.86-1.06,1.04-2.52,0.96-3.88
		c-0.23-3.99-2.52-7.8-5.93-9.88"/>
	<path class="st1" d="M226.55,1017.19c2.57,1.35,5.41,2.2,8.3,2.47"/>
	<path class="st0" d="M253.1,1008.87c-1.41-11.18-2.84-22.47-6.73-33.05c-1.15-3.11-2.52-6.24-2.58-9.56
		c-0.08-4.36,2.14-8.49,5.08-11.72"/>
	<path class="st1" d="M241.8,1015.76c2.75,0.16,5.53-0.16,8.17-0.94"/>
	<path class="st1" d="M223.34,966.1c0.17,1.47,1.1,2.72,1.75,4.05c1.97,4.04,1.28,8.86,0.04,13.18"/>
</g>
<rect x="437.89" y="1641.64" class="st5" width="640.14" height="85.31"/>
<text transform="matrix(1 0 0 1 437.8886 1654.0139)"><tspan x="0" y="0" class="st6 st7 st8"> Je veux partager mes recherches, continuer de collaborer avec d’autres, enrichir mes </tspan><tspan x="0" y="18" class="st6 st7 st8">propos, pouvoir échanger. Le format web est idéal pour cela. Mes recherches seront alors </tspan><tspan x="0" y="36" class="st6 st7 st8">partagées avec toutes personnes s’intéressant à mon sujet. C’est pour cela que j’ai la volonté </tspan><tspan x="0" y="54" class="st6 st7 st8">d’être didactique dans mes propos. J’ai voulu le rendre vivant, interactif.</tspan></text>
<rect x="368.23" y="833.99" class="st5" width="679.24" height="110.08"/>
<text transform="matrix(1 0 0 1 368.2263 846.361)"><tspan x="0" y="0" class="st6 st7 st8">Je vous invite à découvrir mon parcours, mes expériences et mes recherches. Mon mémoire est un </tspan><tspan x="0" y="18" class="st6 st7 st8">endroit dans lequel je vous parle de mes propres recherches liées à la matière textile. Cette matière </tspan><tspan x="0" y="36" class="st6 st7 st8">me fascine depuis que je suis petite. J’ai toujours était en contacte avec cette matière. Chez moi, il y </tspan><tspan x="0" y="54" class="st6 st7 st8">en avait partout, tapis, rideaux, coussins, revêtement mobilier, ainsi que les caisses de tissus que ma </tspan><tspan x="0" y="72" class="st6 st7 st8">maman stock pour coudre. Elle récupère rubans, boutons, fils à broder, cordons, tout ce qui pour</tspan><tspan x="660.92" y="72" class="st6 st7 st8">-</tspan><tspan x="0" y="90" class="st6 st7 st8">rait lui servir pour bricoler. </tspan></text>
<rect x="377.77" y="980.08" class="st5" width="324.65" height="313.98"/>
<text transform="matrix(1 0 0 1 377.766 992.4457)"><tspan x="0" y="0" class="st6 st7 st8">Ma mère coud et tricote énormément. Elle a </tspan><tspan x="0" y="18" class="st6 st7 st8">commencé quand elle était au lycée, ma </tspan><tspan x="0" y="36" class="st6 st7 st8">grand-mère tricoter et cousait également. Elle a </tspan><tspan x="0" y="54" class="st6 st7 st8">aussi tenu une mercerie durant quelques </tspan><tspan x="0" y="72" class="st6 st7 st8">années. Quand j’étais petite, je m’amusais à </tspan><tspan x="0" y="90" class="st6 st7 st8">imiter ma maman, je lui piquais ses aiguilles, </tspan><tspan x="0" y="108" class="st6 st7 st8">tissus, fils, laine et j’essayais de refaire la même </tspan><tspan x="0" y="126" class="st6 st7 st8">chose. En grandissant je me suis beaucoup </tspan><tspan x="0" y="144" class="st6 st7 st8">rapprochée d’elle grâce à cette pratique. Un </tspan><tspan x="0" y="162" class="st6 st7 st8">moment d’intimité de confidences, de confiance </tspan><tspan x="0" y="180" class="st6 st7 st8">se crée autour de ces moments-là. Elle m’a </tspan><tspan x="0" y="198" class="st6 st7 st8">appris beaucoup de choses. J’ai d’abord trico</tspan><tspan x="313.66" y="198" class="st6 st7 st8">-</tspan><tspan x="0" y="216" class="st6 st7 st8">té, écharpes, bonnets, pulls, gilets.. Puis la cou</tspan><tspan x="316" y="216" class="st6 st7 st8">-</tspan><tspan x="0" y="234" class="st6 st7 st8">ture s’est ajoutée à ça.</tspan></text>
<rect x="746.97" y="975.07" class="st5" width="289.51" height="379.39"/>
<text transform="matrix(1 0 0 1 746.9745 987.4404)"><tspan x="0" y="0" class="st6 st7 st8">Nous bricolons beaucoup de petites déco</tspan><tspan x="282.81" y="0" class="st6 st7 st8">-</tspan><tspan x="0" y="18" class="st6 st7 st8">rations, ou bien nous confectionnons nos </tspan><tspan x="0" y="36" class="st6 st7 st8">vêtements, hauts, robes, jupes, shorts, </tspan><tspan x="0" y="54" class="st6 st7 st8">pyjamas, mais aussi parures de lit, cous</tspan><tspan x="268.67" y="54" class="st6 st7 st8">-</tspan><tspan x="0" y="72" class="st6 st7 st8">sins, plaids… Tout ce que nous pouvons. </tspan><tspan x="0" y="90" class="st6 st7 st8">C’est un moment que je passe seulement </tspan><tspan x="0" y="108" class="st6 st7 st8">avec elle. Je ne couds pas, du moins pour </tspan><tspan x="0" y="126" class="st6 st7 st8">le moment sans elle à mes côtés.Je pense </tspan><tspan x="0" y="144" class="st6 st7 st8">que ce lien avec ma mère est très lié au </tspan><tspan x="0" y="162" class="st6 st7 st8">fait que j’utilise ces techniques et cette </tspan><tspan x="0" y="180" class="st6 st7 st8">matière dans mon travail. Ainsi que l’inté</tspan><tspan x="278.77" y="180" class="st6 st7 st8">-</tspan><tspan x="0" y="198" class="st6 st7 st8">rêt que je lui porte. Je trouve le textile très </tspan><tspan x="0" y="216" class="st6 st7 st8">riche. Que ce soient les couleurs, motifs, </tspan><tspan x="0" y="234" class="st6 st7 st8">points, textures, épaisseurs, rigidités, sou</tspan><tspan x="277.15" y="234" class="st6 st7 st8">-</tspan><tspan x="0" y="252" class="st6 st7 st8">plesses… Ou bien les utilisations que nous </tspan><tspan x="0" y="270" class="st6 st7 st8">pouvons en faire... </tspan></text>
<rect x="173.42" y="1369.15" class="st5" width="526.72" height="241.41"/>
<text transform="matrix(1 0 0 1 173.4163 1381.5195)"><tspan x="0" y="0" class="st6 st7 st8">Ce mémoire est pour moi l’occasion d’écrire sur les étapes de réflexion que </tspan><tspan x="0" y="18" class="st6 st7 st8">j’ai pu avoir. Les chemins, les choix que j’ai pu faire. Je vois ce travail de </tspan><tspan x="0" y="36" class="st6 st7 st8">décrire comme un écrit personnel. C’est dans une optique de transition que </tspan><tspan x="0" y="54" class="st6 st7 st8">j’ai écrit ce mémoire. Je le vois comme un tremplin entre ma vie d’étudiante </tspan><tspan x="0" y="72" class="st6 st7 st8">dans une École des Beaux-Arts et la vie professionnelle que je souhaite avoir. </tspan><tspan x="0" y="90" class="st6 st7 st8">Les recherches que j’ai débutées commencent à se concrétiser en un projet. </tspan><tspan x="0" y="108" class="st6 st7 st8">Je profite de l’école pour tâtonner, chercher et expérimenter ce que je peux </tspan><tspan x="0" y="126" class="st6 st7 st8">faire de ces recherches. Je compte bien les continuer à la sortie de l’école. </tspan><tspan x="0" y="144" class="st6 st7 st8">Poursuivre mes réflexions, les concrétiser en projets. Continuer de collaborer </tspan><tspan x="0" y="162" class="st6 st7 st8">avec d’autres personnes et voir si ce projet peut aboutir. Je pense que le </tspan><tspan x="0" y="180" class="st6 st7 st8">mémoire est un bon moyen de regrouper nos démarches, et prendre du recul </tspan><tspan x="0" y="198" class="st6 st7 st8">sur ce que l’on a fait jusqu’ici. L’enrichir avec des recherches faîte en paral</tspan><tspan x="509.3" y="198" class="st6 st7 st8">-</tspan><tspan x="0" y="216" class="st6 st7 st8">lèle de son écriture et pouvoir s’en resservir comme transition. </tspan></text>
<rect x="746.97" y="1367.28" class="st5" width="327.63" height="243.28"/>
<text transform="matrix(1 0 0 1 746.9746 1379.6473)"><tspan x="0" y="0" class="st6 st7 st8">J’ai choisi le format web pour transposer mes </tspan><tspan x="0" y="18" class="st6 st7 st8">recherches. Ce format me laisse une grande </tspan><tspan x="0" y="36" class="st6 st7 st8">liberté de contenu. Je veux faire connaître le </tspan><tspan x="0" y="54" class="st6 st7 st8">milieu industriel du textile. Montrer sa diversité </tspan><tspan x="0" y="72" class="st6 st7 st8">et ses possibilités d’innovations. L’enjeu est de </tspan><tspan x="0" y="90" class="st6 st7 st8">faire découvrir ce milieu, car nous avons une </tspan><tspan x="0" y="108" class="st6 st7 st8">image plutôt désuète du textile. Les napperons, </tspan><tspan x="0" y="126" class="st6 st7 st8">les tricots de grand-mère... La conviction que le </tspan><tspan x="0" y="144" class="st6 st7 st8">textile est un nid à microbe, sale, difficile d’en</tspan><tspan x="312.25" y="144" class="st6 st7 st8">-</tspan><tspan x="0" y="162" class="st6 st7 st8">tretien, has been. Alors que nous trouvons </tspan><tspan x="0" y="180" class="st6 st7 st8">beaucoup d’innovations techniques nous offrant </tspan><tspan x="0" y="198" class="st6 st7 st8">la possibilité de revoir complètement cette </tspan><tspan x="0" y="216" class="st6 st7 st8">image. </tspan></text>
<rect x="456.58" y="152.11" class="st5" width="492.86" height="184.46"/>
<text transform="matrix(1 0 0 1 456.5816 234.5762)" class="st9 st7 st10">FIBRE(S)</text>
<rect x="827.12" y="615.24" class="st5" width="224" height="31.66"/>
<text transform="matrix(1 0 0 1 827.1239 635.8618)" class="st6 st7 st11">Juliette Pointereau</text>
<rect x="139.66" y="506.01" class="st5" width="204.63" height="40.31"/>
<text transform="matrix(1 0 0 1 207.251 518.3766)" class="st6 st7 st8">Beaux-Arts du Mans</text>
<rect x="139.46" y="531.97" class="st5" width="207.02" height="28.68"/>
<text transform="matrix(1 0 0 1 166.731 544.3436)" class="st6 st7 st8">Design d’espace de la cité</text>
<rect x="198.52" y="560.65" class="st5" width="146.07" height="35.1"/>
<text transform="matrix(1 0 0 1 218.4774 573.0251)" class="st6 st7 st8">Année 2018-2019</text>
<rect x="618.32" y="316.78" class="st5" width="432.81" height="43.81"/>
<text transform="matrix(1 0 0 1 618.3182 341.5248)" class="st6 st7 st12">Partages et expérimentations</text>
<line class="st13" x1="149.34" y1="2245.87" x2="1029.3" y2="2245.87"/>
<line class="st14" x1="604.88" y1="2197.87" x2="606.73" y2="1858.26"/>
<line class="st13" x1="97.04" y1="1924.57" x2="1140.85" y2="1927.3"/>
<line class="st14" x1="886.09" y1="2278.72" x2="886.09" y2="2569.87"/>
<line class="st13" x1="114.77" y1="2245.87" x2="961.09" y2="2245.87"/>
<line class="st13" x1="425.51" y1="2331.77" x2="1011.61" y2="2331.77"/>
<line class="st14" x1="298.93" y1="2278.72" x2="298.93" y2="2626.08"/>
<line class="st13" x1="61.72" y1="2579.35" x2="718.56" y2="2579.35"/>
<line class="st14" x1="606.14" y1="2278.72" x2="606.14" y2="3362.5"/>
<line class="st13" x1="536.67" y1="2694.61" x2="1077.3" y2="2694.61"/>
<line class="st14" x1="1049.51" y1="3003.77" x2="1049.51" y2="3485.1"/>
<line class="st14" x1="139.07" y1="2955.77" x2="139.07" y2="3567.8"/>
<line class="st13" x1="61.72" y1="3052.48" x2="1150.56" y2="3052.48"/>
<line class="st13" x1="298.93" y1="3426.92" x2="1163.62" y2="3426.92"/>
<line class="st14" x1="358.12" y1="124.4" x2="358.12" y2="1291.99"/>
<line class="st15" x1="78.21" y1="594.3" x2="1139.26" y2="594.3"/>
<line class="st15" x1="246.14" y1="272.93" x2="971.34" y2="272.93"/>
<line class="st14" x1="1065.37" y1="124.4" x2="1065.37" y2="1081.31"/>
<line class="st15" x1="175.53" y1="1336.19" x2="1162.67" y2="1336.19"/>
<line class="st14" x1="725.96" y1="966.96" x2="725.96" y2="1610.56"/>
<rect x="378.55" y="1795.06" class="st5" width="456.8" height="46.78"/>
<text transform="matrix(1 0 0 1 378.5457 1825.4288)" class="st6 st7 st8">Pour commencer je vais vous présenter les deux classes de textiles.</text>
<rect x="618.57" y="1885.5" class="st5" width="101.05" height="27.04"/>
<text transform="matrix(1 0 0 1 628.1318 1897.8698)" class="st6 st7 st8">LES CLASSES</text>
<rect x="172.81" y="2030.08" class="st5" width="394.62" height="145.26"/>
<text transform="matrix(1 0 0 1 172.8082 2042.4503)"><tspan x="0" y="0" class="st6 st7 st8">Textiles techniques : Dans ce cas nous portons l’attention </tspan><tspan x="0" y="18" class="st6 st7 st8">sur les caractéristiques </tspan><tspan x="156.99" y="18" class="st9 st16 st8">mécaniques</tspan><tspan x="237.26" y="18" class="st6 st7 st8">, ayant une application </tspan><tspan x="0" y="36" class="st6 st7 st8">technique. Par exemple les </tspan><tspan x="187.03" y="36" class="st9 st16 st8">géotextiles</tspan><tspan x="261.24" y="36" class="st6 st7 st8">, ou </tspan><tspan x="292.32" y="36" class="st9 st16 st8">matériaux </tspan><tspan x="0" y="54" class="st9 st16 st8">composites</tspan><tspan x="74.82" y="54" class="st6 st7 st8"> à renfort textile font partis de cette </tspan><tspan x="319.37" y="54" class="st9 st16 st8">classe</tspan><tspan x="359.69" y="54" class="st6 st7 st8">. Ils </tspan><tspan x="0" y="72" class="st6 st7 st8">sont utilisés dans le domaine automobile, scientifique, </tspan><tspan x="0" y="90" class="st6 st7 st8">sportif...</tspan></text>
<rect x="656.26" y="2026.34" class="st5" width="358.16" height="117.47"/>
<text transform="matrix(1 0 0 1 656.2644 2038.7078)"><tspan x="0" y="0" class="st6 st7 st8">Textiles traditionnels: Nous portons alors dans ce </tspan><tspan x="0" y="18" class="st6 st7 st8">cas-ci l’attention sur l’aspect, le confort, l’apparence </tspan><tspan x="0" y="36" class="st6 st7 st8">de la matière. Nous les trouvons beaucoup dans les </tspan><tspan x="0" y="54" class="st6 st7 st8">domaines de la mode et de l’ameublement par </tspan><tspan x="0" y="72" class="st6 st7 st8">exemple.</tspan></text>
<rect x="265.09" y="2214.29" class="st5" width="669.47" height="18.95"/>
<text transform="matrix(1 0 0 1 281.6444 2226.6655)" class="st6 st7 st8">Maintenant je vais vous expliquer les quatres familles que nous trouvons dans ces  deux classes.</text>
<rect x="507.62" y="2292.61" class="st5" width="93.47" height="21.47"/>
<text transform="matrix(1 0 0 1 507.6149 2304.981)" class="st6 st7 st8">LES FIBRES</text>
<rect x="67.55" y="2363.58" class="st5" width="210.51" height="198"/>
<text transform="matrix(1 0 0 1 67.5534 2375.9541)"><tspan x="0" y="0" class="st6 st7 st8">Les Fibres naturelles:  Elles </tspan><tspan x="0" y="18" class="st6 st7 st8">sont d’origines végétales ou </tspan><tspan x="0" y="36" class="st6 st7 st8">animales, chacune à des </tspan><tspan x="0" y="54" class="st6 st7 st8">caractéristiques différentes et </tspan><tspan x="0" y="72" class="st6 st7 st8">par conséquent ses avantages </tspan><tspan x="0" y="90" class="st6 st7 st8">ou inconvénients qui varient en </tspan><tspan x="0" y="108" class="st6 st7 st8">fonction de l’application que </tspan><tspan x="0" y="126" class="st6 st7 st8">nous en faisons.</tspan></text>
<rect x="320.67" y="2363.58" class="st5" width="268.65" height="100.5"/>
<text transform="matrix(1 0 0 1 320.6681 2375.9539)"><tspan x="0" y="0" class="st6 st7 st8">Les Fibres artificielles: Sont fabriquées </tspan><tspan x="0" y="18" class="st6 st7 st8">à partir de la </tspan><tspan x="94.58" y="18" class="st9 st16 st8">cellulose</tspan><tspan x="153.23" y="18" class="st6 st7 st8"> extraite de </tspan><tspan x="0" y="36" class="st6 st7 st8">végétaux. Par exemple la</tspan><tspan x="174.56" y="36" class="st9 st16 st8"> viscose</tspan><tspan x="226.81" y="36" class="st6 st7 st8"> est </tspan><tspan x="0" y="54" class="st6 st7 st8">une fibre dite artificielle, composée de </tspan><tspan x="0" y="72" class="st6 st7 st8">cellulose extraite de bois. </tspan></text>
<rect x="627.26" y="2365.08" class="st5" width="237.71" height="144.63"/>
<text transform="matrix(1 0 0 1 627.2593 2377.4536)"><tspan x="0" y="0" class="st6 st7 st8">Les Fibres synthétiques: sont pro</tspan><tspan x="218.05" y="0" class="st6 st7 st8">-</tspan><tspan x="0" y="18" class="st6 st7 st8">duites par </tspan><tspan x="72.25" y="18" class="st9 st16 st8">synthèse </tspan><tspan x="134.66" y="18" class="st6 st7 st8">et composés </tspan><tspan x="0" y="36" class="st6 st7 st8">chimiques provenant d’amidon ou </tspan><tspan x="0" y="54" class="st6 st7 st8">d’</tspan><tspan x="13.89" y="54" class="st9 st16 st8">hydrocarbures</tspan><tspan x="113.42" y="54" class="st6 st7 st8"> souvent mélangé </tspan><tspan x="0" y="72" class="st6 st7 st8">à des fibres naturelles.</tspan></text>
<rect x="909.3" y="2346.14" class="st5" width="216" height="160.42"/>
<text transform="matrix(1 0 0 1 909.2988 2376.5068)"><tspan x="0" y="0" class="st6 st7 st8">Fibres minérales : Celles-ci sont </tspan><tspan x="0" y="18" class="st6 st7 st8">à base de </tspan><tspan x="72.55" y="18" class="st9 st16 st8">silicate</tspan><tspan x="118.96" y="18" class="st6 st7 st8">, </tspan><tspan x="128.22" y="18" class="st9 st16 st8">carbone</tspan><tspan x="184.75" y="18" class="st6 st7 st8">, </tspan><tspan x="0" y="36" class="st9 st16 st8">magnésium</tspan><tspan x="76.86" y="36" class="st6 st7 st8"> … ceux-ci nous </tspan><tspan x="0" y="54" class="st6 st7 st8">servent notamment pour la </tspan><tspan x="0" y="72" class="st6 st7 st8">confection de tissus </tspan><tspan x="134.82" y="72" class="st9 st16 st8">ignifugés</tspan><tspan x="196.51" y="72" class="st6 st7 st8">.</tspan></text>
<rect x="195.97" y="2661.93" class="st5" width="459.09" height="59.37"/>
<text transform="matrix(1 0 0 1 195.9661 2674.2964)"><tspan x="0" y="0" class="st6 st7 st8">Pour bien comprendre ce qu’est un textile intéressons nous</tspan><tspan x="0" y="18" class="st6 st7 st8">maintenant aux pro cédés de fabrications.</tspan></text>
<rect x="620.74" y="2741.03" class="st5" width="119.93" height="27.79"/>
<text transform="matrix(1 0 0 1 634.517 2753.4009)"><tspan x="0" y="0" class="st6 st7 st8">LES PROCÉDÉS</tspan><tspan x="106.15" y="0" class="st7 st8"> </tspan></text>
<rect x="626.19" y="2615.35" class="st5" width="477.56" height="49.03"/>
<text transform="matrix(1 0 0 1 626.1915 2627.7168)"><tspan x="0" y="0" class="st6 st7 st8">Nous en trouvons trois: le </tspan><tspan x="178.58" y="0" class="st9 st16 st8">tissé</tspan><tspan x="207.39" y="0" class="st6 st7 st8">, le tricot et le </tspan><tspan x="305.34" y="0" class="st9 st16 st8">non-tissé</tspan><tspan x="362.85" y="0" class="st6 st7 st8">.</tspan><tspan x="0" y="18" class="st6 st7 st8">Alors qu’est ce que c’est ? Et bien nous allons le voir ensemble.</tspan></text>
<rect x="169.72" y="2798.9" class="st5" width="386.53" height="253.58"/>
<text transform="matrix(1 0 0 1 169.7211 2811.2695)"><tspan x="0" y="0" class="st6 st7 st8">Tissage : C’est un assemblage de fibres dans le même </tspan><tspan x="0" y="18" class="st6 st7 st8">plan. D’abord nous avons des fils disposés dans le sens </tspan><tspan x="0" y="36" class="st6 st7 st8">de la </tspan><tspan x="39.28" y="36" class="st9 st16 st8">chaîne</tspan><tspan x="84.02" y="36" class="st6 st7 st8">(vertical).Puis des fils disposés dans le sens </tspan><tspan x="0" y="54" class="st6 st7 st8">de la </tspan><tspan x="39.28" y="54" class="st9 st16 st8">trame </tspan><tspan x="83.4" y="54" class="st6 st7 st8">(horizontal).</tspan><tspan x="0" y="90" class="st6 st7 st8">Le </tspan><tspan x="19.58" y="90" class="st9 st16 st8">liage </tspan><tspan x="58.61" y="90" class="st6 st7 st8">entre ces fils s’appelle l’</tspan><tspan x="221.87" y="90" class="st9 st16 st8">armure.</tspan><tspan x="275.54" y="90" class="st6 st7 st8"> C’est le mode </tspan><tspan x="0" y="108" class="st6 st7 st8">d’entrecroisement des fils de chaîne, (le fil rouge du </tspan><tspan x="0" y="126" class="st6 st7 st8">diagramme est semblable aux fils de </tspan><tspan x="253.44" y="126" class="st9 st16 st8">chaîne.</tspan><tspan x="302.81" y="126" class="st6 st7 st8"> Le fil gris </tspan><tspan x="0" y="144" class="st6 st7 st8">du diagramme représente les fils de </tspan><tspan x="247.52" y="144" class="st9 st16 st8">trames</tspan><tspan x="293.07" y="144" class="st6 st7 st8">.)</tspan><tspan x="0" y="162" class="st6 st7 st8">Plusieurs</tspan><tspan x="58" y="162" class="st9 st16 st8"> armures</tspan><tspan x="117.72" y="162" class="st6 st7 st8"> sont possibles ; je vais donner un </tspan><tspan x="0" y="180" class="st6 st7 st8">exemple pour bien expliquer comment l’</tspan><tspan x="275.42" y="180" class="st9 st16 st8">armure</tspan><tspan x="324.46" y="180" class="st6 st7 st8"> à un </tspan><tspan x="0" y="198" class="st6 st7 st8">impact important sur l’aspect de l’</tspan><tspan x="230.68" y="198" class="st9 st16 st8">étoffe</tspan><tspan x="270.15" y="198" class="st6 st7 st8">.</tspan></text>
<rect x="176.86" y="3092.19" class="st5" width="386.53" height="149.05"/>
<text transform="matrix(1 0 0 1 176.8567 3104.5576)"><tspan x="0" y="0" class="st6 st7 st8">Le </tspan><tspan x="19.58" y="0" class="st9 st16 st8">sergé</tspan><tspan x="57.4" y="0" class="st6 st7 st8">: est une variante du tissage classique avec les </tspan><tspan x="0" y="18" class="st6 st7 st8">fils de </tspan><tspan x="44.56" y="18" class="st9 st16 st8">trame</tspan><tspan x="84.05" y="18" class="st6 st7 st8">, seulement on vient créer des côtes </tspan><tspan x="0" y="36" class="st6 st7 st8">obliques. C’est à dire qu’on passe notre fil de </tspan><tspan x="315.09" y="36" class="st9 st16 st8">trame </tspan><tspan x="0" y="54" class="st6 st7 st8">sous un fil de </tspan><tspan x="93.49" y="54" class="st9 st16 st8">chaîne</tspan><tspan x="138.23" y="54" class="st6 st7 st8">, puis sur trois, ce qui nous donne </tspan><tspan x="0" y="72" class="st6 st7 st8">un </tspan><tspan x="21.03" y="72" class="st9 st16 st8">sergé</tspan><tspan x="58.85" y="72" class="st6 st7 st8">. Le fait de ne pas faire un au dessus un en des</tspan><tspan x="377.83" y="72" class="st6 st7 st8">-</tspan><tspan x="0" y="90" class="st6 st7 st8">sous nous permet d’obtenir cet effet d’oblique. On peut </tspan><tspan x="0" y="108" class="st6 st7 st8">le faire également en inverse. On appelle alors ça un </tspan><tspan x="0" y="126" class="st6 st7 st8">sergé à effet de</tspan><tspan x="107.05" y="126" class="st9 st16 st8"> trame</tspan><tspan x="151.17" y="126" class="st6 st7 st8"> ou bien à effet de </tspan><tspan x="281.28" y="126" class="st9 st16 st8">chaîne</tspan><tspan x="326.02" y="126" class="st6 st7 st8">. </tspan></text>
<rect x="632.04" y="2803.87" class="st5" width="385.26" height="209.68"/>
<text transform="matrix(1 0 0 1 632.0366 2816.2434)"><tspan x="0" y="0" class="st6 st7 st8">Tricot:  nous avons deux types de tricotage, celui à </tspan><tspan x="0" y="18" class="st9 st16 st8">mailles cueillies</tspan><tspan x="105.17" y="18" class="st6 st7 st8"> appelé aussi tricotage </tspan><tspan x="264.06" y="18" class="st9 st16 st8">trame</tspan><tspan x="303.55" y="18" class="st6 st7 st8">, le plus </tspan><tspan x="0" y="36" class="st6 st7 st8">connu, qui permet par exemple de réaliser un</tspan><tspan x="311.41" y="36" class="st9 st16 st8"> jersey </tspan><tspan x="0" y="54" class="st9 st16 st8">côte 1/1</tspan><tspan x="59.05" y="54" class="st6 st7 st8">, des </tspan><tspan x="96.31" y="54" class="st9 st16 st8">côtes anglaises</tspan><tspan x="199.52" y="54" class="st6 st7 st8"> etc… On utilise ce mode </tspan><tspan x="0" y="72" class="st6 st7 st8">de tricot pour les t-shirts, les pulls, les chaussettes. C’est </tspan><tspan x="0" y="90" class="st6 st7 st8">ce que l’on utilise quand nous tricotons à la main.</tspan><tspan x="0" y="108" class="st6 st7 st8">Il existe aussi le tricotage à </tspan><tspan x="188.91" y="108" class="st9 st16 st8">mailles jetées</tspan><tspan x="280.25" y="108" class="st6 st7 st8"> ou </tspan><tspan x="306.7" y="108" class="st9 st16 st8">chaîne</tspan><tspan x="351.44" y="108" class="st6 st7 st8">. Ce </tspan><tspan x="0" y="126" class="st6 st7 st8">qui permet la réalisation de produits </tspan><tspan x="251.11" y="126" class="st9 st16 st8">indémaillables</tspan><tspan x="350.15" y="126" class="st6 st7 st8">. </tspan><tspan x="0" y="144" class="st6 st7 st8">C’est utilisé dans la lingerie, le voilage ou bien encore </tspan><tspan x="0" y="162" class="st6 st7 st8">les maillots de bain. C’est un processus industriel.</tspan></text>
<rect x="643.4" y="3091.4" class="st5" width="362.53" height="313.93"/>
<text transform="matrix(1 0 0 1 643.4045 3103.769)"><tspan x="0" y="0" class="st6 st7 st8">Non -Tissés : Ici les fibres sont maintenues de façon </tspan><tspan x="0" y="18" class="st6 st7 st8">aléatoire, ou bien suivant une architecture préétablie </tspan><tspan x="0" y="36" class="st6 st7 st8">pour varier leurs capacités </tspan><tspan x="185.5" y="36" class="st9 st16 st8">mécaniques.</tspan><tspan x="0" y="72" class="st6 st7 st8">En terme d’utilisation, les </tspan><tspan x="173.68" y="72" class="st9 st16 st8">non tissés</tspan><tspan x="238.7" y="72" class="st6 st7 st8"> sont présents </tspan><tspan x="0" y="90" class="st6 st7 st8">dans les </tspan><tspan x="59.68" y="90" class="st9 st16 st8">géotextiles</tspan><tspan x="133.89" y="90" class="st6 st7 st8">, les pansements, pour l’isolation </tspan><tspan x="0" y="108" class="st6 st7 st8">phonique ou thermique, les filtres, feutres, prothèses </tspan><tspan x="0" y="126" class="st6 st7 st8">médicales, ailes d’avion, voiles de bateaux, vestes </tspan><tspan x="0" y="144" class="st6 st7 st8">de pompiers… </tspan><tspan x="0" y="162" class="st6 st7 st8">On se rend alors compte de sa présence importante </tspan><tspan x="0" y="180" class="st6 st7 st8">dans ce qui nous entoure, alors que ce n’est pas le </tspan><tspan x="0" y="198" class="st6 st7 st8">procédé le plus connu des utilisateurs. Cette tech</tspan><tspan x="330.5" y="198" class="st6 st7 st8">-</tspan><tspan x="0" y="216" class="st6 st7 st8">nique est apparue dans les années 90. Les 1er </tspan><tspan x="0" y="234" class="st6 st7 st8">consommateurs et producteurs sont en Europe,   </tspan><tspan x="0" y="252" class="st6 st7 st8">notamment en Allemagne. Contrairement aux autres </tspan><tspan x="0" y="270" class="st6 st7 st8">procédés, ici nous utilisons les </tspan><tspan x="207.35" y="270" class="st9 st16 st8">fibres brutes</tspan><tspan x="291.89" y="270" class="st6 st7 st8"> et non en </tspan><tspan x="0" y="288" class="st9 st16 st8">fils</tspan><tspan x="18.42" y="288" class="st6 st7 st8">.</tspan></text>
</svg>
