<svg id="Calque_1" data-name="Calque 1" xmlns="http://www.w3.org/2000/svg" viewBox="0 0 421.76 774.29"><defs><style>.cls-1,.cls-2,.cls-3,.cls-4{fill:none;stroke-miterlimit:10;}.cls-1,.cls-2,.cls-4{stroke:#000;}.cls-2{stroke-width:0.5px;}.cls-3{stroke:#a40300;}.cls-4{stroke-width:0.25px;}</style></defs><title>Philippe</title><path class="cls-1" d="M162.67,142.76c1.5-6.55-2.93-13.63-9.21-16s-13.72-.47-18.78,3.95-7.9,11-8.74,17.67.19,13.44,1.86,19.95c1,4,1.1,8.62,2.7,12.41a4.58,4.58,0,0,0,1.48,2.14,4.52,4.52,0,0,0,2.14.63,24.22,24.22,0,0,0,14.47-3.12"/><path class="cls-2" d="M147.42,148.08a21.1,21.1,0,0,0,6.36-3.79A9.49,9.49,0,0,0,157,137.8a6.21,6.21,0,0,0-3.64-6,13.81,13.81,0,0,0-3.8-.57c-1.88-.16-3.79-.56-5.62-.12a10.44,10.44,0,0,0-4.87,3.23,31.66,31.66,0,0,0-8.69,20.74"/><path class="cls-2" d="M147.13,140.06l.54-.48a5.73,5.73,0,0,1,.83-.64,5.33,5.33,0,0,1,1.6-.55,37.07,37.07,0,0,1,4.93-.72"/><path class="cls-2" d="M151.76,143.8c-2.95,3.4-8.89,2.86-11.68,6.39-2.15,2.72-1.56,6.77-3.28,9.77"/><path class="cls-2" d="M138,160.14a15,15,0,0,1,2.49.58,3.27,3.27,0,0,1,2.61,2.92,18,18,0,0,1,.41,5.22"/><path class="cls-2" d="M133.45,159.49a6,6,0,0,0,.6,1.79c.93,1.76,2.72,2.86,4.43,3.87"/><path class="cls-1" d="M149.75,154.2a21.42,21.42,0,0,1,.23,5.36,7.4,7.4,0,0,1-2.28,4.74c-.27.23-.81.35-.87,0"/><path class="cls-2" d="M148.23,154.41a3.91,3.91,0,0,0-4.67,4.8,3.72,3.72,0,0,1,2.76,3.8"/><path class="cls-1" d="M240.29,96.26c1.1,8.1,2.2,16.28,1.42,24.41-1.08,11.26-5.71,21.87-7.93,33a5.51,5.51,0,0,1-.7,2.08,6.66,6.66,0,0,1-2.12,1.65,13.39,13.39,0,0,0-3.68,3.4,130.55,130.55,0,0,0,3.56,23.93c.49,1.86,1.65,3.57,1.74,5.5a7.16,7.16,0,0,1-.69,3.71,10.73,10.73,0,0,1-2.81,3,17.42,17.42,0,0,0-1.7,2.18c-1.18,1.37-3.58,1.5-5.26,1.21a40.49,40.49,0,0,1-7.41-2"/><path class="cls-1" d="M224.83,198.55a4,4,0,0,0-2-2.65,8.93,8.93,0,0,0-3.29-1,24.27,24.27,0,0,0-9.33.56"/><path class="cls-2" d="M212.82,183.06a4.6,4.6,0,0,0-2.61,1.19,3.81,3.81,0,0,0-.72,1.76c-.42,2.29,0,4.63-.06,7s-.53,4.84-2.3,6.36"/><path class="cls-2" d="M217.72,185.12l-.1,0a2.86,2.86,0,0,1,2.52.5l3.89,2.18a6.4,6.4,0,0,1,2.37,1.86"/><path class="cls-1" d="M214.07,199.45c-1.74,1.33-2.54,3.53-3.12,5.64s-1.09,4.34-2.47,6"/><path class="cls-1" d="M203.27,220.85c-3.84,2-7.85,4.15-10.18,7.8-1.81,2.84-2.38,6.26-3.24,9.52s-2.22,6.62-5,8.53-6.4,2-9.77,1.88c-2.24-.06-4.51-.7-6.39.5a9.22,9.22,0,0,0-2.34,2.48"/><path class="cls-2" d="M164.64,242.82a46.39,46.39,0,0,0,9.54-3,46.1,46.1,0,0,0,5.58-3.39l9-6a12.94,12.94,0,0,0,2.91-2.39,14,14,0,0,0,1.95-3.69,118.66,118.66,0,0,1,12.85-23.21"/><path class="cls-2" d="M206.72,164.58a121.26,121.26,0,0,1,3.57,15.36"/><path class="cls-2" d="M221.89,163.37a11.23,11.23,0,0,1-5,5c-2.2-.3-4.87-.27-7.08-.56"/><path class="cls-2" d="M210,165.5A58.12,58.12,0,0,1,221,162.11"/><path class="cls-1" d="M229.57,158.09a16.23,16.23,0,0,0-5.61.14c-1.85.5-3.45,1.63-5.18,2.42a14.67,14.67,0,0,1-7.84,1.2,1.94,1.94,0,0,1-1.27-.52c2.72-.28,5.22-1.57,7.73-2.66a58.7,58.7,0,0,1,10.73-3.48,8,8,0,0,1,4.14-.12A.56.56,0,0,1,233,155C232.62,156.45,230.38,156.77,229.57,158.09Z"/><path class="cls-2" d="M221,161.84a24.71,24.71,0,0,0,4.78-1.24"/><path class="cls-1" d="M49.43,157.75a308.65,308.65,0,0,1-14.38,29.76c-1.51,2.74-3.08,5.52-3.69,8.59"/><path class="cls-1" d="M241.39,95.84a43.65,43.65,0,0,1,15.28,5.41"/><path class="cls-1" d="M49.75,153.53l2.63-30.91c.75-8.84,1.51-17.71,3.38-26.38C58.9,81.72,65.1,68.07,71.48,54.66a149.64,149.64,0,0,1,10.3-19.07A55.88,55.88,0,0,1,94.24,21.9a85.39,85.39,0,0,1,12.9-7.59c5.73-2.94,11.59-5.92,18-6.81a55.42,55.42,0,0,1,12.48.11c21.6,1.88,43.83,4.87,62.46,16,11.36,6.76,20.84,16.21,30.1,25.65,6.71,6.85,13.43,13.8,18.66,21.84s8.93,17.34,9,26.94"/><path class="cls-1" d="M234.62,101.12a157.8,157.8,0,0,1-16.91-3.57c-.78,13.36-10.63,24.27-15.31,36.81a68.72,68.72,0,0,1-3.39,8.72c-2.65,4.95-7.2,8.54-11.12,12.57s-7.45,9.11-7.14,14.72"/><path class="cls-1" d="M164.43,167.27a44.85,44.85,0,0,1,13.06,4.3"/><path class="cls-1" d="M164.85,164.07a89.11,89.11,0,0,0,1.72-13.31c.17-3,.1-6.24-1.71-8.62"/><path class="cls-1" d="M129.75,132.64c-5.35,2.86-9.2,7.82-12.89,12.64L105.1,160.62c-2.33,3-4.75,6.29-5.23,10.1-6.91-.05-14.06-.06-20.41,2.67a5.31,5.31,0,0,1-2.49.67c-2.25-.17-3-3-4-5-3.58-7.07-14-6.71-20.11-11.76"/><path class="cls-2" d="M177.42,234.38a7.19,7.19,0,0,0-2.9-7.17"/><path class="cls-2" d="M134.4,199.47a116.51,116.51,0,0,0,6.49,18"/><path class="cls-2" d="M120.2,195.23a31.14,31.14,0,0,0,9.63,16.47"/><path class="cls-2" d="M98.91,195.32c1.42,2.91,5,3.8,8,5a25.77,25.77,0,0,1,13,11.28c1.14,2,2,4.22,3.08,6.3a33.08,33.08,0,0,0,13,13.41"/><path class="cls-2" d="M101.29,210.28,92,206.45"/><path class="cls-2" d="M49.44,195c4.91-.27,9.84-.32,14.75-.14"/><path class="cls-3" d="M165.78,264.41l5.8-3.34a15.87,15.87,0,0,0,3.93-2.83c-4.71-2.2-9.9-1.87-10.06,4.33"/><path class="cls-3" d="M167,255.12a24.94,24.94,0,0,0-5.46-5c-8.14-6.08-16.29-12.16-24.87-17.6-24.36-15.43-51.76-25.41-79.34-33.82-5.84-1.79-11.8-3.52-17.91-3.53-11.75,0-23.4,6.31-34.83,3.57"/><path class="cls-3" d="M.16,218.06c5.89,1.95,12.3.63,18.41-.46a235.39,235.39,0,0,1,37-3.62,86,86,0,0,1,16.2.91c11.31,1.94,21.64,7.47,31.74,12.93l23.65,12.77"/><path class="cls-3" d="M118.5,240.54a171.72,171.72,0,0,0-28.58-13.79c-12.25-4.58-25.19-7.76-38.27-7.6-14.32.18-28.36,4.36-42.69,4.74"/><path class="cls-3" d="M130.18,242.66a119.16,119.16,0,0,1,26.68,16.52c-4.91.83-11-.91-15.66-2.63-8.7-3.19-18.15-3.59-27.42-3.68A465.79,465.79,0,0,0,46.92,257"/><path class="cls-3" d="M76.83,245.33a18.26,18.26,0,0,1,16.48-1"/><path class="cls-3" d="M116.84,259.22a11.39,11.39,0,0,0,2.51,3.8"/><path class="cls-3" d="M131.53,264.15A78.71,78.71,0,0,1,157,269.2a31.73,31.73,0,0,1,8.74,4.63,39.75,39.75,0,0,1,6.59,7.34L181,292.64"/><path class="cls-3" d="M240.17,435.43c-18.8-1-37.27,4.51-55.3,9.92a42.26,42.26,0,0,0-9.79,3.85c-2.45,1.46-4.57,3.41-7,4.95-10.38,6.66-24.52,5.07-34.79,11.89"/><path class="cls-3" d="M242.87,433.29a31.25,31.25,0,0,1-5.1-23.3c.43-2.33,1.1-4.87,0-7-.67-1.27-1.9-2.14-2.74-3.31-1.44-2-1.59-4.6-1.83-7a61.06,61.06,0,0,0-10.79-28.94c2.68-2.33,2.82-6.51,1.74-9.89s-3.12-6.39-4.21-9.77c-.69-2.13-1.08-4.54-2.76-6a18,18,0,0,0-3.59-1.94c-5-2.71-6.62-9.06-10-13.72-5.37-7.47-15.73-11-19.19-19.48"/><path class="cls-3" d="M144.48,273.44c3.42,1.38,6.94,2.83,9.52,5.46,1.5,1.52,2.61,3.37,4,5,7.48,8.6,21.32,8.53,29.71,16.24,2.84,2.61,4.88,6,6.88,9.26"/><path class="cls-3" d="M152.31,294.49a102.4,102.4,0,0,1,25.6,49.45"/><path class="cls-3" d="M216.23,342.22c-.6.69-1.7.44-2.58.17a28.3,28.3,0,0,0-18,.5"/><path class="cls-3" d="M201.56,333.79a16.57,16.57,0,0,0-10.16.51"/><path class="cls-3" d="M199.54,325.9a17.92,17.92,0,0,0-12.76-2.76"/><path class="cls-3" d="M220.74,357.74a3,3,0,0,0-1.23-2.86,8.69,8.69,0,0,0-3-1.29l-9.9-2.85"/><path class="cls-3" d="M220.11,361.42a20,20,0,0,0-17-5.23"/><path class="cls-3" d="M229.42,381.29a142.52,142.52,0,0,0-68.39-23"/><path class="cls-3" d="M151.37,356.87a9.12,9.12,0,0,0-4.23-1.21"/><path class="cls-3" d="M126.82,350.76c3.83,3.36,9.65,2.31,14.71,2.91,6.1.71,11.72,4.06,17.85,4.36"/><path class="cls-3" d="M227.58,385.89a264.36,264.36,0,0,1-35-12.5"/><path class="cls-3" d="M185.11,369.69a152.6,152.6,0,0,0-26.6-4.34"/><path class="cls-3" d="M230.45,397.57c-13.75-4.4-28.58.3-42.23,5l-28.88,9.88"/><path class="cls-3" d="M237.19,406a72.58,72.58,0,0,0-58.57,12"/><path class="cls-3" d="M231.78,412.28a183.11,183.11,0,0,0-86.38,24.54"/><path class="cls-3" d="M224.24,418a349.35,349.35,0,0,0-51.05,12.17c-6.63,2.12-13.39,4.56-18.53,9.24"/><path class="cls-3" d="M133.51,465.78c-2.85-7.39-8.29-13.42-13.59-19.29-14.59-16.19-29-32.67-40.86-50.94"/><path class="cls-3" d="M117,268.33c-17.5,8.73-34.82,19-47.15,34.18a82.56,82.56,0,0,0-18.29,52.3"/><path class="cls-3" d="M78,388.09a108.27,108.27,0,0,1-7.68-33.27"/><path class="cls-3" d="M55.28,363.21a11.81,11.81,0,0,0,2,5.57q6,10.47,12.83,20.39"/><path class="cls-3" d="M43,342.64a142.12,142.12,0,0,1-4-31.2"/><path class="cls-3" d="M22.65,316.89c1.09,4.73,4.36,8.59,7,12.64,14.15,21.52,12,50.49,25.12,72.67"/><path class="cls-3" d="M225.21,347.5a30.62,30.62,0,0,1,7.84,11.72,51.7,51.7,0,0,1,2,7.24,182.61,182.61,0,0,1,3.25,20.79"/><path class="cls-2" d="M206.32,560.14c2,4.94,7.13,8.1,12.39,9s10.64-.18,15.75-1.68c24.92-7.29,46.21-24.48,71.44-30.57"/><path class="cls-2" d="M338,519.15a49.69,49.69,0,0,0-14.11,23.54"/><path class="cls-1" d="M340.45,534.44c-9.79,15.58-26.81,24.83-43.09,33.42a104.82,104.82,0,0,1-14.92,6.88c-18.34,6.2-38.46,1.69-56.93-4.12"/><path class="cls-1" d="M200.18,560.31l-13.48-9a45,45,0,0,1-6.85-5.27c-5.29-5.26-7.57-12.72-10.55-19.55-8.79-20.19-24.79-36.71-32.8-57.22"/><path class="cls-1" d="M243.29,438.4c5.09,7.68,7.07,17,8.94,26"/><path class="cls-1" d="M254.12,467.64A73,73,0,0,1,291,476.06c4.41,2.34,9.16,5.24,14,4.17,5.3-1.17,8.39-6.48,12.12-10.42a29,29,0,0,1,11.66-7.47"/><path class="cls-1" d="M330.43,459.33c5.3-5.82,13-8.72,20.4-11.42a22.1,22.1,0,0,1,6.59-1.66,11.33,11.33,0,0,1,11.26,9.65"/><path class="cls-2" d="M359.76,457.51l1.67-.85"/><path class="cls-1" d="M393.52,507.21c3.48.83,6.77-1.67,10.15-2.88,3.54-1.28,7.45-1.14,11-2.27s7.1-4.34,6.48-8.06c-.55-3.34-4.14-5.31-7.48-5.85a37.76,37.76,0,0,0-9.5.07L387,489.83c8.44-6.56,20.38-6.17,29.92-11a5.21,5.21,0,0,0,2.19-1.73,5.59,5.59,0,0,0,.46-3.32c-.14-2.31-.43-4.9-2.25-6.33-1.39-1.09-3.29-1.18-5.06-1.23-9.64-.24-16.23,0-25.37,3.12l-9.95,3.37"/><path class="cls-1" d="M390.89,510.11c-7.7,12.51-22.06,19.26-36.15,23.41-3.28,1-6.78,1.83-10.08,1"/><path class="cls-1" d="M212.86,546a4.78,4.78,0,0,1,2.15-4.51,9.44,9.44,0,0,1,5-1l8.62-.07a46.49,46.49,0,0,1,10.87.75,15.69,15.69,0,0,1,9.18,5.49"/><path class="cls-2" d="M315,480.1a40.58,40.58,0,0,1,13.82.49,23.26,23.26,0,0,1,11.95,6.68"/><path class="cls-2" d="M207.56,211.63a42.54,42.54,0,0,0-8.83,5.19,4.22,4.22,0,0,0,3.41-.57c.33-.27.62-.58.94-.85.91-.78,2-1.24,3-2A7,7,0,0,0,207.56,211.63Z"/><path class="cls-2" d="M199.26,217.62a10.41,10.41,0,0,1,4.05,3,2.57,2.57,0,0,0,.78-2.18c0-.8-.25-1.59-.23-2.39"/><path class="cls-4" d="M115.63,18a32,32,0,0,0-4.19-13.45c-1.11-1.9-2.57-3.8-4.68-4.41"/><path class="cls-4" d="M111.73,15.88a11,11,0,0,0-7.13-5.45"/><path class="cls-4" d="M111.1,20.81a15.27,15.27,0,0,0-13.64-7.49"/><path class="cls-4" d="M118,17.12A8.64,8.64,0,0,1,121.45,10"/><path class="cls-4" d="M252,96.06c7-.87,11.86,6.16,10.72,12.47"/><path class="cls-4" d="M249.84,102.25a10.92,10.92,0,0,1,5.37,6.17c.24.73,0,1.9-.71,1.75"/><path class="cls-4" d="M244.41,100.48a4.77,4.77,0,0,1,2.54,4.57l-1.28.49"/><path class="cls-4" d="M233.06,104.23c1.41.68,3.72,1.45,5.14,2.13a22,22,0,0,0-3.69-8.24"/><path class="cls-4" d="M239.37,97.55a1.85,1.85,0,0,0,.39,1.69"/><path class="cls-1" d="M362.77,458.85c5.4-3.31,10.84-6.64,16.78-8.85s12.47-3.23,18.64-1.8c2.36.55,4.68,1.45,7.1,1.44,2.43.73,4.94,1.72,6.47,3.75,4.67,6.19-5.84,10.91-10.7,11-4.16.08-7.5.14-11,2.8"/><path class="cls-2" d="M359,462.55a11.86,11.86,0,0,1,4.69,2.93,1.86,1.86,0,0,1,.62,1c0,.41-.27.87-.67.83"/><path class="cls-2" d="M358.88,464.44a6.21,6.21,0,0,0,3,3.54"/><path class="cls-2" d="M363.79,461.86a5.83,5.83,0,0,1,3.34,3.72"/><path class="cls-2" d="M377.51,478h.63"/><path class="cls-2" d="M396.88,469.28c.3,1.41,1.56,2.37,2.72,3.22s2.39,1.89,2.56,3.32"/><path class="cls-2" d="M400.14,470.23a9.45,9.45,0,0,1,2.1,1.36,3.34,3.34,0,0,1,1.12,2.18"/><path class="cls-2" d="M390.7,454.69a5.28,5.28,0,0,0-2.4-2.25c-.79-.36-1.77-.62-2.09-1.43"/><path class="cls-2" d="M339.76,455.61c.08.32.46.45.79.52l3.27.68a2.14,2.14,0,0,0,1.37,0c.42-.19.67-.8.35-1.13"/><path class="cls-2" d="M341.59,454.19l1.79,0a5.66,5.66,0,0,1,2.17.26,5.77,5.77,0,0,1,2,1.52l1.44,1.5"/><path class="cls-2" d="M371.93,479a11.87,11.87,0,0,0,1.37,2.82c.64,1,1.68,1.92,2.81,1.66"/><path class="cls-2" d="M374.65,479.2a7.11,7.11,0,0,1,3.68,2.42"/><path class="cls-2" d="M378.14,493.27a6.46,6.46,0,0,0-.45,7.44,21,21,0,0,0,2.92,3.12,5.69,5.69,0,0,1,1.9,3.72"/><path class="cls-2" d="M382.77,494.55a18.73,18.73,0,0,1,.29,3.19,2.62,2.62,0,0,0,1.76,2.43"/><path class="cls-2" d="M379,497.06a6.65,6.65,0,0,1,1.62,2.88"/><path class="cls-2" d="M402,491.75a7.83,7.83,0,0,0,.48,3,2.64,2.64,0,0,0,2.37,1.66"/><path class="cls-2" d="M403.48,493.46a6.16,6.16,0,0,1,2.81,4"/><path class="cls-2" d="M410.82,491.71c1,0,1.73.94,2.25,1.8.7,1.14,1.39,2.47,1,3.76"/><path class="cls-2" d="M411.29,469.34a5.85,5.85,0,0,1,2,5"/><path class="cls-2" d="M402.77,451.81a6.92,6.92,0,0,1,2.81,3.95"/><path class="cls-2" d="M350.37,527.56a23.44,23.44,0,0,0-3.47-18.45"/><path class="cls-2" d="M357.15,521.27l-3.48-10.46a5.12,5.12,0,0,0-1.27-2.32"/><path class="cls-2" d="M372.78,495.1a14.26,14.26,0,0,0-8,6.15"/><path class="cls-2" d="M333.29,463.67a18.49,18.49,0,0,0,5.18-.87,23.5,23.5,0,0,1,3.07-1.2,10.43,10.43,0,0,1,5,.54"/><path class="cls-1" d="M270.92,755.42a23.18,23.18,0,0,1-10.31,5.39A68.73,68.73,0,0,1,249,762.45a1.86,1.86,0,0,1,1.11-.68"/><path class="cls-1" d="M257.5,694.36c0,3,3.13,4.94,4.81,7.46a16,16,0,0,1,1.74,4,139,139,0,0,1,6.41,35.42c0,.18,0,.41-.18.47s-.26-.31-.09-.26"/><path class="cls-1" d="M239.25,695.37a215.21,215.21,0,0,1,17.18,16c3.81,4,7.42,8.8,5.19,14.57a14.58,14.58,0,0,1-3.07,4.42,96.86,96.86,0,0,1-59.86,30.47"/><path class="cls-1" d="M167,730.37a110.44,110.44,0,0,0,15.49,36"/><path class="cls-1" d="M159.62,732.64c4.85,14.35,9.8,28.92,18.43,41.36"/><path class="cls-1" d="M170.45,728.57,234.74,717"/><path class="cls-1" d="M235.05,715.68c-1.39-4.07-2.88-8.29-6-11.31"/><path class="cls-1" d="M247.17,704.81c-15.53-.5-31.07-.39-46.61-.27a43.91,43.91,0,0,0-6.88.41,54.06,54.06,0,0,0-7.26,2c-6.53,2-13.22,3.45-19.9,4.88"/><path class="cls-1" d="M242.67,701.32l-27.35.71c-16.4.43-33.12.91-48.54,6.5"/><path class="cls-1" d="M160.05,699.66c-.65,3.41.75,6.83,1.57,10.21a63.08,63.08,0,0,1,1.14,7l1,8c0,.14,0,.31.18.37s.3-.17.17-.23"/><path class="cls-1" d="M108.62,670.17v.64"/><path class="cls-1" d="M114.66,699.4c12.12,3.3,25,.56,37.52.37,2.3,0,4.6,0,6.88-.24s4.63-.84,6.94-1.32a86.72,86.72,0,0,1,26.84-1.35"/><path class="cls-1" d="M160.09,716.74a1079.87,1079.87,0,0,1-112.61,4.35c-12.84-.17-26.81-1-36.49-9.42"/><path class="cls-1" d="M8,720.3c8.91,3.52,17.92,7.05,27.39,8.45a125.15,125.15,0,0,0,17.74.91l42.89.18a81.06,81.06,0,0,0,13-.65c3.71-.59,7.32-1.7,11-2.36a91.25,91.25,0,0,1,13.52-1l28.71-.8"/><path class="cls-1" d="M32.17,690.49c-3.91-.26-8-.56-11.39-2.52a20.46,20.46,0,0,1-5.11-4.54,47.9,47.9,0,0,1-5.41-7.76"/><path class="cls-1" d="M110.93,669.33a180.88,180.88,0,0,0,4.45,47.36"/><path class="cls-1" d="M101.9,669.12c-.62,16.35-1.19,33.15,4.19,48.6"/><path class="cls-3" d="M8.4,652.28c.71,1.62,2.31,2.65,3.86,3.52,13.61,7.67,29.36,10.53,44.86,12.56a146.56,146.56,0,0,0,16.6,1.44c8.55.14,17.14-1,25.63,0"/><path class="cls-3" d="M263.32,669.34c-6.76,4-15.15,4.23-22.93,3s-15.31-3.7-23.12-4.7a122.47,122.47,0,0,0-17.35-.56l-36.19.55c-5.33.08-10.67.16-16,.6-11.75,1-23.64,3.68-35.2,1.33"/><path class="cls-3" d="M228.83,664.28l-1.38.23c8.74-.23,17.59-.48,26-2.93a102,102,0,0,0,10.49-3.94l10.47-4.37"/><path class="cls-3" d="M44.44,655.63c12.3,2.9,25.14.63,37.69-.87,27.12-3.25,54.54-2.83,81.85-2.4"/><path class="cls-3" d="M38.5,442.88c4,17.57,12.38,33.79,19.36,50.41,9.67,23,17.22,47.79,34,66.28"/><path class="cls-3" d="M177.17,578.91c-21.73,4.53-42.61,12.56-64.3,17.24S67.76,602,47.45,593"/><path class="cls-3" d="M255.11,598.41c-30.93,16.41-67.76,15.71-102.75,14.52"/><path class="cls-1" d="M258.07,688.94a30.63,30.63,0,0,1,9,12.7,85.14,85.14,0,0,1,4.08,15.17c1.86,9.27,3.57,18.69,3,28.12-.42,7-2.1,14.05-1.12,21"/><path class="cls-3" d="M258,688.5c.52-3.67,1.24-7.71,4.12-10a20,20,0,0,0,2.22-1.74c1.64-1.77,1.48-4.48,1.69-6.88a2.29,2.29,0,0,1,.42-1.33c.59-.69,1.67-.51,2.57-.49,4,.11,6.87-3.9,8-7.72s1.49-8.07,3.89-11.26c1.67-2.22,4.16-3.67,6.08-5.68,4.59-4.8,5.33-12,5.83-18.64"/><path class="cls-3" d="M292.85,623.23a185.55,185.55,0,0,0-2.71-50.12"/><path class="cls-1" d="M253.29,689.87c-45.61-3-91.38-6-137-2.71"/><path class="cls-1" d="M99.2,673.08c-30.84,6.54-63.72-.8-90.86-16.82"/><path class="cls-1" d="M114.22,673.79c23.55,2.13,47.07-4.83,70.71-4.26,25,.59,49.68,9.61,74.59,7.08"/><path class="cls-1" d="M76,709.49a181.78,181.78,0,0,1-56.34-7.58"/></svg>