<svg id="Calque_1" data-name="Calque 1" xmlns="http://www.w3.org/2000/svg" viewBox="0 0 776.67 423.43"><defs><style>.cls-1{fill:none;stroke:#a40300;stroke-miterlimit:10;}</style></defs><title>dessin2 suède</title><path class="cls-1" d="M242.49,144.33c.28-9.46,7.37-17.65,15.78-22s18-5.55,27.42-6.69l86.08-10.48c4-.49,7.93-4.89,10.05-8.34s2.76-7.58,3.24-11.6c.68-5.6,1.17-11.31.13-16.85-1.26-6.64-4.69-12.85-4.95-19.6s4.77-14.56,11.44-13.5"/><path class="cls-1" d="M351.33,201.79q60,.77,120-2.37"/><path class="cls-1" d="M215,209a446.8,446.8,0,0,0,16.18-72.28,112.92,112.92,0,0,0,27.89,15.71,36.94,36.94,0,0,0,8.2,2.36,44.3,44.3,0,0,0,8.77.06l34.41-2.08a2.69,2.69,0,0,1,1.82.32,2.38,2.38,0,0,1,.73,1.51c.92,5.16-2.39,10-3.57,15.13-1.81,7.86,1,17.52-4.75,23.16-1.78,1.74-4.36,3-4.88,5.48a7.89,7.89,0,0,0,.45,3.74L306.84,225c.33,1.12.63,2.41,0,3.39-.78,1.19-2.47,1.25-3.89,1.17-18.63,0-37.49-2-56.11-2.94-9.36-.5-18.8-.68-28.14-1.48S212.77,216,215,209Z"/><path class="cls-1" d="M256.7,156.83a102.75,102.75,0,0,0-14.84,7,7.34,7.34,0,0,0-2.43,1.91,10.69,10.69,0,0,0-1.29,3.49,14.44,14.44,0,0,1-10.22,9.81"/><path class="cls-1" d="M302.9,174.6c-6.29-.08-11.46-5.63-17.73-5.9a15,15,0,0,0-8.75,2.8"/><path class="cls-1" d="M302.45,183.26a50.4,50.4,0,0,0-20.18-4.58"/><path class="cls-1" d="M299.09,196.86c-4.26,1.33-7.68,4.52-10.59,7.9s-5.53,7.07-9,9.92"/><path class="cls-1" d="M296.29,206.15l-10.93,7.46c-3.05,2.08-6.32,4.48-7.16,8.07"/><path class="cls-1" d="M310.06,226.92c9.51.35,18.5-4.09,27.91-5.45,6.07-.87,12.69-.58,17.74-4.07-1.67-1.81-4.65-1.28-6.92-2.23s-3.46-3-5.09-4.69a14.3,14.3,0,0,0-24.07,6.41"/><path class="cls-1" d="M313.55,208.94a11.1,11.1,0,0,0,6.1,12.18,6.6,6.6,0,0,0,6-.42"/><path class="cls-1" d="M344.7,207.11c3-1.79,4.46-5.3,5.08-8.71s.53-6.93,1.27-10.32c1.9-8.67,9-15.75,9.87-24.58a84.28,84.28,0,0,0-12.71.83c-3.53.59-7,1.63-10.58,1.84s-7.41-.47-11.12-.55c-4.81-.11-9.12.13-13.9-1.07"/><path class="cls-1" d="M334.06,174.61c4.51-1,9.82-1.87,13.24,1.23,1,.88,2.46,2.06,3.3,1.06"/><path class="cls-1" d="M321.87,170.2a18.36,18.36,0,0,1-9.3,3.67"/><path class="cls-1" d="M347.94,187a11.69,11.69,0,0,0-5-1.31"/><path class="cls-1" d="M355.49,174a4.52,4.52,0,0,0-5.42-2.91"/><path class="cls-1" d="M293.66,189.59a31.93,31.93,0,0,1-13.92,2"/><path class="cls-1" d="M281.42,197.14a45.22,45.22,0,0,0,10.5-1"/><path class="cls-1" d="M567,182.26c-1.91-3.07-2.81-6.71-4.92-9.65-4.51-6.26-13.69-8.26-17.23-15.11-1.52-3-1.74-6.4-2.31-9.69a42.64,42.64,0,0,0-7-17c-9.21,3.19-17,9.5-24.48,15.68l-26.5,21.78c-2.17,1.78-4.41,3.66-5.6,6.2-.78,1.67-1.09,3.6-2.26,5s-3.74,2-4.71.39c-2.58,1.08-3.53,4.47-2.78,7.18s2.72,4.87,4.63,6.93c1.5,1.62,3.1,3.3,5.2,4,3.27,1.07,7.37-.36,10,1.91.93.82,1.48,2,2.41,2.84,1.85,1.65,4.63,1.48,7.11,1.32a84,84,0,0,1,19.78,1.05c5.46.94,11.11,2.41,16.42.87,2.44-.7,4.69-2,7.19-2.41s5.09.17,7.57-.3c3.58-.69,6.45-3.42,9.93-4.51,2.56-.8,5.3-.66,7.95-1,2.48-.3,14.42-3.57,12.63-7.31-.42-.87-5.9-1.91-7.05-2.58A16.9,16.9,0,0,1,567,182.26Z"/><path class="cls-1" d="M567.23,193.22,547,188.59a132.56,132.56,0,0,0-19.24-3.42c-9.32-.72-18.67.52-27.94,1.76-3,.41-6.53,1.12-7.94,3.84"/><path class="cls-1" d="M508,193.32c4.12.52,7.92-2.12,12-3.08,6.15-1.46,12.49,1,18.8,1.23a52.18,52.18,0,0,1,6.13.2,7.3,7.3,0,0,1,5.16,3"/><path class="cls-1" d="M554.72,197.11a4.82,4.82,0,0,0-2.16-4.19"/><path class="cls-1" d="M557.9,172.25c-3.43,1.81-7.3,2.62-11.1,3.4L530.66,179a48.08,48.08,0,0,1-10.1,1.34"/><path class="cls-1" d="M541.93,160.07c.29,4-3.26,7.5-7.14,8.55s-8,.27-12-.52a3.08,3.08,0,0,1-1.54-.61,1.08,1.08,0,0,1-.19-1.49"/><path class="cls-1" d="M520.17,152.34l15.14,1.1"/><path class="cls-1" d="M516.62,156.88c2.35.77,4.15,2.62,6.23,4s4.95,2.09,6.93.61"/><path class="cls-1" d="M564,170.85c3,1.17,6.42-.12,9.38-1.49,9-4.19,17.73-9.18,27.21-12.2s20.1-3.88,29.17.2a29.13,29.13,0,0,1,13.42,12.38"/><path class="cls-1" d="M615.36,162.56c10.3-1,19.14,7.77,29.43,8.86,1.74.19,3.63.2,5,1.31s1.3,3.83-.41,4.16c.76-2.56,4.6-2.82,6.67-1.14s2.89,4.4,3.89,6.88c1.29,3.22,3.37,6.53,6.72,7.47"/><path class="cls-1" d="M662.48,192.45a15.17,15.17,0,0,0-11.88,8.27,22.73,22.73,0,0,1-2.13,4.17c-3.31,4.24-9.93,2.81-15.05,1.16a211.1,211.1,0,0,0-52.53-9.79"/><path class="cls-1" d="M586.29,167.25l-2.1,1.68a49.67,49.67,0,0,1,36.63,2.51,50.6,50.6,0,0,1,25.23,27.19"/><path class="cls-1" d="M616.05,174.19a33.74,33.74,0,0,0-7.95,4.18c-2.18,1.55-4.37,3.43-7.05,3.62s-5.09-1.27-7.63-.88"/><path class="cls-1" d="M577.51,180l8.6-6.63a20.18,20.18,0,0,1,3.52-2.35"/><path class="cls-1" d="M658.08,189.08a5,5,0,0,0-6.09-4"/><path class="cls-1" d="M654.67,192.44a3.88,3.88,0,0,0-4.35-3"/><path class="cls-1" d="M650.82,196.43a42.8,42.8,0,0,0-8.58-3.46"/><path class="cls-1" d="M508.16.79c11.48-1.21,23,1.57,34.18,4.34,1.82.45,3.79,1,4.93,2.48.89,1.18,1.16,2.81,2.29,3.76,1.88,1.56,5.24.53,6.72,2.46C557.93,16,555.7,20,558,21.46c1,.64,2.37.28,3.54.61,2.14.62,2.87,3.2,3.49,5.34s2.16,4.63,4.36,4.27c-7.72,3.31-16.41-.77-24.77-1.59-8-.8-20.81,2.83-26.3-4.89-2.13-3-3.29-7-5.2-10.25C510.56,10.65,507.36,6.08,508.16.79Z"/><path class="cls-1" d="M507.92,15.46c-5.29.36-10.66.71-15.87-.32-4.55-.9-9-2.86-13.63-2.39-3.2.33-6.16,1.8-9,3.25L454,23.75c-2.64,1.33-6.4,3.64-5.76,7,4.26-1.06,6.62.84,10.62,1.57,5.82,1,12.53.43,18.42.28a222.17,222.17,0,0,0,36.64-4"/><path class="cls-1" d="M516,8.74a46.93,46.93,0,0,1,10.89-2.22A16,16,0,0,1,537.4,9.4"/><path class="cls-1" d="M530.74,23.26A18.73,18.73,0,0,1,539,17.4"/><path class="cls-1" d="M536.22,26.25a29.18,29.18,0,0,1,10.86-4.43"/><path class="cls-1" d="M554.69,15.68a75.8,75.8,0,0,0-14,2.31"/><path class="cls-1" d="M473.84,29.12a65,65,0,0,0,10.44-.33,66.55,66.55,0,0,0,10.1-2.51l14.49-4.44"/><path class="cls-1" d="M473.38,20.8a21.83,21.83,0,0,0,12.22.61"/><line class="cls-1" x1="11.67" y1="294.52" x2="212.67" y2="226.52"/><line class="cls-1" x1="12.67" y1="419.52" x2="767.67" y2="309.52"/><line class="cls-1" x1="391.67" y1="35.52" x2="776.67" y2="35.52"/><line class="cls-1" x1="389.67" y1="100.52" x2="767.67" y2="95.52"/><line class="cls-1" x1="276.67" y1="125.52" x2="767.67" y2="110.52"/><line class="cls-1" x1="10.67" y1="307.52" x2="767.67" y2="229.52"/><path class="cls-1" d="M11.66,294.08c-3.93-.52-7.65,2.4-9.29,5.93S.69,307.57.68,311.45L.5,401.37c0,7.19,0,14.45,1.68,21.44l13-3.45"/></svg>