<svg id="Calque_1" data-name="Calque 1" xmlns="http://www.w3.org/2000/svg" viewBox="0 0 445.46 353.03"><defs><style>.cls-1,.cls-2{fill:none;stroke-miterlimit:10;}.cls-1{stroke:#a40300;}.cls-2{stroke:#000;}</style></defs><title>dessin suède</title><path class="cls-1" d="M400.48,95.71a21.31,21.31,0,0,0-8.18,2.67c-1.92,1.11-3.7,2.53-5.82,3.17a15.32,15.32,0,0,1-5.81.33c-14.45-1.23-28.41-7.15-42.91-6.65-1.75.06-3.72.14-5-1-1.07-1-1.38-2.59-2.47-3.55-1.32-1.15-3.38-1-4.79-2.07-3.31-2.45-.49-8.79-3.75-11.32,1.89-.45,6.83-2.52,8.72-3"/><path class="cls-1" d="M334.34,86.24c-2.09-3.94-3.83-8.18-4.06-12.63s1.26-9.16,4.69-12c-1.71-3-.14-10,2.94-11.57.54-8.47,1-18,1.56-26.49a5.42,5.42,0,0,1,1-3.47c1.82-1.94,5-.37,7.39.66,6.41,2.69,13.87.69,20.6,2.4,4,1,7.61,3.33,11.49,4.81,9.54,3.65,20.18,2.12,30.27.53q11-1.74,22-3.52"/><path class="cls-1" d="M398.65,95.83a17.88,17.88,0,0,1,11.46,3.88"/><path class="cls-1" d="M429.19,103.51c2-1.69,2.69-4.41,3.07-7a18.2,18.2,0,0,0,.16-5.26c-.49-3.29-2.4-6.18-4.27-9"/><path class="cls-1" d="M433.34,85.62a21.25,21.25,0,0,0-1-9.43,15.33,15.33,0,0,0,1.24-8.74,38,38,0,0,1-.21-6.4,10.15,10.15,0,0,1,.63-3.92,17.52,17.52,0,0,1,1.46-2.27,12.08,12.08,0,0,0,1.32-10.53"/><path class="cls-1" d="M434.91,24.64c-.57.67-.23,1.69.11,2.5,1.81,4.3,3,9.13,1.7,13.61"/><path class="cls-1" d="M434.31,41.44a11.11,11.11,0,0,1-3.74-7.56l-1.6-.05"/><path class="cls-1" d="M404.62,32a6.62,6.62,0,0,0,3.86,2.64"/><path class="cls-1" d="M411.87,33.62a8.84,8.84,0,0,1,4.29,3.6"/><path class="cls-1" d="M414.08,38.27a6,6,0,0,0,2.54,2.87c1.26.72,3,1.35,3,2.8"/><path class="cls-1" d="M420.76,46.77a4.83,4.83,0,0,0,3.79,2.2,38.4,38.4,0,0,0,4.55,0,3.4,3.4,0,0,1,1.15.15c1.25.47,1.58,2.06,1.72,3.38"/><path class="cls-1" d="M435.37,52.42a26.21,26.21,0,0,0-4.9-6.83"/><path class="cls-1" d="M390.74,33.25a9.94,9.94,0,0,1,3.32,2.65c1.12,1.37,1.86,3,2.94,4.42,2.24,2.88,5.73,4.44,8.84,6.36S412,51.37,412.32,55"/><path class="cls-1" d="M408.43,45.16c1.88,2.32,4.82,3.43,7.4,4.93S421,54,420.89,57"/><path class="cls-1" d="M421,51.93a15.05,15.05,0,0,1,4.46,3.6,15.71,15.71,0,0,1,2,4.42L431,70.21"/><path class="cls-1" d="M428.75,74.78l-5.5-4.58c-2-1.63-3.92-3.26-5.85-4.91l-3-2.64"/><path class="cls-1" d="M389.59,48.3c6.88,6.41,16.72,9.14,23,16.13,1,1.1,1.88,2.29,2.93,3.33,3.35,3.31,8.3,5.08,10.54,9.22"/><path class="cls-1" d="M425.41,79.74a77.43,77.43,0,0,0-6.76-4.1"/><path class="cls-1" d="M341.16,44.26l0,.8a5.81,5.81,0,0,1,6,.72c.78.64,1.38,1.47,2.21,2a2.4,2.4,0,0,0,2.8.17"/><path class="cls-1" d="M342.64,39.29c4.42.9,8.34,4.65,12.78,3.87"/><path class="cls-1" d="M367.06,46.26c3,.37,6,.84,8.95,1.44a5.14,5.14,0,0,1,3.78,2.15l4.11,4.69"/><path class="cls-1" d="M386.53,42.12a18.29,18.29,0,0,0-13.45-7.74"/><path class="cls-1" d="M337.84,57.36a9.3,9.3,0,0,0,8.36,2.85"/><path class="cls-1" d="M341.28,64.12c.64,1.53,2.57,2.08,4.22,1.93s3.23-.81,4.89-.89c2.94-.13,5.62,1.53,8.09,3.13"/><path class="cls-1" d="M425.29,97.88a10,10,0,0,0-6.73-5.09"/><path class="cls-1" d="M414.09,97.35a21.36,21.36,0,0,0-8.5-4.75"/><path class="cls-1" d="M396.45,91.58a42.51,42.51,0,0,0-16.48.11"/><path class="cls-1" d="M391.71,94.09l-7.48-.33a3.41,3.41,0,0,0-2.34.48,12.68,12.68,0,0,0-1.1,1.51c-.83.94-2.23,1-3.48,1a46.75,46.75,0,0,1-7.09-.67"/><path class="cls-1" d="M337.56,94a21.07,21.07,0,0,1,4.79-4.09"/><path class="cls-1" d="M354.13,95.13l4.11-1.24"/><path class="cls-1" d="M336.81,48.59c-3.79-2.74-5.61-7.79-9.74-10-2.16-1.15-4.66-1.36-7.07-1.78-7.73-1.35-15-5.08-22.88-5.23-2.68-.06-5.38.31-8-.14a51.72,51.72,0,0,1-5.91-1.72c-12.64-3.7-26.11,1.76-38.82-1.7-1.56,6.52,2.59,12.87,6.08,18.59a55.19,55.19,0,0,1,6.15,13c2.32,7.92,2,16.82,6.41,23.77.85,1.31,1.85,2.53,2.63,3.89A28.15,28.15,0,0,1,268,93.38c.62,2.11,1.26,4.31.84,6.47-.63,3.29-3.52,3.79-2.07,7.66,6.57-.48,15.52.53,21.05-3.46,2-1.45,2.78-2.63,5.44-2.89,2.92-.29,6.58,1.37,8.93-1.23,1.05-1.16,1.62-3.12,3.17-3.21a3.68,3.68,0,0,1,1.64.46,23,23,0,0,0,11.7,1.87c4.83-.49,10.15-2.4,14.22.25"/><path class="cls-1" d="M247.14,34.49c.38,4.3,3.41,7.81,5.8,11.4,3.77,5.67,6.17,12.13,8.43,18.55q6,17,11,34.36"/><path class="cls-1" d="M299.64,95.07l-1.47-9.78c-.19-1.31-.36-2.75.39-3.84s2.16-1.55,2.51-2.76"/><path class="cls-1" d="M310.68,68.62c-.94,3.66.06,7.66-1.12,11.26-1.33,4.07-5.32,7.18-5.54,11.46"/><path class="cls-1" d="M321.67,67.63l-.24,8.21"/><path class="cls-1" d="M321.08,80.89c-.45,2.56.12,5.18.2,7.78s-.51,5.49-2.61,7"/><path class="cls-1" d="M336.74,98.87A9.51,9.51,0,0,1,341.49,97"/><path class="cls-1" d="M347.59,96.3a58.3,58.3,0,0,1-28.66,6.13c-3.49-.16-7-.63-10.48-.53a63.68,63.68,0,0,0-7.54.83l-5.27.79c-2.3.34-4.6.68-6.9,1"/><path class="cls-1" d="M260,52.27a11.85,11.85,0,0,1,.95-3.41,4,4,0,0,1,2.64-2.19"/><path class="cls-1" d="M262.26,43.73l10.38-3.6"/><path class="cls-1" d="M269.19,54.06l7.55-3.86c1.61-.82,3.47-1.66,5.15-1"/><path class="cls-1" d="M304.72,56.42,299.61,62a13.57,13.57,0,0,0-2.62,3.6c-1.28,3-.27,6.66-1.79,9.55-.88,1.68-2.55,3-3,4.8-.21.9-.36,2.16-1.29,2.21"/><path class="cls-1" d="M213.76,64.14c0-1.27,1.14-2.24,2.26-2.85a10.6,10.6,0,0,0,3.2-2c.89-1.05,1.11-2.52,1.9-3.65a8.47,8.47,0,0,1,3.54-2.45l21.05-9.75"/><path class="cls-1" d="M215.07,66.31c3.25,1.37,5,4.79,6.57,8l.23.49a19.77,19.77,0,0,1,2.19,6.18,6.78,6.78,0,0,1-2,6c-1.41,1.17-3.75,2.4-3,4,.49,1,11.91-.22,13.85-.19,6,.1,11.53-.47,17.44.91a12.59,12.59,0,0,0,2.83.47,14.29,14.29,0,0,0,2.75-.42,26.91,26.91,0,0,1,9.72-.21"/><path class="cls-1" d="M224.43,73.35a11.84,11.84,0,0,1,1.24-4.06,4,4,0,0,1,3.46-2.13"/><path class="cls-1" d="M229.11,76c2.44.82,5.13.09,7.65.57,3,.57,5.39,2.75,7.61,4.85l2.38,2.24"/><path class="cls-1" d="M255.64,63.77a14.88,14.88,0,0,0-8.25-2.68"/><path class="cls-1" d="M253.49,74.56c-.24-1.89-2.21-3-4-3.66a31.63,31.63,0,0,0-8.44-1.8"/><path class="cls-1" d="M260.05,83.82c-4.72,1.26-9.66,1.4-14.53,1.89-2.86.29-5.86.77-8.06,2.62"/><path class="cls-1" d="M226.32,105.87a27.29,27.29,0,0,1,12.36-11.93,16.41,16.41,0,0,0,4.73-2.71c1.14-1.11,1.82-2.61,2.84-3.82s2.66-2.19,4.16-1.68a5.26,5.26,0,0,1,2.48,2.57l6,10.13c1.39,2.36,2.83,5.08,2,7.71"/><path class="cls-1" d="M244.53,107.68l11.69-2.44a39,39,0,0,0,14.82,5.6,8.66,8.66,0,0,1,2.72.7c2.31,1.19,2.88,4.24,4.63,6.16,3.8,4.19,10.9,1.54,16.19,3.56,2.37.91,4.27,2.73,6.47,4,5.65,3.26,12.75,2.59,18.87,4.85a5,5,0,0,1,2.88,2.1c1,1.94-.58,4.25-2.39,5.44s-4,1.9-5.39,3.59"/><path class="cls-1" d="M275.81,120.36a16.48,16.48,0,0,0-6.69,6.6"/><path class="cls-1" d="M256.31,112.11a4.26,4.26,0,0,0-2.58,3.44,19.94,19.94,0,0,0,.06,4.5.94.94,0,0,1-.17.72c-.18.18-.59.08-.56-.18"/><path class="cls-1" d="M207,196.74a23.17,23.17,0,0,0,11,8.88,44.36,44.36,0,0,0,14.06,2.86c1.2.07,2.4.12,3.6.17"/><path class="cls-1" d="M227.1,210.69l.07,8c0,1.17.13,2.54,1.12,3.16a3.48,3.48,0,0,0,1.49.4l8.79,1a7.64,7.64,0,0,0,3.4-.13,32.52,32.52,0,0,0,3-1.72c2.73-1.33,6.11,0,9-1a18.56,18.56,0,0,0,4-2.48c4.14-2.78,9.58-3.47,13.21-6.88,3-2.81,4.24-7,6.57-10.35,1.4-2,3.19-3.74,4.7-5.69a51.09,51.09,0,0,0,4.8-8.1l11.46-22.34c1.52-3,3.1-6,5.6-8.22,2.21-2,5.1-3.2,6.72-5.65,2.12-3.2,1.82-8,5-10.11"/><path class="cls-1" d="M307.41,149.12a141.48,141.48,0,0,0-27.06,38c-1.68,3.47-3.49,7.29-7,8.92"/><path class="cls-1" d="M271.59,198.3l-4.35,8.35a8.62,8.62,0,0,1-1.66,2.45,7.71,7.71,0,0,1-4.27,1.63c-5.42.73-10.92,0-16.39-.12a3,3,0,0,0-2.33.65"/><path class="cls-1" d="M266.12,195.48a22.06,22.06,0,0,1-2.69.26,84.55,84.55,0,0,1-13.29-.8l-22.82-2.57c-1.54-.18-3.5-.77-3.57-2.32"/><path class="cls-1" d="M222.76,187.65a1.78,1.78,0,0,1,1.47.24c.39-.9,1.61-1.06,2.58-.9,2,.33,3.85,1.45,5.74,2.29s4.1,1.39,6,.58"/><path class="cls-1" d="M228.72,159.91l17.11,7.75c4.34,2,8.79,4,13.54,4.47a6.09,6.09,0,0,0,3.49-.42,2.54,2.54,0,0,0,1.38-3"/><path class="cls-1" d="M286.86,157a144.77,144.77,0,0,1-18.86.68c-3.53,0-7.36-.15-10.12-2.35"/><path class="cls-1" d="M223.22,108.28q-4.69,11.64-10.23,22.9a96.67,96.67,0,0,1-5.49,10c-1.38,2.12-2.92,4.16-4.1,6.4-2.76,5.2-3.51,11.23-5.69,16.7s-6.63,10.81-12.51,11.06"/><path class="cls-1" d="M206.29,197.38c.4-1.28-.87-2.43-2-3.17-3-2-6.2-3.83-9.42-5.53a33.13,33.13,0,0,1-4.45-2.63,14.22,14.22,0,0,1-5.24-8.22"/><path class="cls-1" d="M188,179.21c2.52-.27,5.19-.52,7.5.55,1,.47,1.88,1.16,2.84,1.72,2.76,1.61,6,2,9.21,2.39"/><path class="cls-1" d="M207.18,164.4a13.18,13.18,0,0,1,3.35,4.64,13.9,13.9,0,0,0,1.78,3.7c1.68,2,4.7,2.2,6.83,3.71"/><path class="cls-1" d="M143.61,14.52a3.57,3.57,0,0,1,.72-3.69c.51-.53,1.18-.9,1.68-1.45,1.09-1.19,1.17-3,1.19-4.58"/><path class="cls-1" d="M75.24,44.28c5.1-1.89,7.42-7.79,11.77-11.06,2.29-1.73,5.26-2.83,6.64-5.35.76-1.4.92-3.06,1.67-4.47a14.76,14.76,0,0,1,2.91-3.31A29.07,29.07,0,0,0,106.53,4c3.55-1.18,8.23.42,11.77,1.62,8.44,2.87,17.59-.31,26.49-.91"/><path class="cls-1" d="M124.86,51.52l1.27,2.72q16.94-1.44,33.94-1.78c4.44-.09,9-.15,13.06-2.05-3.84-7.27-7.75-14.72-9-22.85-.25-1.73-.39-3.47-.78-5.17-.8-3.52-3.64-7.28-7.2-6.64-1.9.33-4.26,1.72-5.39.16l1.76.09-9.13-2.3c-1.83,2-4.92,2.07-7.65,2-6-.18-12.69.61-18.65.42.64,2.4,2,4.54,2.79,6.9a13.85,13.85,0,0,1,.43,6.7C119.06,36.7,121.87,45.08,124.86,51.52Z"/><path class="cls-1" d="M165,39.64a56.33,56.33,0,0,1-12.65-.16,20.53,20.53,0,0,0-4.88-.28,5.54,5.54,0,0,0-4.12,2.31"/><path class="cls-1" d="M160.81,51.76a14.61,14.61,0,0,0,3.85-3.71"/><path class="cls-1" d="M164.81,24.78c2.5-2.32,5.15-4.9,5.73-8.26.5-2.85-.47-6.2,1.4-8.4.5-.6,1.17-1,1.69-1.6C175,5,175.22,2.78,175.36.73a44.38,44.38,0,0,1-12.74,2.45C158,3.27,153,2.53,148.86,4.8"/><path class="cls-1" d="M167,16.32a7.67,7.67,0,0,0-4.89-2.15"/><path class="cls-1" d="M176,5.79c.08,2.38.12,4.92-1.11,7a16.28,16.28,0,0,0-1.12,1.83c-.56,1.33-.23,2.86-.56,4.27-.43,1.83-1.89,3.21-3,4.73a28.51,28.51,0,0,0-3.18,6.22"/><path class="cls-1" d="M117,29.26a37,37,0,0,0-7.28-2.66,12.44,12.44,0,0,0-7.61.52"/><path class="cls-1" d="M99,22.14a2.41,2.41,0,0,0,2.77,1.91"/><path class="cls-1" d="M111.81,20.68l3.09-6.19c1-2,2.39-4.23,4.59-4.29"/><path class="cls-1" d="M128.36,13.72a28.86,28.86,0,0,1,9.44-1.49"/><path class="cls-1" d="M90.3,38c1.42,2.6,1.88,5.74,3.31,8.34a12.88,12.88,0,0,1-8.75-5.11"/><path class="cls-1" d="M78,45.14c4.84,2.84,10.83,2.49,16.37,3.4,6.49,1.08,12.83,4,19.36,3.23,2.91-.35,6-1.4,8.65-.22"/><line class="cls-2" x1="168.22" y1="36.67" x2="224.22" y2="51.67"/><line class="cls-1" x1="175.22" y1="51.67" x2="211.22" y2="62.67"/><line class="cls-2" x1="396.22" y1="96.67" x2="444.22" y2="107.67"/><line class="cls-1" x1="342.22" y1="101.67" x2="444.22" y2="132.67"/><line class="cls-1" x1="286.22" y1="195.67" x2="445.22" y2="281.67"/><line class="cls-2" x1="408.22" y1="188.67" x2="401.22" y2="257.67"/><line class="cls-1" x1="315.37" y1="148.61" x2="445.06" y2="202.72"/><line class="cls-1" x1="142.22" y1="229.67" x2="273.22" y2="352.67"/><line class="cls-1" x1="70.22" y1="70.67" x2="203.22" y2="147.67"/><line class="cls-1" x1="68.22" y1="48.67" x2="219.22" y2="111.67"/><line class="cls-2" x1="69.22" y1="70.71" x2="69.22" y2="48.62"/><path class="cls-1" d="M7.3,77.44c-1.46.7-3.26.47-4.67,1.28A4.75,4.75,0,0,0,.56,81.8c-.29,1.24.6,2.59.66,3.87l141,144"/><line class="cls-2" x1="219.22" y1="352.67" x2="6.22" y2="116.67"/><line class="cls-1" x1="7.22" y1="77.67" x2="70.22" y2="70.67"/><line class="cls-1" x1="66.22" y1="41.67" x2="80.22" y2="40.67"/><path class="cls-1" d="M71.22,49.67l-8-3a3.55,3.55,0,0,1,.38-3.36,3.39,3.39,0,0,1,3-1.43"/><line class="cls-2" x1="5.22" y1="89.17" x2="6.22" y2="116.67"/></svg>