<?xml version="1.0" encoding="utf-8"?>
<!-- Generator: Adobe Illustrator 23.0.1, SVG Export Plug-In . SVG Version: 6.00 Build 0)  -->
<svg version="1.1" id="Calque_1" xmlns="http://www.w3.org/2000/svg" xmlns:xlink="http://www.w3.org/1999/xlink" x="0px" y="0px"
	 viewBox="0 0 1907 742.6" style="enable-background:new 0 0 1907 742.6;" xml:space="preserve">
<style type="text/css">
	.st0{fill:none;}
	.st1{font-family:'Futura-Medium';}
	.st2{font-size:25px;}
	.st3{font-size:13.9685px;}
	.st4{font-size:13.7152px;}
	.st5{font-size:14.1297px;}
	.st6{fill:none;stroke:#000000;stroke-width:2;stroke-miterlimit:10;}
	.st7{fill:none;stroke:#A40300;stroke-width:7;stroke-miterlimit:10;}
	.st8{fill:#A40300;}
	.st9{fill:none;stroke:#A40300;stroke-miterlimit:10;}
</style>
<g>
	<g>
		<path d="M1906.7,0.4v599.2H1.3V0.4H1906.7 M1907,0H1v600h1906V0L1907,0z"/>
	</g>
	<rect x="463.7" y="296.1" class="st0" width="136.5" height="25.5"/>
	<text transform="matrix(1 0 0 1 510.3179 329.7939)" class="st1 st2">TUFT</text>
	<rect x="999.4" y="33.2" class="st0" width="91.8" height="17.1"/>
	<text transform="matrix(1 0 0 1 1021.4727 44.707)" class="st1 st3">COUPE</text>
	<rect x="1584.3" y="42.9" class="st0" width="120.5" height="14.7"/>
	<text transform="matrix(1 0 0 1 1592.4844 54.4844)" class="st1 st3">VERIFICATIONS</text>
	<rect x="1183.8" y="341.2" class="st0" width="96.4" height="16.8"/>
	<text transform="matrix(1.067 0 0 1 1198.3867 352.6438)" class="st1 st4">TEINTURE</text>
	<rect x="1445.7" y="330.4" class="st0" width="91.8" height="17.1"/>
	<text transform="matrix(1 0 0 1 1471.8789 341.8857)" class="st1 st3">LATEX</text>
	<rect x="1721.9" y="330.4" class="st0" width="91.8" height="17.1"/>
	<text transform="matrix(1 0 0 1 1748.8525 341.8369)" class="st1 st3">FOUR</text>
	<rect x="97.4" y="228" class="st0" width="146" height="21"/>
	<text transform="matrix(1 0 0 1 106.7378 239.5674)" class="st1 st3">ECHANTILLONAGE </text>
	<rect x="116.6" y="337.7" class="st0" width="108.3" height="44.3"/>
	<text transform="matrix(1 0 0 1 117.478 349.2197)" class="st1 st3">COLIS - ENVOIS</text>
	<rect x="1143.3" y="472.5" class="st0" width="108.6" height="51.7"/>
	<text transform="matrix(0.9886 0 0 1 1154.418 484.2874)" class="st1 st5">IMPRESSION </text>
	<text transform="matrix(0.9886 0 0 1 1173.3506 501.2415)" class="st1 st5">TEXTILE</text>
	<g>
		<path d="M762.3,16.4v68.1H298.5V16.4H762.3 M762.6,16.1H298.2v68.8h464.5V16.1L762.6,16.1z"/>
	</g>
	<g>
		<path d="M1261,16.4v68.1H801.4V16.4H1261 M1261.3,16.1H801v68.8h460.3V16.1L1261.3,16.1z"/>
	</g>
	<rect x="97.7" y="122.2" class="st6" width="146" height="428.5"/>
	<rect x="386.5" y="122.2" class="st6" width="291.2" height="105.8"/>
	<rect x="386.5" y="249" class="st6" width="291.2" height="60.1"/>
	<rect x="386.5" y="331.8" class="st6" width="291.2" height="56.6"/>
	<rect x="386.5" y="411.4" class="st6" width="291.2" height="139.3"/>
	<g>
		<path d="M1044.1,138.6v105.1H783.2V138.6H1044.1 M1044.4,138.3H782.9v105.8h261.6V138.3L1044.4,138.3z"/>
	</g>
	<g>
		<path d="M1051.4,332.1v218.3H783.2V332.1H1051.4 M1051.8,331.8H782.9v219h268.9V331.8L1051.8,331.8z"/>
	</g>
	<g>
		<path d="M1347.9,133.8v416.6h-213.4V133.8H1347.9 M1348.3,133.4h-214.1v417.3h214.1V133.4L1348.3,133.4z"/>
	</g>
	<g>
		<path d="M1602.1,133.8v415.6h-190V133.8H1602.1 M1602.5,133.4h-190.7v416.3h190.7V133.4L1602.5,133.4z"/>
	</g>
	<g>
		<path d="M1856,133.8v415.6h-175.7V133.8H1856 M1856.4,133.4H1680v416.3h176.3V133.4L1856.4,133.4z"/>
	</g>
	<g>
		<path d="M1856,7.7v85.9h-443.8V7.7H1856 M1856.4,7.3h-444.5v86.6h444.6L1856.4,7.3L1856.4,7.3z"/>
	</g>
	<rect x="484.3" y="33.5" class="st0" width="91.8" height="17.1"/>
	<text transform="matrix(1 0 0 1 506.3853 45.0557)" class="st1 st3">COUPE</text>
	<rect x="486.1" y="487.5" class="st0" width="91.8" height="17.1"/>
	<text transform="matrix(1 0 0 1 494.2651 499.0312)" class="st1 st3">MACHINES</text>
	<rect x="486.1" y="168" class="st0" width="91.8" height="17.1"/>
	<text transform="matrix(1 0 0 1 494.2651 179.5029)" class="st1 st3">MACHINES</text>
	<rect x="463.7" y="268.9" class="st0" width="154.4" height="19.9"/>
	<text transform="matrix(1 0 0 1 510.5737 280.5127)" class="st1 st3">BOBINES</text>
	<rect x="454.6" y="349.9" class="st0" width="154.3" height="19.9"/>
	<text transform="matrix(1 0 0 1 501.4941 361.5303)" class="st1 st3">BOBINES</text>
	<rect x="830.4" y="189.3" class="st0" width="154.3" height="19.9"/>
	<text transform="matrix(1 0 0 1 867.5166 200.8926)" class="st1 st3">ENSOUPLES</text>
	<rect x="836.3" y="421.2" class="st0" width="154.4" height="19.9"/>
	<text transform="matrix(1 0 0 1 883.1836 432.7695)" class="st1 st3">BOBINES</text>
	<rect x="1134.2" y="382.7" class="st6" width="117.7" height="168"/>
	<rect x="1" y="600" class="st6" width="1412.6" height="137.9"/>
	<rect x="624.2" y="599.1" class="st7" width="183.7" height="140"/>
	<g>
		<rect x="159.2" y="658.3" class="st0" width="340.1" height="46.5"/>
		<text transform="matrix(1 0 0 1 265.8828 669.7773)" class="st1 st3">STOCK - ARCHIVES</text>
	</g>
	<rect x="973.2" y="663.2" class="st0" width="315" height="54.1"/>
	<text transform="matrix(1 0 0 1 1098.5 674.5928)" class="st1 st3">BUREAUX</text>
	<rect x="666.6" y="657.9" class="st0" width="99.2" height="42.2"/>
	<text transform="matrix(1 0 0 1 692.3794 669.4287)" class="st1 st3">NOTRE </text>
	<text transform="matrix(1 0 0 1 688.2622 686.1904)" class="st1 st3">BUREAU</text>
	<rect x="308" y="137.9" class="st0" width="27.9" height="412.8"/>
	<text transform="matrix(4.489659e-11 -1 1 4.489659e-11 319.3848 530.97)" class="st1 st3">STOCK- ÉCHANTILLONAGE- CHUTES- ESSAIS EN COURS</text>
	<rect x="719.3" y="125.4" class="st0" width="27.9" height="412.8"/>
	<text transform="matrix(4.489659e-11 -1 1 4.489659e-11 730.7567 354.8792)" class="st1 st3">STOCK</text>
	<polygon class="st0" points="732.3,304.2 731,304.2 731,304.2 	"/>
	<rect x="1082.5" y="123.6" class="st0" width="27.9" height="412.8"/>
	<text transform="matrix(4.489659e-11 -1 1 4.489659e-11 1093.9375 353.1331)" class="st1 st3">STOCK</text>
	<rect x="1370.3" y="115.2" class="st0" width="27.9" height="412.8"/>
	<text transform="matrix(4.489659e-11 -1 1 4.489659e-11 1381.6885 344.7522)" class="st1 st3">STOCK </text>
	<rect x="1639.2" y="115.2" class="st0" width="27.9" height="412.8"/>
	<text transform="matrix(4.489659e-11 -1 1 4.489659e-11 1650.5811 463.5413)" class="st1 st3">STOCK- DOSSIER (REVÊTEMENTS AU DOS)</text>
	<rect x="52.7" y="123.6" class="st0" width="27.9" height="412.8"/>
	<text transform="matrix(4.489659e-11 -1 1 4.489659e-11 64.1104 353.1331)" class="st1 st3">STOCK</text>
	<circle class="st8" cx="206" cy="493" r="5" id="echantillonage"/>
	<circle class="st8" cx="656" cy="526" r="5" id="machines"/>
	<circle class="st8" cx="728" cy="59" r="5" id="coupe"/>
	<circle class="st8" cx="1016" cy="223" r="5" id="ensouples"/>
	<circle class="st8" cx="1324" cy="526" r="5" id="teinture-b"/>
	<circle class="st8" cx="1026" cy="516" r="5" id="bobines"/>
	<circle class="st8" cx="1814" cy="70" r="5" id="verifications"/>
	<circle class="st8" cx="1335" cy="316" r="5" id="teinture-t"/>
	<circle class="st8" cx="359" cy="388" r="5" id="chutes"/>
	<circle class="st8" cx="1110" cy="343" r="5" id="stock"/>
	<circle class="st8" cx="1833" cy="165" r="5" id="four"/>
	<circle class="st8" cx="1571" cy="160" r="5" id="latex"/>
	<path class="st9" d="M217.1,454.7c13.6,55,63.9,95,118,111.7c54.1,16.7,112.1,13.8,168.6,9.4c56.5-4.4,113.8-10.1,169.3,1.2
		c14.2,2.9,31.5,11.2,30.3,25.7"/>
	<path class="st9" d="M720.8,78.2c-3.1,23.9,1.9,47.9,6.2,71.6c27.1,148.3,29.3,301.1,6.5,450.2c0.5-1.1,1-2.2,1.5-3.4"/>
	<path class="st9" d="M755.5,600.6c23.2-12.2,47.1-23.5,72.7-29c30.2-6.4,61.4-4.4,92.3-5.9c30.8-1.5,63-7.3,87-26.6"/>
	<path class="st9" d="M904.4,219.8c-7.5,27.8-35.6,44.2-62,55.5s-55.6,22.2-71,46.5c-14.8,23.4-12.9,53.2-11.7,80.8
		c2.9,64.5-0.8,129.3-10.8,193.1c17.5-26.7,57.9-31.4,89.8-32.3c32-0.9,63.5,6.8,95.3,9.8c67.7,6.3,135.4-8.9,201.8-24
		c22.8-5.2,46.4-10.7,64.8-25.1"/>
	<path class="st9" d="M648.9,196.1c-1.1,15.3,19,22.1,27.8,34.7c4,5.7,5.5,12.7,6.9,19.5c23.8,115.4,34.8,233.4,32.8,351.2"/>
	<path class="st9" d="M723,601c-3.1-8.1-7.5-15.7-11.9-23.2c-7.5-13-15-26-22.5-39c-7.5-13-15.2-26.3-26.6-36.2
		c-10.1-8.8-22.5-14.4-34.7-19.9"/>
	<path class="st9" d="M1075.3,348.4c-29.9-30.8-75.9-39.1-118.8-40.5c-46.3-1.5-92.9,3-138.1,13.5c-9.4,2.2-18.9,4.7-27.6,8.9
		c-22.3,11-37.7,33-46,56.4c-8.3,23.5-10.4,48.6-12.4,73.4c-3.8,45.9-7.5,91.7-11.3,137.6c148.7-40.2,317.2-26.9,471.3-29.2
		c40.2-0.6,86.5-5.2,109.1-38.5c8.3-12.2,12.1-26.8,15.6-41c7.9-32.2,14.9-64.7,21-97.3"/>
	<path class="st9" d="M706,601c39.4-29.2,91.9-35.9,141.3-32.7c49.3,3.2,97.7,15.3,146.9,19.7c34.3,3,68.8,2.2,103.2,1.4
		c42-1,83.9-1.9,125.9-2.9c39.4-0.9,79.2-1.8,117.5-11c82.4-19.8,153.8-79.4,186.7-155.9"/>
	<path class="st9" d="M793.3,596c112-37.1,233.5-10.8,351.2-4.1c89.5,5.1,179.1-1.4,268.5-7.9c106.8-7.8,224.5-20.5,297.2-99.2
		c26.7-28.9,44.8-64.5,62.6-99.6c21.2-42,42.8-85.5,45.6-132.5"/>
	<path class="st9" d="M712,599c282.9-45.2,576.2,17,856.7-41.6c12.7-2.7,25.9-5.8,35.7-14.3c8.1-7,13.1-17,17-27.1
		c26.6-69.5,7.2-147-5.5-220.4s-15-158,35.8-212.2"/>
	<path class="st9" d="M707.5,593.1c-8.9-18.3-31.6-24.2-51.5-28.2c-20.4-4.1-42.3-8-61.4,0.2c-21.6,9.3-34.1,31.6-45.1,52.5"/>
</g>
</svg>
