<svg id="Calque_1" data-name="Calque 1" xmlns="http://www.w3.org/2000/svg" viewBox="0 0 5459 2120"><defs><style>.cls-1{font-size:85px;}.cls-1,.cls-14,.cls-2,.cls-6{font-family:Futura-Medium, Futura;font-weight:500;}.cls-2{font-size:40px;}.cls-3{letter-spacing:0em;}.cls-4{letter-spacing:0.02em;}.cls-5{letter-spacing:-0.04em;}.cls-6{font-size:39.27px;}.cls-7{letter-spacing:0.04em;}.cls-8{letter-spacing:0em;}.cls-9{letter-spacing:0.02em;}.cls-10{letter-spacing:-0.03em;}.cls-11{letter-spacing:0.01em;}.cls-12{letter-spacing:-0.03em;}.cls-13{letter-spacing:-0.03em;}.cls-14{font-size:40.46px;}.cls-15,.cls-18,.cls-28,.cls-29{fill:none;stroke-miterlimit:10;}.cls-15{stroke:#000;stroke-width:2px;}.cls-16{letter-spacing:-0.04em;}.cls-17{letter-spacing:-0.01em;}.cls-18,.cls-28{stroke:#a40300;}.cls-18{stroke-width:7px;}.cls-19{letter-spacing:0.01em;}.cls-20{letter-spacing:-0.02em;}.cls-21{letter-spacing:-0.02em;}.cls-22{letter-spacing:-0.03em;}.cls-23{letter-spacing:0.01em;}.cls-24{letter-spacing:-0.03em;}.cls-25{letter-spacing:0em;}.cls-26{letter-spacing:-0.01em;}.cls-27{letter-spacing:0em;}.cls-28,.cls-29{stroke-width:5px;}.cls-29{stroke:red;}</style></defs><title>usine Balsan</title><path d="M5458,1V1717H2V1H5458m1-1H1V1718H5459V0Z"/><text class="cls-1" transform="translate(1428.27 918.73)">TUFT</text><text class="cls-2" transform="translate(2923.61 128.13)"><tspan class="cls-3">C</tspan><tspan x="27.83" y="0">OUPE</tspan></text><text class="cls-2" transform="translate(4559.13 156.13)">VERIFI<tspan class="cls-4" x="117.68" y="0">C</tspan><tspan class="cls-5" x="146.43" y="0">A</tspan><tspan x="174.38" y="0">TIONS</tspan></text><text class="cls-6" transform="translate(3430.12 1009.93) scale(1.07 1)">TEINTURE</text><text class="cls-2" transform="translate(4213.29 979.13)"><tspan class="cls-7">L</tspan><tspan class="cls-5" x="19.41" y="0">A</tspan><tspan x="47.36" y="0">TEX</tspan></text><text class="cls-2" transform="translate(5006.41 978.99)"><tspan class="cls-8">F</tspan><tspan x="20.37" y="0">OUR</tspan></text><text class="cls-2" transform="translate(304.85 686.13)">E<tspan class="cls-9" x="22.62" y="0">C</tspan><tspan x="51.48" y="0">HANTIL</tspan><tspan class="cls-10" x="193.05" y="0">L</tspan><tspan x="209.55" y="0">O</tspan><tspan class="cls-11" x="245.29" y="0">N</tspan><tspan class="cls-12" x="279.3" y="0">A</tspan><tspan x="307.56" y="0">GE </tspan></text><text class="cls-2" transform="translate(335.6 1000.13)"><tspan class="cls-3">C</tspan><tspan x="27.83" y="0">OLIS - EN</tspan><tspan class="cls-13" x="206.21" y="0">V</tspan><tspan x="231.93" y="0">OIS</tspan></text><text class="cls-14" transform="translate(3304.21 1386.91) scale(0.99 1)">IMPRESSION <tspan x="54.84" y="48.55">TEXTILE</tspan></text><path d="M2181,47V242H853V47H2181m1-1H852V243H2182V46Z"/><path d="M3609,47V242H2293V47H3609m1-1H2292V243H3610V46Z"/><rect class="cls-15" x="278" y="350" width="418" height="1227"/><rect class="cls-15" x="1105" y="350" width="834" height="303"/><rect class="cls-15" x="1105" y="713" width="834" height="172"/><rect class="cls-15" x="1105" y="950" width="834" height="162"/><rect class="cls-15" x="1105" y="1178" width="834" height="399"/><path d="M2988,397V698H2241V397h747m1-1H2240V699h749V396Z"/><path d="M3009,951v625H2241V951h768m1-1H2240v627h770V950Z"/><path d="M3858,383V1576H3247V383h611m1-1H3246V1577h613V382Z"/><path d="M4586,383V1573H4042V383h544m1-1H4041V1574h546V382Z"/><path d="M5313,383V1573H4810V383h503m1-1H4809V1574h505V382Z"/><path d="M5313,22V268H4042V22H5313m1-1H4041V269H5314V21Z"/><text class="cls-2" transform="translate(1448.61 129.13)"><tspan class="cls-3">C</tspan><tspan x="27.83" y="0">OUPE</tspan></text><text class="cls-2" transform="translate(1414.09 1429.13)">M<tspan class="cls-16" x="38.46" y="0">A</tspan><tspan class="cls-9" x="66.68" y="0">C</tspan><tspan x="95.55" y="0">HINES</tspan></text><text class="cls-2" transform="translate(1414.09 514.13)">M<tspan class="cls-16" x="38.46" y="0">A</tspan><tspan class="cls-9" x="66.68" y="0">C</tspan><tspan x="95.55" y="0">HINES</tspan></text><text class="cls-2" transform="translate(1460.62 803.38)"><tspan class="cls-17">B</tspan><tspan x="23.42" y="0">OBINES</tspan></text><text class="cls-2" transform="translate(1434.62 1035.38)"><tspan class="cls-17">B</tspan><tspan x="23.42" y="0">OBINES</tspan></text><text class="cls-2" transform="translate(2482.64 575.38)">ENSOUPLES</text><text class="cls-2" transform="translate(2527.62 1239.38)"><tspan class="cls-17">B</tspan><tspan x="23.42" y="0">OBINES</tspan></text><rect class="cls-15" x="3246" y="1095.51" width="337" height="481.49"/><rect class="cls-15" x="1" y="1718" width="4045" height="395"/><rect class="cls-18" x="1785.5" y="1715.5" width="526" height="401"/><text class="cls-2" transform="translate(759.51 1918.08)"><tspan class="cls-19">S</tspan><tspan class="cls-20" x="23.89" y="0">T</tspan><tspan x="42.23" y="0">O</tspan><tspan class="cls-9" x="77.97" y="0">C</tspan><tspan x="106.84" y="0">K - A</tspan><tspan class="cls-21" x="196.37" y="0">R</tspan><tspan class="cls-9" x="219.77" y="0">C</tspan><tspan x="248.63" y="0">HIVES</tspan></text><text class="cls-2" transform="translate(3144.66 1931.86)">BURE<tspan class="cls-22" x="99.9" y="0">A</tspan><tspan x="128.38" y="0">UX</tspan></text><text class="cls-2" transform="translate(1981.52 1917.08)"><tspan class="cls-23">N</tspan><tspan class="cls-24" x="34.04" y="0">O</tspan><tspan x="68.71" y="0">TRE </tspan><tspan x="-11.61" y="48">BURE</tspan><tspan class="cls-22" x="88.29" y="48">A</tspan><tspan x="116.77" y="48">U</tspan></text><text class="cls-2" transform="translate(913.02 1520.27) rotate(-90)"><tspan class="cls-19">S</tspan><tspan class="cls-20" x="23.89" y="0">T</tspan><tspan x="42.23" y="0">O</tspan><tspan class="cls-9" x="77.97" y="0">C</tspan><tspan class="cls-25" x="106.84" y="0">K</tspan><tspan x="133.46" y="0">- É</tspan><tspan class="cls-9" x="177.13" y="0">C</tspan><tspan x="206" y="0">HANTIL</tspan><tspan class="cls-10" x="347.56" y="0">L</tspan><tspan x="364.06" y="0">O</tspan><tspan class="cls-11" x="399.8" y="0">N</tspan><tspan class="cls-12" x="433.81" y="0">A</tspan><tspan x="462.07" y="0">GE- </tspan><tspan class="cls-9" x="539.43" y="0">C</tspan><tspan x="568.3" y="0">HUTES- ES</tspan><tspan class="cls-26" x="759.41" y="0">S</tspan><tspan x="782.42" y="0">AIS EN </tspan><tspan class="cls-3" x="928.24" y="0">C</tspan><tspan x="956.07" y="0">OURS</tspan></text><text class="cls-2" transform="translate(2091.02 1016.56) rotate(-90)"><tspan class="cls-19">S</tspan><tspan class="cls-20" x="23.89" y="0">T</tspan><tspan x="42.23" y="0">O</tspan><tspan class="cls-9" x="77.97" y="0">C</tspan><tspan x="106.84" y="0">K</tspan></text><text/><text class="cls-2" transform="translate(3131.02 1011.56) rotate(-90)"><tspan class="cls-19">S</tspan><tspan class="cls-20" x="23.89" y="0">T</tspan><tspan x="42.23" y="0">O</tspan><tspan class="cls-9" x="77.97" y="0">C</tspan><tspan x="106.84" y="0">K</tspan></text><text class="cls-2" transform="translate(3955.02 987.56) rotate(-90)"><tspan class="cls-19">S</tspan><tspan class="cls-20" x="23.89" y="0">T</tspan><tspan x="42.23" y="0">O</tspan><tspan class="cls-9" x="77.97" y="0">C</tspan><tspan x="106.84" y="0">K </tspan></text><text class="cls-2" transform="translate(4725.02 1327.19) rotate(-90)"><tspan class="cls-19">S</tspan><tspan class="cls-20" x="23.89" y="0">T</tspan><tspan x="42.23" y="0">O</tspan><tspan class="cls-9" x="77.97" y="0">C</tspan><tspan class="cls-25" x="106.84" y="0">K</tspan><tspan x="133.46" y="0">- DOSSIER (REVÊTEMEN</tspan><tspan class="cls-27" x="584.55" y="0">T</tspan><tspan x="603.81" y="0">S </tspan><tspan class="cls-22" x="639.47" y="0">A</tspan><tspan x="667.95" y="0">U DOS)</tspan></text><path class="cls-28" d="M2023.45,1687.51c-70.25-43.45-157.76-45.14-240.33-43.26-317.13,7.2-639.85,47.17-947.83-28.77C792.67,1605,750,1592,712.76,1568.8c-111-69.16-149.25-209.76-178.51-337.2"/><path class="cls-28" d="M2055.41,1669.22c-28.26-27.73-69.39-37-108.46-43.48a1405.12,1405.12,0,0,0-206.7-18.59c-108.78-1.7-217.57,9.23-326.28,4.84-79.47-3.21-158.36-14.6-237.08-26-43.48-6.28-87.76-12.79-127.33-31.9s-74.4-53.14-83.2-96.19"/><path class="cls-28" d="M2080,1667c7.63-155.2-23.84-315.37-109-445.32-10.42-15.89-22-31.68-38.14-41.71-14.19-8.82-30.89-12.55-47.31-15.63a805.06,805.06,0,0,0-199.42-12"/><path class="cls-28" d="M2112.45,1564.84A2587.22,2587.22,0,0,1,2332.66,597.7"/><path class="cls-28" d="M2091.27,1387c20.21-206.37,32.72-414.68,10.74-620.87s-79.84-411.3-191.55-586"/><path class="cls-28" d="M2099.07,1693.55c7.42-243.26,31.62-485.65,55.81-727.81l28.2-282.35c9.64-96.53,19.53-194.19,52.15-285.56s90.84-177.25,176.1-223.54"/><path class="cls-28" d="M2182.19,1684.89c176.27,9.12,352.9,7.4,529.39,5.67,61.43-.6,123.16-1.23,183.76-11.3,72.44-12,141.92-37.35,210.91-62.53,74.77-27.29,150.95-55.35,213.43-104.66"/><path class="cls-28" d="M2158.6,1672.74c23.61-22.29,57.75-28.57,89.93-32.9,315.94-42.58,644,9,931.59,146.58"/><path class="cls-28" d="M2116.28,1692.67c21.56-52.38,77.72-82.54,133-94.87,81.66-18.21,166.65-6.63,249.5,5l504.44,71c137.36,19.32,279.42,38.38,413,1.07s257.45-146.67,266.08-285.12"/><path class="cls-28" d="M2142.09,1688.39c241.85-54.89,493.24-42.5,740.92-29.82l336.78,17.25c121.59,6.23,244,12.43,364.72-3s241.1-54,337-128.94c114.4-89.36,187.63-229.42,195.75-374.35"/><path class="cls-28" d="M2075.59,1673c608.66-122.3,1239.69,124.39,1855.06,42.36,160.7-21.42,317.68-65,477.94-89.54,88.74-13.56,179.21-21.44,263.95-51.09s165.23-85,201.39-167.22"/><path class="cls-28" d="M4200.91,206.34c-122.56,91.26-179.33,248.06-196.44,399.91s-1.16,305.57-10.87,458.07a1367.26,1367.26,0,0,1-138.73,518c-10.72,21.66-22.7,43.84-42.32,58-21.61,15.56-49.36,19.14-75.85,21.86a2853.73,2853.73,0,0,1-598.67-1.6c-192.48-20.85-383-61.3-576.5-68.63s-395.13,21.43-557.12,127.46"/><path class="cls-29" d="M2071.11,1696.91c-203.17-93-460.09-52.89-625.29,97.55"/><text class="cls-2" transform="translate(182.02 1011.56) rotate(-90)"><tspan class="cls-19">S</tspan><tspan class="cls-20" x="23.89" y="0">T</tspan><tspan x="42.23" y="0">O</tspan><tspan class="cls-9" x="77.97" y="0">C</tspan><tspan x="106.84" y="0">K</tspan></text></svg>