<svg id="Calque_1" data-name="Calque 1" xmlns="http://www.w3.org/2000/svg" viewBox="0 0 759 211"><defs><style>.cls-1{fill:#666;}.cls-2,.cls-3,.cls-5{fill:none;}.cls-2{stroke:#666;}.cls-2,.cls-3,.cls-4,.cls-5{stroke-miterlimit:10;}.cls-3,.cls-4{stroke:#000;}.cls-4{fill:#fff;}.cls-5{stroke:#a40300;stroke-width:0.25px;}</style></defs><title>aiguilleteÌ</title><rect class="cls-1" y="132" width="219" height="11"/><rect x="0.51" y="0.5" width="757.98" height="58"/><path d="M758,1V58H1V1H758m1-1H0V59H759V0Z"/><line class="cls-2" x1="243" y1="76.68" x2="758.72" y2="76.68"/><line class="cls-2" x1="243.28" y1="87.5" x2="759" y2="87.5"/><line class="cls-2" x1="243" y1="98.5" x2="758.72" y2="98.5"/><line class="cls-2" x1="243.28" y1="109.5" x2="759" y2="109.5"/><line class="cls-2" x1="243" y1="120.5" x2="758.72" y2="120.5"/><line class="cls-2" x1="243.28" y1="131.5" x2="759" y2="131.5"/><line class="cls-2" x1="243" y1="142.5" x2="758.72" y2="142.5"/><line class="cls-2" x1="243.28" y1="153.5" x2="759" y2="153.5"/><line class="cls-2" x1="243" y1="164.5" x2="758.72" y2="164.5"/><line class="cls-2" x1="243.28" y1="174.5" x2="759" y2="174.5"/><line class="cls-2" x1="243" y1="185.5" x2="758.72" y2="185.5"/><line class="cls-2" x1="243.28" y1="196.5" x2="759" y2="196.5"/><line class="cls-3" x1="226.5" y1="202.5" x2="226.5" y2="61.5"/><line class="cls-3" x1="235.5" y1="202" x2="235.5" y2="61"/><rect class="cls-4" x="225.5" y="38.5" width="11" height="23"/><line class="cls-3" x1="235.5" y1="201.5" x2="231.5" y2="210.5"/><line class="cls-3" x1="226.5" y1="202.5" x2="231.5" y2="210.5"/><line class="cls-3" x1="232" y1="80.5" x2="236" y2="80.5"/><line class="cls-3" x1="230.5" y1="108.5" x2="226.5" y2="108.5"/><line class="cls-3" x1="236" y1="125.5" x2="232" y2="125.5"/><line class="cls-3" x1="235" y1="168.5" x2="231" y2="168.5"/><line class="cls-3" x1="230" y1="147.5" x2="226" y2="147.5"/><line class="cls-3" x1="230" y1="183.5" x2="226" y2="183.5"/><line class="cls-3" x1="235" y1="194.5" x2="231" y2="194.5"/><line class="cls-5" x1="252.94" y1="71" x2="252.94" y2="211"/><line class="cls-5" x1="256.94" y1="74.75" x2="252.94" y2="71"/><line class="cls-5" x1="248.95" y1="74.75" x2="252.94" y2="71"/><line class="cls-5" x1="213" y1="210" x2="213" y2="72"/><line class="cls-5" x1="210" y1="206.3" x2="213" y2="210"/><line class="cls-5" x1="216" y1="206.3" x2="213" y2="210"/></svg>